<?xml version="1.0" encoding="UTF-8" standalone="no"?>
<!-- Created with Inkscape (http://www.inkscape.org/) -->

<svg
   width="36.266125pt"
   height="7.5300345pt"
   viewBox="0 0 12.793883 2.6564288"
   version="1.1"
   id="svg442"
   inkscape:version="1.3 (0e150ed6c4, 2023-07-21)"
   sodipodi:docname="add_button_with_menu.svg"
   xmlns:inkscape="http://www.inkscape.org/namespaces/inkscape"
   xmlns:sodipodi="http://sodipodi.sourceforge.net/DTD/sodipodi-0.dtd"
   xmlns="http://www.w3.org/2000/svg"
   xmlns:svg="http://www.w3.org/2000/svg">
  <sodipodi:namedview
     id="namedview444"
     pagecolor="#ffffff"
     bordercolor="#000000"
     borderopacity="0.25"
     inkscape:showpageshadow="2"
     inkscape:pageopacity="0.0"
     inkscape:pagecheckerboard="0"
     inkscape:deskcolor="#d1d1d1"
     inkscape:document-units="mm"
     showgrid="false"
     inkscape:zoom="8.5052248"
     inkscape:cx="13.873825"
     inkscape:cy="-0.76423612"
     inkscape:window-width="2490"
     inkscape:window-height="1371"
     inkscape:window-x="2630"
     inkscape:window-y="32"
     inkscape:window-maximized="1"
     inkscape:current-layer="layer1" />
  <defs
     id="defs439" />
  <g
     inkscape:label="Layer 1"
     inkscape:groupmode="layer"
     id="layer1"
     transform="translate(-193.7238,-103.07003)">
    <path
       d="m 206.12096,103.89625 c 0.10332,0.10332 0.10332,0.27085 0,0.37417 -0.31187,0.31178 -0.93537,0.80646 -0.93537,0.80646 0,0 -0.62371,-0.49437 -0.93551,-0.80618 -0.0948,-0.0949 -0.10369,-0.24569 -0.0206,-0.35098 l 0.0205,-0.0233 c 0.10333,-0.10333 0.27085,-0.10334 0.37418,-1e-5 l 0.56126,0.4967 0.56127,-0.4967 c 0.0949,-0.0948 0.24568,-0.10368 0.35098,-0.0206 z"
       style="fill:#ffffff;stroke-width:0.264583"
       id="path302-3"
       sodipodi:nodetypes="ccccccccccc" />
    <g
       aria-label="Add"
       transform="scale(0.99174875,1.0083199)"
       id="text352"
       style="font-weight:bold;font-size:3.59px;font-family:'Avenir Next LT Pro';-inkscape-font-specification:'Avenir Next LT Pro Bold';text-align:center;text-anchor:middle;opacity:1;fill:#ffffff;stroke-width:0.531401;stroke-linecap:round;stroke-linejoin:round;stroke-opacity:0.206937;paint-order:markers fill stroke">
      <path
         d="m 197.97735,104.80728 h -0.56444 l -0.22437,-0.58372 h -1.02722 l -0.21211,0.58372 h -0.55042 l 1.00093,-2.56979 h 0.54866 z m -0.95534,-1.0167 -0.35409,-0.95359 -0.34708,0.95359 z"
         style="-inkscape-font-specification:'Arial Bold';fill:#ffffff"
         id="path3376" />
      <path
         d="m 199.95641,104.80728 h -0.45751 v -0.27346 q -0.11394,0.15952 -0.26995,0.2384 -0.15426,0.0771 -0.31203,0.0771 -0.32078,0 -0.55042,-0.25768 -0.22788,-0.25943 -0.22788,-0.72221 0,-0.47329 0.22263,-0.7187 0.22262,-0.24716 0.56269,-0.24716 0.31202,0 0.5399,0.25943 v -0.92554 h 0.49257 z m -1.3147,-0.97112 q 0,0.298 0.0824,0.43122 0.1192,0.19282 0.33306,0.19282 0.17003,0 0.28923,-0.14374 0.1192,-0.14549 0.1192,-0.43297 0,-0.32079 -0.11569,-0.46102 -0.1157,-0.14199 -0.29625,-0.14199 -0.17529,0 -0.29449,0.14023 -0.11745,0.13849 -0.11745,0.41545 z"
         style="-inkscape-font-specification:'Arial Bold';fill:#ffffff"
         id="path3378" />
      <path
         d="m 202.14933,104.80728 h -0.45752 v -0.27346 q -0.11394,0.15952 -0.26995,0.2384 -0.15426,0.0771 -0.31202,0.0771 -0.32079,0 -0.55042,-0.25768 -0.22788,-0.25943 -0.22788,-0.72221 0,-0.47329 0.22262,-0.7187 0.22262,-0.24716 0.56269,-0.24716 0.31202,0 0.5399,0.25943 v -0.92554 h 0.49258 z m -1.3147,-0.97112 q 0,0.298 0.0824,0.43122 0.1192,0.19282 0.33305,0.19282 0.17004,0 0.28924,-0.14374 0.1192,-0.14549 0.1192,-0.43297 0,-0.32079 -0.1157,-0.46102 -0.11569,-0.14199 -0.29624,-0.14199 -0.1753,0 -0.2945,0.14023 -0.11744,0.13849 -0.11744,0.41545 z"
         style="-inkscape-font-specification:'Arial Bold';fill:#ffffff"
         id="path3380" />
    </g>
  </g>
</svg>
