<?xml version="1.0" encoding="UTF-8" standalone="no"?>
<!-- Created with Inkscape (http://www.inkscape.org/) -->

<svg
   width="36.266125pt"
   height="7.5300345pt"
   viewBox="0 0 12.793883 2.6564288"
   version="1.1"
   id="svg442"
   inkscape:version="1.2.2 (b0a8486541, 2022-12-01)"
   sodipodi:docname="add_button.svg"
   xmlns:inkscape="http://www.inkscape.org/namespaces/inkscape"
   xmlns:sodipodi="http://sodipodi.sourceforge.net/DTD/sodipodi-0.dtd"
   xmlns="http://www.w3.org/2000/svg"
   xmlns:svg="http://www.w3.org/2000/svg">
  <sodipodi:namedview
     id="namedview444"
     pagecolor="#ffffff"
     bordercolor="#000000"
     borderopacity="0.25"
     inkscape:showpageshadow="2"
     inkscape:pageopacity="0.0"
     inkscape:pagecheckerboard="0"
     inkscape:deskcolor="#d1d1d1"
     inkscape:document-units="mm"
     showgrid="false"
     inkscape:zoom="43.774828"
     inkscape:cx="19.006357"
     inkscape:cy="2.1016644"
     inkscape:window-width="2560"
     inkscape:window-height="1403"
     inkscape:window-x="0"
     inkscape:window-y="0"
     inkscape:window-maximized="1"
     inkscape:current-layer="layer1" />
  <defs
     id="defs439" />
  <g
     inkscape:label="Layer 1"
     inkscape:groupmode="layer"
     id="layer1"
     transform="translate(-193.7238,-103.07003)">
    <path
       d="m 205.19477,103.08063 a 0.26458333,0.26458333 0 0 1 0.26458,0.26458 v 0.79375 h 0.79375 a 0.26458333,0.26458333 0 0 1 0.26273,0.23363 l 0.002,0.031 a 0.26458333,0.26458333 0 0 1 -0.26458,0.26458 h -0.79375 v 0.79375 a 0.26458333,0.26458333 0 0 1 -0.23363,0.26273 l -0.0309,0.002 a 0.26458333,0.26458333 0 0 1 -0.26459,-0.26458 v -0.79375 h -0.79375 a 0.26458333,0.26458333 0 0 1 -0.26273,-0.23363 l -0.002,-0.031 a 0.26458333,0.26458333 0 0 1 0.26458,-0.26459 h 0.79375 v -0.79375 a 0.26458333,0.26458333 0 0 1 0.23363,-0.26273 z"
       style="fill:#ffffff;stroke-width:0.264583"
       id="path302" />
    <g
       aria-label="Add"
       transform="scale(0.99174875,1.0083199)"
       id="text352"
       style="font-weight:bold;font-size:3.59px;font-family:'Avenir Next LT Pro';-inkscape-font-specification:'Avenir Next LT Pro Bold';text-align:center;text-anchor:middle;opacity:1;fill:#ffffff;stroke-width:0.531401;stroke-linecap:round;stroke-linejoin:round;stroke-opacity:0.206937;paint-order:markers fill stroke">
      <path
         d="m 197.97735,104.80728 h -0.56444 l -0.22437,-0.58372 h -1.02722 l -0.21211,0.58372 h -0.55042 l 1.00093,-2.56979 h 0.54866 z m -0.95534,-1.0167 -0.35409,-0.95359 -0.34708,0.95359 z"
         style="-inkscape-font-specification:'Arial Bold';fill:#ffffff"
         id="path3376" />
      <path
         d="m 199.95641,104.80728 h -0.45751 v -0.27346 q -0.11394,0.15952 -0.26995,0.2384 -0.15426,0.0771 -0.31203,0.0771 -0.32078,0 -0.55042,-0.25768 -0.22788,-0.25943 -0.22788,-0.72221 0,-0.47329 0.22263,-0.7187 0.22262,-0.24716 0.56269,-0.24716 0.31202,0 0.5399,0.25943 v -0.92554 h 0.49257 z m -1.3147,-0.97112 q 0,0.298 0.0824,0.43122 0.1192,0.19282 0.33306,0.19282 0.17003,0 0.28923,-0.14374 0.1192,-0.14549 0.1192,-0.43297 0,-0.32079 -0.11569,-0.46102 -0.1157,-0.14199 -0.29625,-0.14199 -0.17529,0 -0.29449,0.14023 -0.11745,0.13849 -0.11745,0.41545 z"
         style="-inkscape-font-specification:'Arial Bold';fill:#ffffff"
         id="path3378" />
      <path
         d="m 202.14933,104.80728 h -0.45752 v -0.27346 q -0.11394,0.15952 -0.26995,0.2384 -0.15426,0.0771 -0.31202,0.0771 -0.32079,0 -0.55042,-0.25768 -0.22788,-0.25943 -0.22788,-0.72221 0,-0.47329 0.22262,-0.7187 0.22262,-0.24716 0.56269,-0.24716 0.31202,0 0.5399,0.25943 v -0.92554 h 0.49258 z m -1.3147,-0.97112 q 0,0.298 0.0824,0.43122 0.1192,0.19282 0.33305,0.19282 0.17004,0 0.28924,-0.14374 0.1192,-0.14549 0.1192,-0.43297 0,-0.32079 -0.1157,-0.46102 -0.11569,-0.14199 -0.29624,-0.14199 -0.1753,0 -0.2945,0.14023 -0.11744,0.13849 -0.11744,0.41545 z"
         style="-inkscape-font-specification:'Arial Bold';fill:#ffffff"
         id="path3380" />
    </g>
  </g>
</svg>
