<?xml version="1.0" encoding="UTF-8" standalone="no"?>
<!-- Created with Inkscape (http://www.inkscape.org/) -->

<svg
   width="36.266125pt"
   height="7.5300345pt"
   viewBox="0 0 12.793883 2.6564288"
   version="1.1"
   id="svg442"
   inkscape:version="1.2.2 (b0a8486541, 2022-12-01)"
   sodipodi:docname="add_button.svg"
   xmlns:inkscape="http://www.inkscape.org/namespaces/inkscape"
   xmlns:sodipodi="http://sodipodi.sourceforge.net/DTD/sodipodi-0.dtd"
   xmlns="http://www.w3.org/2000/svg"
   xmlns:svg="http://www.w3.org/2000/svg">
  <sodipodi:namedview
     id="namedview444"
     pagecolor="#ffffff"
     bordercolor="#000000"
     borderopacity="0.25"
     inkscape:showpageshadow="2"
     inkscape:pageopacity="0.0"
     inkscape:pagecheckerboard="0"
     inkscape:deskcolor="#d1d1d1"
     inkscape:document-units="mm"
     showgrid="false"
     inkscape:zoom="16.264428"
     inkscape:cx="13.342"
     inkscape:cy="-1.7522903"
     inkscape:window-width="1499"
     inkscape:window-height="1236"
     inkscape:window-x="2717"
     inkscape:window-y="119"
     inkscape:window-maximized="0"
     inkscape:current-layer="layer1" />
  <defs
     id="defs439" />
  <g
     inkscape:label="Layer 1"
     inkscape:groupmode="layer"
     id="layer1"
     transform="translate(-193.7238,-103.07003)">
    <path
       d="m 205.19477,103.08063 a 0.26458333,0.26458333 0 0 1 0.26458,0.26458 v 0.79375 h 0.79375 a 0.26458333,0.26458333 0 0 1 0.26273,0.23363 l 0.002,0.031 a 0.26458333,0.26458333 0 0 1 -0.26458,0.26458 h -0.79375 v 0.79375 a 0.26458333,0.26458333 0 0 1 -0.23363,0.26273 l -0.0309,0.002 a 0.26458333,0.26458333 0 0 1 -0.26459,-0.26458 v -0.79375 h -0.79375 a 0.26458333,0.26458333 0 0 1 -0.26273,-0.23363 l -0.002,-0.031 a 0.26458333,0.26458333 0 0 1 0.26458,-0.26459 h 0.79375 v -0.79375 a 0.26458333,0.26458333 0 0 1 0.23363,-0.26273 z"
       style="fill:#ffffff;stroke-width:0.264583"
       id="path302" />
    <g
       aria-label="Add"
       transform="scale(1.005106,0.99491994)"
       id="text241"
       style="font-weight:bold;font-size:3.43038px;font-family:Arial;-inkscape-font-specification:Arial;opacity:1;stroke-width:0.0764193;stroke-linecap:round;stroke-linejoin:round;paint-order:stroke fill markers;fill:#ffffff">
      <path
         d="m 195.3749,106.19271 -1.00853,-2.42871 h -0.56945 l -1.01882,2.42871 h 0.63805 l 0.17838,-0.47682 h 0.93993 l 0.18867,0.47682 z m -1.00167,-0.94678 h -0.61061 l 0.30873,-0.83359 z"
         style="font-family:'Avenir Next LT Pro';-inkscape-font-specification:'Avenir Next LT Pro Bold';fill:#ffffff"
         id="path2770" />
      <path
         d="m 197.35766,106.19271 v -2.59337 h -0.56258 v 1.06685 h -0.007 c -0.0961,-0.1132 -0.271,-0.22983 -0.52142,-0.22983 -0.49741,0 -0.80614,0.4185 -0.80614,0.89533 0,0.47682 0.29844,0.90905 0.813,0.90905 0.2264,0 0.44938,-0.0995 0.55915,-0.271 h 0.007 v 0.22297 z m -0.53857,-0.85759 c 0,0.22297 -0.1578,0.43908 -0.41165,0.43908 -0.26757,0 -0.40478,-0.21954 -0.40478,-0.44251 0,-0.21955 0.13721,-0.43566 0.40478,-0.43566 0.25385,0 0.41165,0.22297 0.41165,0.43909 z"
         style="font-family:'Avenir Next LT Pro';-inkscape-font-specification:'Avenir Next LT Pro Bold';fill:#ffffff"
         id="path2772" />
      <path
         d="m 199.61485,106.19271 v -2.59337 h -0.56258 v 1.06685 h -0.007 c -0.096,-0.1132 -0.271,-0.22983 -0.52142,-0.22983 -0.4974,0 -0.80614,0.4185 -0.80614,0.89533 0,0.47682 0.29844,0.90905 0.813,0.90905 0.22641,0 0.44938,-0.0995 0.55915,-0.271 h 0.007 v 0.22297 z m -0.53857,-0.85759 c 0,0.22297 -0.1578,0.43908 -0.41164,0.43908 -0.26757,0 -0.40479,-0.21954 -0.40479,-0.44251 0,-0.21955 0.13722,-0.43566 0.40479,-0.43566 0.25384,0 0.41164,0.22297 0.41164,0.43909 z"
         style="font-family:'Avenir Next LT Pro';-inkscape-font-specification:'Avenir Next LT Pro Bold';fill:#ffffff"
         id="path2774" />
    </g>
  </g>
</svg>
