<svg width="24" height="24" viewBox="0 0 24 24" fill="none" xmlns="http://www.w3.org/2000/svg">
<path fill-rule="evenodd" clip-rule="evenodd" d="M19 3C19 2.44772 18.5523 2 18 2C17.4477 2 17 2.44772 17 3V19C17 19.5523 17.4477 20 18 20C18.5523 20 19 19.5523 19 19V3ZM7 6C7 5.44772 6.55228 5 6 5C5.44772 5 5 5.44772 5 6V21C5 21.5523 5.44772 22 6 22C6.55228 22 7 21.5523 7 21V6Z" fill="#009541" fill-opacity="0.25"/>
<path fill-rule="evenodd" clip-rule="evenodd" d="M18 7C16.8954 7 16 7.89543 16 9V12C16 13.1046 16.8954 14 18 14C19.1046 14 20 13.1046 20 12V9C20 7.89543 19.1046 7 18 7ZM6 12C4.89543 12 4 12.8954 4 14V15C4 16.1046 4.89543 17 6 17C7.10457 17 8 16.1046 8 15V14C8 12.8954 7.10457 12 6 12Z" fill="#00863A"/>
</svg>
