<?xml version="1.0" encoding="UTF-8" standalone="no"?>
<!-- Created with Inkscape (http://www.inkscape.org/) -->

<svg
   width="14.713707mm"
   height="2.67837mm"
   viewBox="0 0 14.713707 2.67837"
   version="1.1"
   id="svg1459"
   inkscape:version="1.2.2 (b0a8486541, 2022-12-01)"
   sodipodi:docname="clone_button.svg"
   xmlns:inkscape="http://www.inkscape.org/namespaces/inkscape"
   xmlns:sodipodi="http://sodipodi.sourceforge.net/DTD/sodipodi-0.dtd"
   xmlns="http://www.w3.org/2000/svg"
   xmlns:svg="http://www.w3.org/2000/svg">
  <sodipodi:namedview
     id="namedview1461"
     pagecolor="#ffffff"
     bordercolor="#000000"
     borderopacity="0.25"
     inkscape:showpageshadow="2"
     inkscape:pageopacity="0.0"
     inkscape:pagecheckerboard="0"
     inkscape:deskcolor="#d1d1d1"
     inkscape:document-units="mm"
     showgrid="false"
     inkscape:zoom="13.369891"
     inkscape:cx="24.233556"
     inkscape:cy="0.2991797"
     inkscape:window-width="2490"
     inkscape:window-height="1371"
     inkscape:window-x="2630"
     inkscape:window-y="32"
     inkscape:window-maximized="1"
     inkscape:current-layer="layer1" />
  <defs
     id="defs1456" />
  <g
     inkscape:label="Layer 1"
     inkscape:groupmode="layer"
     id="layer1"
     transform="translate(-116.27995,-142.40542)">
    <g
       style="fill:none"
       id="g725"
       transform="matrix(0.26458333,0,0,0.26458333,125.07624,141.61167)">
      <path
         d="m 8,3 c 0.55228,0 1,0.44772 1,1 v 5.585 l 2.2929,-2.29211 c 0.3605,-0.36048 0.9277,-0.38821 1.32,-0.08319 l 0.0942,0.08319 c 0.3905,0.39053 0.3905,1.02369 0,1.41422 L 8.70711,12.7071 c -0.02847,0.0285 -0.05864,0.0552 -0.09036,0.0801 -0.00691,0.0055 -0.01415,0.011 -0.02144,0.0165 -0.02418,0.0178 -0.04903,0.0346 -0.07465,0.0502 -0.01205,0.0075 -0.02427,0.0146 -0.0366,0.0214 -0.01977,0.0109 -0.04017,0.0213 -0.06096,0.031 -0.017,0.008 -0.0343,0.0155 -0.05176,0.0225 -0.01976,0.0079 -0.03954,0.0151 -0.0596,0.0217 -0.01489,0.0048 -0.03028,0.0094 -0.04575,0.0137 -0.02155,0.006 -0.04324,0.0112 -0.0652,0.0156 C 8.18338,12.9833 8.16595,12.9864 8.14847,12.989 8.10036,12.9962 8.05062,13 8,13 l 0.08522,-0.0036 c -0.0173,0.0015 -0.03463,0.0025 -0.05197,0.0031 L 8,13 C 7.98887,13 7.97779,12.9998 7.96675,12.9995 7.94973,12.9989 7.93173,12.9978 7.91377,12.9963 7.89211,12.9945 7.87148,12.992 7.85104,12.989 7.83405,12.9864 7.81662,12.9833 7.79927,12.9798 7.77725,12.9754 7.75556,12.9702 7.73416,12.9643 7.71854,12.9599 7.70315,12.9553 7.68786,12.9503 7.6682,12.9439 7.64842,12.9367 7.62894,12.9289 7.6112,12.9218 7.5939,12.9143 7.57678,12.9063 7.55611,12.8966 7.53571,12.8862 7.51572,12.8751 7.50361,12.8685 7.49139,12.8614 7.47929,12.854 7.45373,12.8383 7.42887,12.8215 7.40484,12.8037 7.36567,12.7747 7.32829,12.7425 7.29289,12.7071 l 0.09036,0.0801 C 7.35153,12.7623 7.32136,12.7356 7.29289,12.7071 l -4,-3.99999 c -0.39052,-0.39053 -0.39052,-1.02369 0,-1.41422 0.39053,-0.39052 1.02369,-0.39052 1.41422,0 L 7,9.585 V 4 C 7,3.48716 7.38604,3.06449 7.88338,3.00673 Z"
         fill="#242424"
         id="path716" />
    </g>
    <g
       aria-label="Clone"
       id="text9272"
       style="font-weight:bold;font-size:3.56306px;font-family:Arial;-inkscape-font-specification:'Arial Bold';fill:#242424;stroke-width:0.529167;stroke-linecap:round;stroke-linejoin:round;paint-order:stroke fill markers">
      <g
         aria-label="Get"
         transform="matrix(1.005106,0,0,0.99491994,2.2643555,0)"
         id="text241"
         style="font-size:3.43038px;-inkscape-font-specification:Arial;opacity:1;stroke-width:0.0764193">
        <path
           d="m 118.06377,145.61635 v -1.28639 h -1.00167 v 0.47339 h 0.4631 v 0.44252 c -0.10291,0.0446 -0.22983,0.0652 -0.36705,0.0652 -0.47682,0 -0.74096,-0.31902 -0.74096,-0.76497 0,-0.43566 0.30188,-0.75811 0.71352,-0.75811 0.2367,0 0.43223,0.096 0.54543,0.2264 l 0.37048,-0.42194 c -0.20239,-0.19553 -0.55572,-0.32245 -0.93649,-0.32245 -0.74096,0 -1.31727,0.4974 -1.31727,1.2761 0,0.76497 0.55915,1.27953 1.33442,1.27953 0.37391,0 0.6998,-0.0858 0.93649,-0.20925 z"
           style="font-family:'Avenir Next LT Pro';-inkscape-font-specification:'Avenir Next LT Pro Bold'"
           id="path4369" />
        <path
           d="m 118.96596,144.71416 c 0.0137,-0.17495 0.17152,-0.32589 0.38763,-0.32589 0.22298,0 0.33618,0.14751 0.33618,0.32589 z m 1.2418,0.21611 c 0,-0.58316 -0.35333,-0.92963 -0.8576,-0.92963 -0.51798,0 -0.92277,0.35676 -0.92277,0.91591 0,0.5763 0.42537,0.90219 0.93993,0.90219 0.34646,0 0.61403,-0.13035 0.77526,-0.36362 l -0.39106,-0.24699 c -0.0755,0.10291 -0.19896,0.17838 -0.37734,0.17838 -0.2024,0 -0.39107,-0.13378 -0.40822,-0.32245 h 1.23837 c 0.003,-0.0412 0.003,-0.0892 0.003,-0.13379 z"
           style="font-family:'Avenir Next LT Pro';-inkscape-font-specification:'Avenir Next LT Pro Bold'"
           id="path4371" />
        <path
           d="m 121.56962,144.47746 v -0.42193 h -0.40135 v -0.44938 h -0.55229 v 0.44938 h -0.271 v 0.42193 h 0.27443 v 0.72038 c 0,0.36362 0.15093,0.60718 0.60717,0.60718 0.12007,0 0.25042,-0.024 0.32589,-0.0515 l -0.007,-0.41164 c -0.0412,0.0172 -0.10977,0.0274 -0.16466,0.0274 -0.16123,0 -0.21268,-0.0823 -0.21268,-0.24013 v -0.65177 z"
           style="font-family:'Avenir Next LT Pro';-inkscape-font-specification:'Avenir Next LT Pro Bold'"
           id="path4373" />
      </g>
    </g>
  </g>
</svg>
