<?xml version="1.0" encoding="UTF-8" standalone="no"?>
<!-- Created with Inkscape (http://www.inkscape.org/) -->

<svg
   width="14.713707mm"
   height="2.67837mm"
   viewBox="0 0 14.713707 2.67837"
   version="1.1"
   id="svg1459"
   inkscape:version="1.2.2 (b0a8486541, 2022-12-01)"
   sodipodi:docname="clone_button.svg"
   xmlns:inkscape="http://www.inkscape.org/namespaces/inkscape"
   xmlns:sodipodi="http://sodipodi.sourceforge.net/DTD/sodipodi-0.dtd"
   xmlns="http://www.w3.org/2000/svg"
   xmlns:svg="http://www.w3.org/2000/svg">
  <sodipodi:namedview
     id="namedview1461"
     pagecolor="#ffffff"
     bordercolor="#000000"
     borderopacity="0.25"
     inkscape:showpageshadow="2"
     inkscape:pageopacity="0.0"
     inkscape:pagecheckerboard="0"
     inkscape:deskcolor="#d1d1d1"
     inkscape:document-units="mm"
     showgrid="false"
     inkscape:zoom="37.862042"
     inkscape:cx="23.400745"
     inkscape:cy="2.4562859"
     inkscape:window-width="2560"
     inkscape:window-height="1403"
     inkscape:window-x="0"
     inkscape:window-y="0"
     inkscape:window-maximized="1"
     inkscape:current-layer="layer1"
     showguides="false" />
  <defs
     id="defs1456" />
  <g
     inkscape:label="Layer 1"
     inkscape:groupmode="layer"
     id="layer1"
     transform="translate(-116.27995,-142.40542)">
    <g
       aria-label="Get"
       transform="scale(0.99174875,1.0083199)"
       id="text352"
       style="font-weight:bold;font-size:3.59px;line-height:1.90004px;font-family:'Avenir Next LT Pro';-inkscape-font-specification:'Avenir Next LT Pro Bold';text-align:center;text-anchor:middle;opacity:1;fill:#242424;stroke-width:0.531401;stroke-linecap:round;stroke-linejoin:round;stroke-opacity:0.206937;paint-order:markers fill stroke;fill-opacity:1">
      <path
         d="m 120.96151,142.89851 v -0.43297 h 1.11837 v 1.02371 q -0.16302,0.15776 -0.47329,0.27871 -0.30852,0.1192 -0.6258,0.1192 -0.40317,0 -0.70292,-0.16828 -0.29975,-0.17003 -0.4505,-0.48381 -0.15076,-0.31553 -0.15076,-0.68539 0,-0.40142 0.16829,-0.71345 0.16828,-0.31202 0.49257,-0.47855 0.24716,-0.12796 0.61528,-0.12796 0.47855,0 0.74674,0.20159 0.26996,0.19983 0.34709,0.55392 l -0.51537,0.0964 q -0.0543,-0.18931 -0.20509,-0.29799 -0.149,-0.11044 -0.37337,-0.11044 -0.34007,0 -0.54166,0.21561 -0.19983,0.21561 -0.19983,0.63982 0,0.45752 0.20334,0.68715 0.20334,0.22788 0.53289,0.22788 0.16302,0 0.32604,-0.0631 0.16478,-0.0649 0.28222,-0.15601 v -0.32604 z"
         style="font-family:Arial;-inkscape-font-specification:'Arial Bold';fill:#242424;fill-opacity:1"
         id="path1962" />
      <path
         d="m 123.63298,143.25085 0.49082,0.0824 q -0.0947,0.26995 -0.29975,0.41193 -0.20334,0.14024 -0.51011,0.14024 -0.48556,0 -0.7187,-0.31728 -0.18406,-0.25418 -0.18406,-0.64157 0,-0.46278 0.24191,-0.72396 0.2419,-0.26294 0.61177,-0.26294 0.41545,0 0.6556,0.27521 0.24015,0.27345 0.22963,0.83965 h -1.23406 q 0.005,0.21912 0.1192,0.34182 0.11394,0.12095 0.28397,0.12095 0.1157,0 0.19458,-0.0631 0.0789,-0.0631 0.1192,-0.20334 z m 0.028,-0.49783 q -0.005,-0.21386 -0.11043,-0.3243 -0.10518,-0.11218 -0.25593,-0.11218 -0.16127,0 -0.26644,0.11744 -0.10518,0.11745 -0.10343,0.31904 z"
         style="font-family:Arial;-inkscape-font-specification:'Arial Bold';fill:#242424;fill-opacity:1"
         id="path1964" />
      <path
         d="m 125.40519,141.98173 v 0.39265 h -0.33656 v 0.75026 q 0,0.22788 0.009,0.26644 0.0105,0.0368 0.0438,0.0614 0.0351,0.0246 0.0841,0.0246 0.0684,0 0.19809,-0.0473 l 0.0421,0.38214 q -0.17179,0.0736 -0.38915,0.0736 -0.13323,0 -0.24016,-0.0438 -0.10692,-0.0456 -0.15776,-0.1157 -0.0491,-0.0719 -0.0684,-0.19282 -0.0158,-0.0859 -0.0158,-0.34708 v -0.81161 h -0.22613 v -0.39265 h 0.22613 v -0.36987 l 0.49433,-0.28748 v 0.65735 z"
         style="font-family:Arial;-inkscape-font-specification:'Arial Bold';fill:#242424;fill-opacity:1"
         id="path1966" />
    </g>
    <g
       style="fill:none"
       id="g725"
       transform="matrix(0.26458333,0,0,0.26458333,125.07624,141.61167)">
      <path
         d="m 8,3 c 0.55228,0 1,0.44772 1,1 v 5.585 l 2.2929,-2.29211 c 0.3605,-0.36048 0.9277,-0.38821 1.32,-0.08319 l 0.0942,0.08319 c 0.3905,0.39053 0.3905,1.02369 0,1.41422 L 8.70711,12.7071 c -0.02847,0.0285 -0.05864,0.0552 -0.09036,0.0801 -0.00691,0.0055 -0.01415,0.011 -0.02144,0.0165 -0.02418,0.0178 -0.04903,0.0346 -0.07465,0.0502 -0.01205,0.0075 -0.02427,0.0146 -0.0366,0.0214 -0.01977,0.0109 -0.04017,0.0213 -0.06096,0.031 -0.017,0.008 -0.0343,0.0155 -0.05176,0.0225 -0.01976,0.0079 -0.03954,0.0151 -0.0596,0.0217 -0.01489,0.0048 -0.03028,0.0094 -0.04575,0.0137 -0.02155,0.006 -0.04324,0.0112 -0.0652,0.0156 C 8.18338,12.9833 8.16595,12.9864 8.14847,12.989 8.10036,12.9962 8.05062,13 8,13 l 0.08522,-0.0036 c -0.0173,0.0015 -0.03463,0.0025 -0.05197,0.0031 L 8,13 C 7.98887,13 7.97779,12.9998 7.96675,12.9995 7.94973,12.9989 7.93173,12.9978 7.91377,12.9963 7.89211,12.9945 7.87148,12.992 7.85104,12.989 7.83405,12.9864 7.81662,12.9833 7.79927,12.9798 7.77725,12.9754 7.75556,12.9702 7.73416,12.9643 7.71854,12.9599 7.70315,12.9553 7.68786,12.9503 7.6682,12.9439 7.64842,12.9367 7.62894,12.9289 7.6112,12.9218 7.5939,12.9143 7.57678,12.9063 7.55611,12.8966 7.53571,12.8862 7.51572,12.8751 7.50361,12.8685 7.49139,12.8614 7.47929,12.854 7.45373,12.8383 7.42887,12.8215 7.40484,12.8037 7.36567,12.7747 7.32829,12.7425 7.29289,12.7071 l 0.09036,0.0801 C 7.35153,12.7623 7.32136,12.7356 7.29289,12.7071 l -4,-3.99999 c -0.39052,-0.39053 -0.39052,-1.02369 0,-1.41422 0.39053,-0.39052 1.02369,-0.39052 1.41422,0 L 7,9.585 V 4 C 7,3.48716 7.38604,3.06449 7.88338,3.00673 Z"
         fill="#242424"
         id="path716" />
    </g>
  </g>
</svg>
