<?xml version="1.0" encoding="UTF-8" standalone="no"?>
<!-- Created with Inkscape (http://www.inkscape.org/) -->

<svg
   width="14.968287mm"
   height="2.6458333mm"
   viewBox="0 0 14.968287 2.6458333"
   version="1.1"
   id="svg1459"
   inkscape:version="1.2.1 (9c6d41e410, 2022-07-14)"
   sodipodi:docname="clone_button.svg"
   xmlns:inkscape="http://www.inkscape.org/namespaces/inkscape"
   xmlns:sodipodi="http://sodipodi.sourceforge.net/DTD/sodipodi-0.dtd"
   xmlns="http://www.w3.org/2000/svg"
   xmlns:svg="http://www.w3.org/2000/svg">
  <sodipodi:namedview
     id="namedview1461"
     pagecolor="#ffffff"
     bordercolor="#000000"
     borderopacity="0.25"
     inkscape:showpageshadow="2"
     inkscape:pageopacity="0.0"
     inkscape:pagecheckerboard="0"
     inkscape:deskcolor="#d1d1d1"
     inkscape:document-units="mm"
     showgrid="false"
     inkscape:zoom="13.205791"
     inkscape:cx="42.216327"
     inkscape:cy="14.463351"
     inkscape:window-width="2560"
     inkscape:window-height="1269"
     inkscape:window-x="2560"
     inkscape:window-y="32"
     inkscape:window-maximized="1"
     inkscape:current-layer="layer1" />
  <defs
     id="defs1456" />
  <g
     inkscape:label="Layer 1"
     inkscape:groupmode="layer"
     id="layer1"
     transform="translate(-116.02537,-142.40542)">
    <g
       style="fill:none"
       id="g725"
       transform="matrix(0.26458333,0,0,0.26458333,127.55408,141.61167)">
      <path
         d="m 8,3 c 0.55228,0 1,0.44772 1,1 v 5.585 l 2.2929,-2.29211 c 0.3605,-0.36048 0.9277,-0.38821 1.32,-0.08319 l 0.0942,0.08319 c 0.3905,0.39053 0.3905,1.02369 0,1.41422 L 8.70711,12.7071 c -0.02847,0.0285 -0.05864,0.0552 -0.09036,0.0801 -0.00691,0.0055 -0.01415,0.011 -0.02144,0.0165 -0.02418,0.0178 -0.04903,0.0346 -0.07465,0.0502 -0.01205,0.0075 -0.02427,0.0146 -0.0366,0.0214 -0.01977,0.0109 -0.04017,0.0213 -0.06096,0.031 -0.017,0.008 -0.0343,0.0155 -0.05176,0.0225 -0.01976,0.0079 -0.03954,0.0151 -0.0596,0.0217 -0.01489,0.0048 -0.03028,0.0094 -0.04575,0.0137 -0.02155,0.006 -0.04324,0.0112 -0.0652,0.0156 C 8.18338,12.9833 8.16595,12.9864 8.14847,12.989 8.10036,12.9962 8.05062,13 8,13 l 0.08522,-0.0036 c -0.0173,0.0015 -0.03463,0.0025 -0.05197,0.0031 L 8,13 C 7.98887,13 7.97779,12.9998 7.96675,12.9995 7.94973,12.9989 7.93173,12.9978 7.91377,12.9963 7.89211,12.9945 7.87148,12.992 7.85104,12.989 7.83405,12.9864 7.81662,12.9833 7.79927,12.9798 7.77725,12.9754 7.75556,12.9702 7.73416,12.9643 7.71854,12.9599 7.70315,12.9553 7.68786,12.9503 7.6682,12.9439 7.64842,12.9367 7.62894,12.9289 7.6112,12.9218 7.5939,12.9143 7.57678,12.9063 7.55611,12.8966 7.53571,12.8862 7.51572,12.8751 7.50361,12.8685 7.49139,12.8614 7.47929,12.854 7.45373,12.8383 7.42887,12.8215 7.40484,12.8037 7.36567,12.7747 7.32829,12.7425 7.29289,12.7071 l 0.09036,0.0801 C 7.35153,12.7623 7.32136,12.7356 7.29289,12.7071 l -4,-3.99999 c -0.39052,-0.39053 -0.39052,-1.02369 0,-1.41422 0.39053,-0.39052 1.02369,-0.39052 1.41422,0 L 7,9.585 V 4 C 7,3.48716 7.38604,3.06449 7.88338,3.00673 Z"
         fill="#242424"
         id="path716" />
    </g>
    <g
       aria-label="Clone"
       id="text367"
       style="font-size:3.52778px;line-height:7.5px;fill:#242424;stroke-width:0.264583"
       transform="translate(-106.36961,11.340338)">
      <path
         d="m 224.1003,132.71315 0.49437,0.15675 q -0.11369,0.41341 -0.37896,0.61495 -0.26355,0.19982 -0.67007,0.19982 -0.50298,0 -0.82682,-0.34279 -0.32384,-0.34451 -0.32384,-0.94051 0,-0.63046 0.32556,-0.97841 0.32556,-0.34968 0.85611,-0.34968 0.46336,0 0.75275,0.27389 0.17225,0.16192 0.25838,0.46508 l -0.5047,0.12058 q -0.0448,-0.19637 -0.18776,-0.31006 -0.14125,-0.11368 -0.34451,-0.11368 -0.28078,0 -0.45648,0.20153 -0.17398,0.20154 -0.17398,0.65285 0,0.47887 0.17226,0.68213 0.17225,0.20326 0.44786,0.20326 0.20326,0 0.34968,-0.12919 0.14642,-0.12919 0.21015,-0.40652 z"
         style="font-weight:bold;font-family:Arial;-inkscape-font-specification:'Arial Bold'"
         id="path1417" />
      <path
         d="m 225.02875,133.6416 v -2.52526 h 0.48404 v 2.52526 z"
         style="font-weight:bold;font-family:Arial;-inkscape-font-specification:'Arial Bold'"
         id="path1419" />
      <path
         d="m 225.89692,132.70109 q 0,-0.24116 0.11885,-0.46681 0.11886,-0.22565 0.3359,-0.34451 0.21877,-0.11886 0.48748,-0.11886 0.41514,0 0.68041,0.27044 0.26527,0.26872 0.26527,0.68041 0,0.41513 -0.26871,0.68902 -0.267,0.27216 -0.67352,0.27216 -0.25149,0 -0.48059,-0.11369 -0.22738,-0.11368 -0.34624,-0.33245 -0.11885,-0.22048 -0.11885,-0.53571 z m 0.49609,0.0258 q 0,0.27216 0.12919,0.41685 0.1292,0.1447 0.31868,0.1447 0.18948,0 0.31694,-0.1447 0.1292,-0.14469 0.1292,-0.4203 0,-0.26871 -0.1292,-0.41341 -0.12746,-0.14469 -0.31694,-0.14469 -0.18948,0 -0.31868,0.14469 -0.12919,0.1447 -0.12919,0.41686 z"
         style="font-weight:bold;font-family:Arial;-inkscape-font-specification:'Arial Bold'"
         id="path1421" />
      <path
         d="m 229.82778,133.6416 h -0.48404 v -0.93362 q 0,-0.29628 -0.031,-0.38241 -0.031,-0.0879 -0.10163,-0.13608 -0.0689,-0.0482 -0.16708,-0.0482 -0.12575,0 -0.22566,0.0689 -0.0999,0.0689 -0.1378,0.18259 -0.0362,0.11369 -0.0362,0.42031 v 0.82854 h -0.48403 v -1.82935 h 0.44958 v 0.26872 q 0.23944,-0.31006 0.6029,-0.31006 0.16019,0 0.29283,0.0586 0.13264,0.0568 0.19981,0.14642 0.0689,0.0896 0.0947,0.20326 0.0276,0.11369 0.0276,0.32556 z"
         style="font-weight:bold;font-family:Arial;-inkscape-font-specification:'Arial Bold'"
         id="path1423" />
      <path
         d="m 231.37807,133.05938 0.48231,0.081 q -0.093,0.26527 -0.29455,0.4048 -0.19982,0.1378 -0.50126,0.1378 -0.47715,0 -0.70625,-0.31178 -0.18087,-0.24977 -0.18087,-0.63045 0,-0.45475 0.23771,-0.71141 0.23772,-0.25839 0.60117,-0.25839 0.40825,0 0.64424,0.27044 0.23599,0.26872 0.22565,0.8251 h -1.21267 q 0.005,0.21532 0.11713,0.3359 0.11197,0.11886 0.27905,0.11886 0.11369,0 0.19121,-0.062 0.0775,-0.062 0.11713,-0.19982 z m 0.0276,-0.4892 q -0.005,-0.21015 -0.10852,-0.31868 -0.10335,-0.11024 -0.25149,-0.11024 -0.15848,0 -0.26183,0.11541 -0.10335,0.11541 -0.10163,0.31351 z"
         style="font-weight:bold;font-family:Arial;-inkscape-font-specification:'Arial Bold'"
         id="path1425" />
    </g>
  </g>
</svg>
