<?xml version="1.0" encoding="UTF-8" standalone="no"?>
<!-- Created with Inkscape (http://www.inkscape.org/) -->

<svg
   width="14.713707mm"
   height="2.67837mm"
   viewBox="0 0 14.713707 2.67837"
   version="1.1"
   id="svg1459"
   inkscape:version="1.2.2 (b0a8486541, 2022-12-01)"
   sodipodi:docname="clone_button.svg"
   xmlns:inkscape="http://www.inkscape.org/namespaces/inkscape"
   xmlns:sodipodi="http://sodipodi.sourceforge.net/DTD/sodipodi-0.dtd"
   xmlns="http://www.w3.org/2000/svg"
   xmlns:svg="http://www.w3.org/2000/svg">
  <sodipodi:namedview
     id="namedview1461"
     pagecolor="#ffffff"
     bordercolor="#000000"
     borderopacity="0.25"
     inkscape:showpageshadow="2"
     inkscape:pageopacity="0.0"
     inkscape:pagecheckerboard="0"
     inkscape:deskcolor="#d1d1d1"
     inkscape:document-units="mm"
     showgrid="false"
     inkscape:zoom="13.369891"
     inkscape:cx="5.7218118"
     inkscape:cy="-2.9170021"
     inkscape:window-width="2560"
     inkscape:window-height="1277"
     inkscape:window-x="2560"
     inkscape:window-y="32"
     inkscape:window-maximized="1"
     inkscape:current-layer="text9272" />
  <defs
     id="defs1456" />
  <g
     inkscape:label="Layer 1"
     inkscape:groupmode="layer"
     id="layer1"
     transform="translate(-116.27995,-142.40542)">
    <g
       style="fill:none"
       id="g725"
       transform="matrix(0.26458333,0,0,0.26458333,127.55408,141.61167)">
      <path
         d="m 8,3 c 0.55228,0 1,0.44772 1,1 v 5.585 l 2.2929,-2.29211 c 0.3605,-0.36048 0.9277,-0.38821 1.32,-0.08319 l 0.0942,0.08319 c 0.3905,0.39053 0.3905,1.02369 0,1.41422 L 8.70711,12.7071 c -0.02847,0.0285 -0.05864,0.0552 -0.09036,0.0801 -0.00691,0.0055 -0.01415,0.011 -0.02144,0.0165 -0.02418,0.0178 -0.04903,0.0346 -0.07465,0.0502 -0.01205,0.0075 -0.02427,0.0146 -0.0366,0.0214 -0.01977,0.0109 -0.04017,0.0213 -0.06096,0.031 -0.017,0.008 -0.0343,0.0155 -0.05176,0.0225 -0.01976,0.0079 -0.03954,0.0151 -0.0596,0.0217 -0.01489,0.0048 -0.03028,0.0094 -0.04575,0.0137 -0.02155,0.006 -0.04324,0.0112 -0.0652,0.0156 C 8.18338,12.9833 8.16595,12.9864 8.14847,12.989 8.10036,12.9962 8.05062,13 8,13 l 0.08522,-0.0036 c -0.0173,0.0015 -0.03463,0.0025 -0.05197,0.0031 L 8,13 C 7.98887,13 7.97779,12.9998 7.96675,12.9995 7.94973,12.9989 7.93173,12.9978 7.91377,12.9963 7.89211,12.9945 7.87148,12.992 7.85104,12.989 7.83405,12.9864 7.81662,12.9833 7.79927,12.9798 7.77725,12.9754 7.75556,12.9702 7.73416,12.9643 7.71854,12.9599 7.70315,12.9553 7.68786,12.9503 7.6682,12.9439 7.64842,12.9367 7.62894,12.9289 7.6112,12.9218 7.5939,12.9143 7.57678,12.9063 7.55611,12.8966 7.53571,12.8862 7.51572,12.8751 7.50361,12.8685 7.49139,12.8614 7.47929,12.854 7.45373,12.8383 7.42887,12.8215 7.40484,12.8037 7.36567,12.7747 7.32829,12.7425 7.29289,12.7071 l 0.09036,0.0801 C 7.35153,12.7623 7.32136,12.7356 7.29289,12.7071 l -4,-3.99999 c -0.39052,-0.39053 -0.39052,-1.02369 0,-1.41422 0.39053,-0.39052 1.02369,-0.39052 1.41422,0 L 7,9.585 V 4 C 7,3.48716 7.38604,3.06449 7.88338,3.00673 Z"
         fill="#242424"
         id="path716" />
    </g>
    <g
       aria-label="Clone"
       id="text9272"
       style="font-weight:bold;font-size:3.56306px;font-family:Arial;-inkscape-font-specification:'Arial Bold';fill:#242424;stroke-width:0.529167;stroke-linecap:round;stroke-linejoin:round;paint-order:stroke fill markers">
      <path
         d="m 118.00233,144.10256 0.49931,0.15832 q -0.11482,0.41755 -0.38275,0.6211 -0.26618,0.20181 -0.67677,0.20181 -0.50802,0 -0.83509,-0.34621 -0.32708,-0.34796 -0.32708,-0.94992 0,-0.63676 0.32882,-0.98819 0.32881,-0.35318 0.86466,-0.35318 0.468,0 0.76029,0.27663 0.17397,0.16354 0.26096,0.46974 l -0.50975,0.12178 q -0.0452,-0.19833 -0.18964,-0.31316 -0.14266,-0.11482 -0.34795,-0.11482 -0.28359,0 -0.46104,0.20355 -0.17572,0.20355 -0.17572,0.65938 0,0.48365 0.17398,0.68895 0.17397,0.20529 0.45234,0.20529 0.20529,0 0.35317,-0.13048 0.14788,-0.13049 0.21226,-0.41059 z"
         id="path9307" />
      <path
         d="m 118.94006,145.0403 v -2.55051 h 0.48888 v 2.55051 z"
         id="path9309" />
      <path
         d="m 119.81691,144.09038 q 0,-0.24357 0.12005,-0.47148 0.12004,-0.22791 0.33925,-0.34795 0.22095,-0.12005 0.49236,-0.12005 0.41928,0 0.68721,0.27315 0.26793,0.2714 0.26793,0.68721 0,0.41928 -0.27141,0.69591 -0.26966,0.27488 -0.68025,0.27488 -0.25401,0 -0.4854,-0.11482 -0.22965,-0.11483 -0.34969,-0.33578 -0.12005,-0.22269 -0.12005,-0.54107 z m 0.50106,0.0261 q 0,0.27488 0.13048,0.42102 0.13048,0.14614 0.32186,0.14614 0.19137,0 0.32012,-0.14614 0.13048,-0.14614 0.13048,-0.4245 0,-0.27141 -0.13048,-0.41755 -0.12875,-0.14614 -0.32012,-0.14614 -0.19138,0 -0.32186,0.14614 -0.13048,0.14614 -0.13048,0.42103 z"
         id="path9311" />
      <path
         d="m 123.78708,145.0403 h -0.48888 v -0.94296 q 0,-0.29924 -0.0313,-0.38623 -0.0313,-0.0887 -0.10265,-0.13744 -0.0696,-0.0487 -0.16876,-0.0487 -0.127,0 -0.22791,0.0696 -0.10091,0.0696 -0.13918,0.18441 -0.0365,0.11483 -0.0365,0.42451 v 0.83683 h -0.48887 v -1.84764 h 0.45408 v 0.2714 q 0.24183,-0.31316 0.60892,-0.31316 0.1618,0 0.29576,0.0591 0.13396,0.0574 0.20182,0.14789 0.0696,0.0905 0.0957,0.20529 0.0278,0.11482 0.0278,0.32882 z"
         id="path9313" />
      <path
         d="m 125.35288,144.45225 0.48713,0.0818 q -0.0939,0.26793 -0.2975,0.40885 -0.20181,0.13918 -0.50627,0.13918 -0.48192,0 -0.71331,-0.3149 -0.18268,-0.25226 -0.18268,-0.63675 0,-0.4593 0.24009,-0.71853 0.24009,-0.26097 0.60718,-0.26097 0.41233,0 0.65068,0.27315 0.23835,0.2714 0.22791,0.83335 h -1.2248 q 0.005,0.21747 0.1183,0.33926 0.11309,0.12004 0.28185,0.12004 0.11482,0 0.19311,-0.0626 0.0783,-0.0626 0.11831,-0.20182 z m 0.0278,-0.49409 q -0.005,-0.21225 -0.1096,-0.32186 -0.10439,-0.11135 -0.25401,-0.11135 -0.16006,0 -0.26445,0.11657 -0.10438,0.11656 -0.10264,0.31664 z"
         id="path9315" />
    </g>
  </g>
</svg>
