<?xml version="1.0" encoding="UTF-8" standalone="no"?>
<!-- Created with Inkscape (http://www.inkscape.org/) -->

<svg
   width="11.272027mm"
   height="2.6458333mm"
   viewBox="0 0 11.272027 2.6458333"
   version="1.1"
   id="svg1459"
   inkscape:version="1.2.1 (9c6d41e410, 2022-07-14)"
   sodipodi:docname="clone_button.svg"
   xmlns:inkscape="http://www.inkscape.org/namespaces/inkscape"
   xmlns:sodipodi="http://sodipodi.sourceforge.net/DTD/sodipodi-0.dtd"
   xmlns="http://www.w3.org/2000/svg"
   xmlns:svg="http://www.w3.org/2000/svg">
  <sodipodi:namedview
     id="namedview1461"
     pagecolor="#ffffff"
     bordercolor="#000000"
     borderopacity="0.25"
     inkscape:showpageshadow="2"
     inkscape:pageopacity="0.0"
     inkscape:pagecheckerboard="0"
     inkscape:deskcolor="#d1d1d1"
     inkscape:document-units="mm"
     showgrid="false"
     inkscape:zoom="13.369891"
     inkscape:cx="-7.4046975"
     inkscape:cy="-2.9170021"
     inkscape:window-width="2560"
     inkscape:window-height="1277"
     inkscape:window-x="2560"
     inkscape:window-y="32"
     inkscape:window-maximized="1"
     inkscape:current-layer="layer1" />
  <defs
     id="defs1456" />
  <g
     inkscape:label="Layer 1"
     inkscape:groupmode="layer"
     id="layer1"
     transform="translate(-119.72163,-142.40542)">
    <g
       aria-label="Get"
       id="text241"
       style="font-size:3.54702px;line-height:1.88523px;font-family:Arial;-inkscape-font-specification:Arial;text-align:center;text-anchor:middle;fill:#242424;stroke:#ffffff;stroke-width:0.529165;stroke-linecap:round;stroke-linejoin:round;stroke-opacity:0.206937">
      <path
         d="m 120.99115,144.06053 v -0.42779 h 1.10498 v 1.01146 q -0.16107,0.15587 -0.46763,0.27538 -0.30482,0.11777 -0.6183,0.11777 -0.39835,0 -0.69451,-0.16627 -0.29616,-0.168 -0.44511,-0.47802 -0.14895,-0.31175 -0.14895,-0.67719 0,-0.39661 0.16627,-0.7049 0.16627,-0.30828 0.48668,-0.47282 0.2442,-0.12643 0.60791,-0.12643 0.47282,0 0.73781,0.19918 0.26672,0.19744 0.34292,0.54729 l -0.50919,0.0953 q -0.0537,-0.18705 -0.20264,-0.29443 -0.14721,-0.10912 -0.3689,-0.10912 -0.336,0 -0.53517,0.21303 -0.19744,0.21303 -0.19744,0.63216 0,0.45204 0.2009,0.67892 0.20091,0.22516 0.52651,0.22516 0.16107,0 0.32214,-0.0623 0.16281,-0.0641 0.27885,-0.15415 v -0.32214 z"
         style="font-weight:bold;-inkscape-font-specification:'Arial Bold';stroke:none"
         id="path660" />
      <path
         d="m 123.63063,144.40865 0.48494,0.0814 q -0.0935,0.26672 -0.29616,0.40701 -0.2009,0.13856 -0.50399,0.13856 -0.47975,0 -0.7101,-0.31349 -0.18185,-0.25113 -0.18185,-0.63389 0,-0.45723 0.239,-0.71529 0.23901,-0.25979 0.60445,-0.25979 0.41047,0 0.64775,0.27191 0.23728,0.27019 0.22688,0.8296 h -1.21928 q 0.005,0.2165 0.11777,0.33773 0.11257,0.11951 0.28057,0.11951 0.11431,0 0.19225,-0.0624 0.0779,-0.0623 0.11777,-0.20091 z m 0.0277,-0.49187 q -0.005,-0.2113 -0.10911,-0.32041 -0.10392,-0.11084 -0.25286,-0.11084 -0.15934,0 -0.26326,0.11604 -0.10392,0.11604 -0.10218,0.31521 z"
         style="font-weight:bold;-inkscape-font-specification:'Arial Bold';stroke:none"
         id="path662" />
      <path
         d="m 125.38163,143.15473 v 0.38795 h -0.33254 v 0.74127 q 0,0.22515 0.009,0.26326 0.0104,0.0364 0.0433,0.0606 0.0346,0.0242 0.0831,0.0242 0.0675,0 0.19571,-0.0468 l 0.0416,0.37756 q -0.16973,0.0727 -0.38449,0.0727 -0.13163,0 -0.23728,-0.0433 -0.10565,-0.045 -0.15587,-0.11431 -0.0485,-0.071 -0.0676,-0.19051 -0.0156,-0.0849 -0.0156,-0.34293 v -0.80189 h -0.22342 v -0.38795 h 0.22342 v -0.36544 l 0.48841,-0.28404 v 0.64948 z"
         style="font-weight:bold;-inkscape-font-specification:'Arial Bold';stroke:none"
         id="path664" />
    </g>
    <g
       style="fill:none"
       id="g725"
       transform="matrix(0.26458333,0,0,0.26458333,127.55408,141.61167)">
      <path
         d="m 8,3 c 0.55228,0 1,0.44772 1,1 v 5.585 l 2.2929,-2.29211 c 0.3605,-0.36048 0.9277,-0.38821 1.32,-0.08319 l 0.0942,0.08319 c 0.3905,0.39053 0.3905,1.02369 0,1.41422 L 8.70711,12.7071 c -0.02847,0.0285 -0.05864,0.0552 -0.09036,0.0801 -0.00691,0.0055 -0.01415,0.011 -0.02144,0.0165 -0.02418,0.0178 -0.04903,0.0346 -0.07465,0.0502 -0.01205,0.0075 -0.02427,0.0146 -0.0366,0.0214 -0.01977,0.0109 -0.04017,0.0213 -0.06096,0.031 -0.017,0.008 -0.0343,0.0155 -0.05176,0.0225 -0.01976,0.0079 -0.03954,0.0151 -0.0596,0.0217 -0.01489,0.0048 -0.03028,0.0094 -0.04575,0.0137 -0.02155,0.006 -0.04324,0.0112 -0.0652,0.0156 C 8.18338,12.9833 8.16595,12.9864 8.14847,12.989 8.10036,12.9962 8.05062,13 8,13 l 0.08522,-0.0036 c -0.0173,0.0015 -0.03463,0.0025 -0.05197,0.0031 L 8,13 C 7.98887,13 7.97779,12.9998 7.96675,12.9995 7.94973,12.9989 7.93173,12.9978 7.91377,12.9963 7.89211,12.9945 7.87148,12.992 7.85104,12.989 7.83405,12.9864 7.81662,12.9833 7.79927,12.9798 7.77725,12.9754 7.75556,12.9702 7.73416,12.9643 7.71854,12.9599 7.70315,12.9553 7.68786,12.9503 7.6682,12.9439 7.64842,12.9367 7.62894,12.9289 7.6112,12.9218 7.5939,12.9143 7.57678,12.9063 7.55611,12.8966 7.53571,12.8862 7.51572,12.8751 7.50361,12.8685 7.49139,12.8614 7.47929,12.854 7.45373,12.8383 7.42887,12.8215 7.40484,12.8037 7.36567,12.7747 7.32829,12.7425 7.29289,12.7071 l 0.09036,0.0801 C 7.35153,12.7623 7.32136,12.7356 7.29289,12.7071 l -4,-3.99999 c -0.39052,-0.39053 -0.39052,-1.02369 0,-1.41422 0.39053,-0.39052 1.02369,-0.39052 1.41422,0 L 7,9.585 V 4 C 7,3.48716 7.38604,3.06449 7.88338,3.00673 Z"
         fill="#242424"
         id="path716" />
    </g>
  </g>
</svg>
