<svg width="16" height="16" viewBox="0 0 16 16" fill="none" xmlns="http://www.w3.org/2000/svg">
<path d="M9.48532 8.07061L11.6066 5.94929C11.9972 5.55877 11.9972 4.92561 11.6066 4.53508C11.2161 4.14456 10.5829 4.14456 10.1924 4.53508L8.0711 6.6564L5.94978 4.53508C5.55926 4.14456 4.92609 4.14456 4.53557 4.53508C4.14504 4.92561 4.14504 5.55877 4.53557 5.94929L6.65689 8.07061L4.53557 10.1919C4.14504 10.5825 4.14504 11.2156 4.53557 11.6061C4.92609 11.9967 5.55926 11.9967 5.94978 11.6061L8.0711 9.48483L10.1924 11.6061C10.5829 11.9967 11.2161 11.9967 11.6066 11.6061C11.9972 11.2156 11.9972 10.5825 11.6066 10.1919L9.48532 8.07061Z" fill="white"/>
</svg>
