<svg width="20" height="20" viewBox="0 0 20 20" fill="none" xmlns="http://www.w3.org/2000/svg">
<g clip-path="url(#clip0_397_94615)">
<rect opacity="0.85" width="5" height="5" fill="white"/>
<rect opacity="0.85" y="10.001" width="5" height="5" fill="white"/>
<rect opacity="0.85" x="5" y="5" width="5" height="5" fill="white"/>
<rect opacity="0.85" x="5" y="15" width="5" height="5" fill="white"/>
<rect opacity="0.85" x="10" width="5" height="5" fill="white"/>
<rect opacity="0.85" x="10" y="10.001" width="5" height="5" fill="white"/>
<rect opacity="0.5" y="5" width="5" height="5" fill="white"/>
<rect opacity="0.5" y="15" width="5" height="5" fill="white"/>
<rect opacity="0.5" x="5" width="5" height="5" fill="white"/>
<rect opacity="0.5" x="5" y="10.001" width="5" height="5" fill="white"/>
<rect opacity="0.5" x="10" y="5" width="5" height="5" fill="white"/>
<rect opacity="0.5" x="10" y="15" width="5" height="5" fill="white"/>
<rect opacity="0.5" x="15" width="5" height="5" fill="white"/>
<rect opacity="0.5" x="15" y="10.001" width="5" height="5" fill="white"/>
<rect opacity="0.85" x="15" y="5" width="5" height="5" fill="white"/>
<rect opacity="0.85" x="15" y="15" width="5" height="5" fill="white"/>
</g>
<defs>
<clipPath id="clip0_397_94615">
<rect width="20" height="20" fill="white"/>
</clipPath>
</defs>
</svg>
