<svg width="24" height="24" viewBox="0 0 24 24" fill="none" xmlns="http://www.w3.org/2000/svg">
<g clip-path="url(#clip0_397_94651)">
<rect opacity="0.85" width="6" height="6" fill="#3B3B3B"/>
<rect opacity="0.85" y="12.001" width="6" height="6" fill="#3B3B3B"/>
<rect opacity="0.85" x="6" y="6" width="6" height="6" fill="#3B3B3B"/>
<rect opacity="0.85" x="6" y="18" width="6" height="6" fill="#3B3B3B"/>
<rect opacity="0.85" x="12" width="6" height="6" fill="#3B3B3B"/>
<rect opacity="0.85" x="12" y="12.001" width="6" height="6" fill="#3B3B3B"/>
<rect opacity="0.5" y="6" width="6" height="6" fill="#3B3B3B"/>
<rect opacity="0.5" y="18" width="6" height="6" fill="#3B3B3B"/>
<rect opacity="0.5" x="6" width="6" height="6" fill="#3B3B3B"/>
<rect opacity="0.5" x="6" y="12.001" width="6" height="6" fill="#3B3B3B"/>
<rect opacity="0.5" x="12" y="6" width="6" height="6" fill="#3B3B3B"/>
<rect opacity="0.5" x="12" y="18" width="6" height="6" fill="#3B3B3B"/>
<rect opacity="0.5" x="18" width="6" height="6" fill="#3B3B3B"/>
<rect opacity="0.5" x="18" y="12.001" width="6" height="6" fill="#3B3B3B"/>
<rect opacity="0.85" x="18" y="6" width="6" height="6" fill="#3B3B3B"/>
<rect opacity="0.85" x="18" y="18" width="6" height="6" fill="#3B3B3B"/>
</g>
<defs>
<clipPath id="clip0_397_94651">
<rect width="24" height="24" fill="white"/>
</clipPath>
</defs>
</svg>
