<svg width="16" height="16" viewBox="0 0 16 16" fill="none" xmlns="http://www.w3.org/2000/svg">
<path d="M8.47726 2.27441C5.64757 2.27441 3.28721 4.34329 2.83074 7.04611H1.79688L3.38744 8.9548L4.97801 7.04611H4.12805C4.56324 5.04127 6.33837 3.54687 8.47726 3.54687C10.9444 3.54687 12.9309 5.53329 12.9309 8.00046C12.9309 10.4676 10.9444 12.4541 8.47726 12.4541C6.8542 12.4541 5.43816 11.5975 4.6599 10.3068L3.61609 11.0225C4.62864 12.645 6.42993 13.7265 8.47726 13.7265C11.6321 13.7265 14.2033 11.1553 14.2033 8.00046C14.2033 4.84559 11.6321 2.27441 8.47726 2.27441ZM7.84103 5.45554V8.00046V8.30367L8.07962 8.49751L9.67019 9.76997L10.1672 10.1676L10.9625 9.1735L10.4655 8.77586L9.11349 7.69229V5.45554H7.84103Z" fill="#242424"/>
</svg>
