<?xml version="1.0" encoding="UTF-8" standalone="no"?>
<svg
   width="12.40642"
   height="11.45209"
   viewBox="0 0 12.40642 11.45209"
   fill="none"
   version="1.1"
   id="svg1712"
   sodipodi:docname="history_gray.svg"
   inkscape:version="1.2.1 (9c6d41e410, 2022-07-14)"
   xmlns:inkscape="http://www.inkscape.org/namespaces/inkscape"
   xmlns:sodipodi="http://sodipodi.sourceforge.net/DTD/sodipodi-0.dtd"
   xmlns="http://www.w3.org/2000/svg"
   xmlns:svg="http://www.w3.org/2000/svg">
  <defs
     id="defs1716" />
  <sodipodi:namedview
     id="namedview1714"
     pagecolor="#ffffff"
     bordercolor="#000000"
     borderopacity="0.25"
     inkscape:showpageshadow="2"
     inkscape:pageopacity="0.0"
     inkscape:pagecheckerboard="0"
     inkscape:deskcolor="#d1d1d1"
     showgrid="false"
     inkscape:zoom="64.1875"
     inkscape:cx="6.2239533"
     inkscape:cy="5.7176241"
     inkscape:window-width="2560"
     inkscape:window-height="1269"
     inkscape:window-x="2560"
     inkscape:window-y="32"
     inkscape:window-maximized="1"
     inkscape:current-layer="svg1712" />
  <path
     d="M 6.68038,0 C 3.85069,0 1.49033,2.06888 1.03386,4.7717 H 0 L 1.59056,6.68039 3.18113,4.7717 H 2.33117 C 2.76636,2.76686 4.54149,1.27246 6.68038,1.27246 c 2.46714,0 4.45364,1.98642 4.45364,4.45359 0,2.46714 -1.9865,4.45364 -4.45364,4.45364 -1.62306,0 -3.0391,-0.8566 -3.81736,-2.1473 l -1.04381,0.7157 c 1.01255,1.6225 2.81384,2.704 4.86117,2.704 3.15484,0 5.72604,-2.5712 5.72604,-5.72604 C 12.40642,2.57118 9.83522,0 6.68038,0 Z M 6.04415,3.18113 V 5.72605 6.02926 L 6.28274,6.2231 7.87331,7.49556 8.37032,7.89319 9.16562,6.89909 8.66862,6.50145 7.31661,5.41788 V 3.18113 Z"
     id="path1710"
     style="fill:#868889;fill-opacity:1" />
</svg>
