<svg width="180" height="53" viewBox="0 0 180 53" fill="none" xmlns="http://www.w3.org/2000/svg">
<path d="M68.5499 18.8489C66.5026 18.8489 64.7649 19.548 63.3406 20.9445C61.9145 22.3409 61.2024 24.0359 61.2024 26.0277C61.2024 28.1418 61.9015 29.898 63.298 31.2945C64.6944 32.7094 66.4265 33.4179 68.4943 33.4179C70.5806 33.4179 72.3405 32.7243 73.7759 31.3371C75.2002 29.9407 75.9142 28.2086 75.9142 26.1408C75.9142 24.0934 75.2058 22.365 73.7908 20.9593C72.3535 19.5517 70.6066 18.8489 68.5499 18.8489ZM71.5375 29.3676C70.792 30.1706 69.7962 30.5712 68.5499 30.5712C67.313 30.5712 66.3171 30.1651 65.5623 29.3528C64.8261 28.5498 64.4589 27.4612 64.4589 26.0814C64.4589 24.7981 64.8372 23.7503 65.592 22.9381C66.3468 22.1258 67.3334 21.7196 68.5518 21.7196C69.7887 21.7196 70.7846 22.1258 71.5394 22.9381C72.2849 23.7411 72.6577 24.8111 72.6577 26.1519C72.6558 27.4946 72.2831 28.5665 71.5375 29.3676Z" fill="white"/>
<path d="M84.1222 18.8489C82.0748 18.8489 80.3372 19.548 78.9129 20.9445C77.4868 22.3409 76.7747 24.0359 76.7747 26.0277C76.7747 28.1418 77.4738 29.898 78.8703 31.2945C80.2667 32.7094 81.9988 33.4179 84.0666 33.4179C86.1529 33.4179 87.9128 32.7243 89.3482 31.3371C90.7725 29.9407 91.4864 28.2086 91.4864 26.1408C91.4864 24.0934 90.778 22.365 89.363 20.9593C87.9258 19.5517 86.1807 18.8489 84.1222 18.8489ZM87.1098 29.3676C86.3643 30.1706 85.3684 30.5712 84.1222 30.5712C82.8852 30.5712 81.8894 30.1651 81.1346 29.3528C80.3984 28.5498 80.0312 27.4612 80.0312 26.0814C80.0312 24.7981 80.4095 23.7503 81.1643 22.9381C81.9191 22.1258 82.9056 21.7196 84.1222 21.7196C85.3592 21.7196 86.355 22.1258 87.1098 22.9381C87.8553 23.7411 88.2281 24.8111 88.2281 26.1519C88.2281 27.4946 87.8553 28.5665 87.1098 29.3676Z" fill="white"/>
<path d="M98.8913 18.8489C98.2589 18.8489 97.7118 18.9676 97.2482 19.2031C96.7957 19.4293 96.2765 19.8503 95.6904 20.4623V19.2309H92.5044V33.021H95.6904V25.8719C95.6904 23.2478 96.5583 21.9366 98.296 21.9366C98.8709 21.9366 99.4625 22.1536 100.065 22.5876L101.523 19.6704C100.609 19.1215 99.7314 18.8489 98.8913 18.8489Z" fill="white"/>
<path d="M111.487 20.8313C110.213 19.5109 108.768 18.8488 107.155 18.8488C105.295 18.8488 103.752 19.5424 102.526 20.9296C101.289 22.3075 100.672 24.0247 100.672 26.0832C100.672 28.1881 101.289 29.9443 102.526 31.35C103.772 32.7279 105.339 33.4178 107.227 33.4178C108.813 33.4178 110.233 32.804 111.489 31.5781V33.0228H114.688V9.10712H111.489V20.8313H111.487ZM110.593 29.3527C109.866 30.165 108.913 30.5711 107.734 30.5711C106.628 30.5711 105.714 30.152 104.987 29.3119C104.279 28.4811 103.924 27.4055 103.924 26.0832C103.924 24.8463 104.288 23.8078 105.015 22.9677C105.751 22.1369 106.667 21.7215 107.761 21.7215C108.922 21.7215 109.866 22.1313 110.593 22.9528C111.32 23.7929 111.684 24.8593 111.684 26.1519C111.684 27.4463 111.32 28.5126 110.593 29.3527Z" fill="white"/>
<path d="M117.74 11.4438C117.175 11.4438 116.687 11.646 116.283 12.0521C115.877 12.4583 115.675 12.9386 115.675 13.4968C115.675 14.0828 115.877 14.578 116.283 14.9841C116.689 15.3902 117.179 15.5924 117.755 15.5924C118.33 15.5924 118.818 15.3902 119.213 14.9841C119.619 14.578 119.821 14.0884 119.821 13.5116C119.821 12.9367 119.617 12.449 119.213 12.054C118.807 11.646 118.317 11.4438 117.74 11.4438Z" fill="white"/>
<path d="M119.341 19.2309H116.155V33.021H119.341V19.2309Z" fill="white"/>
<path d="M127.79 18.8489C126.394 18.8489 125.138 19.4015 124.024 20.5049V19.2309H120.825V33.021H124.024V26.3745C124.024 24.659 124.241 23.4573 124.675 22.7693C125.118 22.072 125.869 21.7234 126.926 21.7234C127.898 21.7234 128.569 21.9867 128.936 22.5152C129.315 23.0345 129.502 23.971 129.502 25.3285V33.021H132.701V24.5682C132.701 22.6246 132.313 21.2226 131.54 20.364C130.644 19.3533 129.394 18.8489 127.79 18.8489Z" fill="white"/>
<path d="M144.657 20.8313C143.383 19.5109 141.944 18.8489 140.338 18.8489C138.478 18.8489 136.931 19.5388 135.694 20.9166C134.457 22.2945 133.84 24.0174 133.84 26.0852C133.84 28.19 134.457 29.9462 135.694 31.3519C136.94 32.7298 138.517 33.4197 140.423 33.4197C141.933 33.4197 143.344 32.8059 144.657 31.58V33.0247H147.856V19.2346H144.657V20.8313V20.8313ZM143.765 29.3528C143.038 30.1651 142.085 30.5712 140.905 30.5712C139.8 30.5712 138.886 30.1521 138.159 29.312C137.45 28.4812 137.096 27.4056 137.096 26.0833C137.096 24.8463 137.46 23.8078 138.187 22.9677C138.923 22.1369 139.839 21.7215 140.933 21.7215C142.094 21.7215 143.038 22.1313 143.765 22.9529C144.492 23.793 144.855 24.8593 144.855 26.1519C144.855 27.4464 144.492 28.5127 143.765 29.3528Z" fill="white"/>
<path d="M153.538 14.1755H150.352V19.2309H148.993V22.2036H150.352V33.0209H153.538V22.2036H156.016V19.2309H153.538V14.1755Z" fill="white"/>
<path d="M165.131 30.0056C164.611 30.3839 163.955 30.5712 163.163 30.5712C162.143 30.5712 161.309 30.2411 160.658 29.5809C160.007 28.9114 159.638 28.0101 159.552 26.877H169.435L169.45 26.126C169.45 23.8505 168.864 22.072 167.694 20.7887C166.514 19.4961 164.91 18.8489 162.879 18.8489C160.869 18.8489 159.256 19.5146 158.037 20.8443C156.83 22.1944 156.225 23.9599 156.225 26.1389C156.225 28.3384 156.848 30.1039 158.095 31.4335C159.341 32.7558 160.991 33.416 163.05 33.416C163.768 33.416 164.433 33.34 165.045 33.1898C165.659 33.0395 166.23 32.8003 166.759 32.4739C167.287 32.1475 167.783 31.7321 168.246 31.2277C168.708 30.7233 169.148 30.1168 169.563 29.4084L166.872 27.9081C166.221 28.9281 165.641 29.6273 165.131 30.0056ZM160.218 23.2088C160.417 22.8973 160.654 22.6302 160.934 22.4095C161.212 22.187 161.522 22.0182 161.861 21.8995C162.201 21.7808 162.564 21.7234 162.952 21.7234C164.65 21.7234 165.722 22.5727 166.165 24.2714H159.766C159.869 23.8746 160.02 23.5204 160.218 23.2088Z" fill="white"/>
<path d="M179.119 26.3318C178.533 25.7198 177.396 25.0503 175.707 24.3234C174.479 23.8041 173.867 23.2811 173.867 22.7545C173.867 22.4522 173.971 22.2055 174.179 22.0127C174.386 21.8198 174.637 21.7234 174.93 21.7234C175.544 21.7234 176.057 22.1443 176.473 22.9826L179.106 21.5806C178.248 19.7594 176.935 18.8489 175.171 18.8489C173.973 18.8489 172.953 19.2402 172.113 20.0246C171.291 20.8091 170.881 21.7994 170.881 22.9974C170.881 23.9043 171.123 24.6442 171.603 25.221C171.981 25.6735 172.632 26.1278 173.557 26.5803C173.888 26.7416 174.214 26.8974 174.535 27.0476C174.856 27.1979 175.176 27.3536 175.497 27.515C176.328 28.0064 176.744 28.535 176.744 29.1006C176.744 30.0816 176.206 30.5731 175.13 30.5731C174.592 30.5731 174.129 30.3932 173.743 30.0352C173.545 29.8554 173.257 29.4362 172.879 28.776L170.16 30.0352C171.123 32.2922 172.76 33.4197 175.073 33.4197C176.423 33.4197 177.574 32.995 178.528 32.1475C179.509 31.2518 180 30.1391 180 28.8094C179.996 27.7709 179.703 26.9456 179.119 26.3318Z" fill="white"/>
<path d="M62.7601 19.2438L58.3018 19.242L53.0202 24.5255V9.10712H49.8713V24.5292L44.5896 19.2457L40.1333 19.2494L46.9838 26.0999L40.0776 33.0098L44.5377 33.008L49.8713 27.6744V33.0247H53.0202V27.6689L58.3556 33.0024L62.8139 33.0043L55.9095 26.0944L62.7601 19.2438Z" fill="white"/>
<path d="M32.6376 7.29159L25.7333 0.387268L16.6499 9.46321L18.879 11.6979L18.8809 11.696L25.7296 4.84735L32.6394 11.7554L34.8686 9.52626L32.6376 7.2953V7.29159Z" fill="white"/>
<path d="M9.139 16.9591L0 26.0963L9.07594 35.1796L11.3106 32.9505L4.46008 26.0981L11.3681 19.1882L9.139 16.9591Z" fill="white"/>
<path d="M25.7425 47.3545L18.8326 40.4446L16.6035 42.6737L25.7388 51.8127L34.8222 42.7367L32.5949 40.5021L25.7425 47.3545Z" fill="white"/>
</svg>
