<svg width="50" height="16" viewBox="0 0 50 16" fill="none" xmlns="http://www.w3.org/2000/svg">
<path d="M4.90869 11V4.55762H6.19189L7.7168 9.11914C7.85742 9.54395 7.95996 9.86182 8.02441 10.0728C8.09766 9.83838 8.21191 9.49414 8.36719 9.04004L9.90967 4.55762H11.0566V11H10.2349V5.60791L8.36279 11H7.59375L5.73047 5.51562V11H4.90869ZM13.5771 11V4.55762H14.4297V11H13.5771ZM16.9502 11V4.55762H19.8066C20.3809 4.55762 20.8174 4.61621 21.1162 4.7334C21.415 4.84766 21.6538 5.05127 21.8325 5.34424C22.0112 5.63721 22.1006 5.96094 22.1006 6.31543C22.1006 6.77246 21.9526 7.15771 21.6567 7.47119C21.3608 7.78467 20.9038 7.98389 20.2856 8.06885C20.5112 8.17725 20.6826 8.28418 20.7998 8.38965C21.0488 8.61816 21.2847 8.90381 21.5073 9.24658L22.6279 11H21.5557L20.7031 9.65967C20.4541 9.27295 20.249 8.97705 20.0879 8.77197C19.9268 8.56689 19.7817 8.42334 19.6528 8.34131C19.5269 8.25928 19.3979 8.20215 19.2661 8.16992C19.1694 8.14941 19.0112 8.13916 18.7915 8.13916H17.8027V11H16.9502ZM17.8027 7.40088H19.6353C20.0249 7.40088 20.3296 7.36133 20.5493 7.28223C20.769 7.2002 20.936 7.07129 21.0503 6.89551C21.1646 6.7168 21.2217 6.52344 21.2217 6.31543C21.2217 6.01074 21.1104 5.76025 20.8877 5.56396C20.668 5.36768 20.3193 5.26953 19.8418 5.26953H17.8027V7.40088ZM24.4541 11V4.55762H27.3105C27.8848 4.55762 28.3213 4.61621 28.6201 4.7334C28.9189 4.84766 29.1577 5.05127 29.3364 5.34424C29.5151 5.63721 29.6045 5.96094 29.6045 6.31543C29.6045 6.77246 29.4565 7.15771 29.1606 7.47119C28.8647 7.78467 28.4077 7.98389 27.7896 8.06885C28.0151 8.17725 28.1865 8.28418 28.3037 8.38965C28.5527 8.61816 28.7886 8.90381 29.0112 9.24658L30.1318 11H29.0596L28.207 9.65967C27.958 9.27295 27.7529 8.97705 27.5918 8.77197C27.4307 8.56689 27.2856 8.42334 27.1567 8.34131C27.0308 8.25928 26.9019 8.20215 26.77 8.16992C26.6733 8.14941 26.5151 8.13916 26.2954 8.13916H25.3066V11H24.4541ZM25.3066 7.40088H27.1392C27.5288 7.40088 27.8335 7.36133 28.0532 7.28223C28.2729 7.2002 28.4399 7.07129 28.5542 6.89551C28.6685 6.7168 28.7256 6.52344 28.7256 6.31543C28.7256 6.01074 28.6143 5.76025 28.3916 5.56396C28.1719 5.36768 27.8232 5.26953 27.3457 5.26953H25.3066V7.40088ZM31.6855 7.8623C31.6855 6.79297 31.9727 5.95654 32.5469 5.35303C33.1211 4.74658 33.8623 4.44336 34.7705 4.44336C35.3652 4.44336 35.9014 4.58545 36.3789 4.86963C36.8564 5.15381 37.2197 5.55078 37.4688 6.06055C37.7207 6.56738 37.8467 7.14307 37.8467 7.7876C37.8467 8.44092 37.7148 9.02539 37.4512 9.54102C37.1875 10.0566 36.814 10.4478 36.3306 10.7144C35.8472 10.978 35.3257 11.1099 34.7661 11.1099C34.1597 11.1099 33.6177 10.9634 33.1401 10.6704C32.6626 10.3774 32.3008 9.97754 32.0547 9.4707C31.8086 8.96387 31.6855 8.42773 31.6855 7.8623ZM32.5645 7.87549C32.5645 8.65186 32.7725 9.26416 33.1885 9.7124C33.6074 10.1577 34.1318 10.3804 34.7617 10.3804C35.4033 10.3804 35.9307 10.1548 36.3438 9.70361C36.7598 9.25244 36.9678 8.6123 36.9678 7.7832C36.9678 7.25879 36.8784 6.80176 36.6997 6.41211C36.5239 6.01953 36.2646 5.71631 35.9219 5.50244C35.582 5.28564 35.1997 5.17725 34.7749 5.17725C34.1714 5.17725 33.6514 5.38525 33.2148 5.80127C32.7812 6.21436 32.5645 6.90576 32.5645 7.87549ZM39.9629 11V4.55762H42.8193C43.3936 4.55762 43.8301 4.61621 44.1289 4.7334C44.4277 4.84766 44.6665 5.05127 44.8452 5.34424C45.0239 5.63721 45.1133 5.96094 45.1133 6.31543C45.1133 6.77246 44.9653 7.15771 44.6694 7.47119C44.3735 7.78467 43.9165 7.98389 43.2983 8.06885C43.5239 8.17725 43.6953 8.28418 43.8125 8.38965C44.0615 8.61816 44.2974 8.90381 44.52 9.24658L45.6406 11H44.5684L43.7158 9.65967C43.4668 9.27295 43.2617 8.97705 43.1006 8.77197C42.9395 8.56689 42.7944 8.42334 42.6655 8.34131C42.5396 8.25928 42.4106 8.20215 42.2788 8.16992C42.1821 8.14941 42.0239 8.13916 41.8042 8.13916H40.8154V11H39.9629ZM40.8154 7.40088H42.6479C43.0376 7.40088 43.3423 7.36133 43.562 7.28223C43.7817 7.2002 43.9487 7.07129 44.063 6.89551C44.1772 6.7168 44.2344 6.52344 44.2344 6.31543C44.2344 6.01074 44.123 5.76025 43.9004 5.56396C43.6807 5.36768 43.332 5.26953 42.8545 5.26953H40.8154V7.40088Z" fill="#868889"/>
<rect x="0.5" y="0.5" width="49" height="15" rx="1.5" stroke="black" stroke-opacity="0.2"/>
</svg>
