<svg width="24" height="21" viewBox="0 0 24 21" fill="none" xmlns="http://www.w3.org/2000/svg">
<g opacity="0.3">
<circle cx="0.827023" cy="0.827023" r="0.827023" transform="matrix(0.866044 0.499967 -0.866044 0.499967 12.0215 6.97852)" fill="#323233"/>
<circle cx="0.827023" cy="0.827023" r="0.827023" transform="matrix(0.866044 0.499967 -0.866044 0.499967 14.7275 8.54102)" fill="#323233"/>
<circle cx="0.827023" cy="0.827023" r="0.827023" transform="matrix(0.866044 0.499967 -0.866044 0.499967 17.4336 10.1055)" fill="#323233"/>
<circle cx="0.827023" cy="0.827023" r="0.827023" transform="matrix(0.866044 0.499968 -0.866044 0.499968 20.1401 11.6641)" fill="#323233"/>
<circle cx="0.827023" cy="0.827023" r="0.827023" transform="matrix(0.866044 0.499967 -0.866044 0.499967 22.5679 13.0664)" fill="#323233"/>
<circle cx="0.827023" cy="0.827023" r="0.827023" transform="matrix(0.866044 0.499967 -0.866044 0.499967 9.37402 8.50586)" fill="#323233"/>
<circle cx="0.827023" cy="0.827023" r="0.827023" transform="matrix(0.866044 0.499967 -0.866044 0.499967 12.0801 10.0684)" fill="#323233"/>
<circle cx="0.827023" cy="0.827023" r="0.827023" transform="matrix(0.866044 0.499967 -0.866044 0.499967 14.7866 11.6328)" fill="#323233"/>
<circle cx="0.827023" cy="0.827023" r="0.827023" transform="matrix(0.866044 0.499967 -0.866044 0.499967 17.4932 13.1914)" fill="#323233"/>
<circle cx="0.827023" cy="0.827023" r="0.827023" transform="matrix(0.866044 0.499968 -0.866044 0.499968 19.9204 14.5938)" fill="#323233"/>
<circle cx="0.827023" cy="0.827023" r="0.827023" transform="matrix(0.866044 0.499967 -0.866044 0.499967 6.72656 10.0332)" fill="#323233"/>
<circle cx="0.827023" cy="0.827023" r="0.827023" transform="matrix(0.866044 0.499967 -0.866044 0.499967 9.43359 11.5957)" fill="#323233"/>
<circle cx="0.827023" cy="0.827023" r="0.827023" transform="matrix(0.866044 0.499967 -0.866044 0.499967 12.1396 13.1602)" fill="#323233"/>
<circle cx="0.827023" cy="0.827023" r="0.827023" transform="matrix(0.866044 0.499967 -0.866044 0.499967 14.8462 14.7227)" fill="#323233"/>
<circle cx="0.827023" cy="0.827023" r="0.827023" transform="matrix(0.866044 0.499967 -0.866044 0.499967 17.2729 16.125)" fill="#323233"/>
<circle cx="0.827023" cy="0.827023" r="0.827023" transform="matrix(0.866044 0.499967 -0.866044 0.499967 4.08008 11.5605)" fill="#323233"/>
<circle cx="0.827023" cy="0.827023" r="0.827023" transform="matrix(0.866044 0.499967 -0.866044 0.499967 6.78613 13.125)" fill="#323233"/>
<circle cx="0.827023" cy="0.827023" r="0.827023" transform="matrix(0.866044 0.499967 -0.866044 0.499967 9.49268 14.6875)" fill="#323233"/>
<circle cx="0.827023" cy="0.827023" r="0.827023" transform="matrix(0.866044 0.499967 -0.866044 0.499967 12.1987 16.25)" fill="#323233"/>
<circle cx="0.827023" cy="0.827023" r="0.827023" transform="matrix(0.866044 0.499967 -0.866044 0.499967 14.6265 17.6523)" fill="#323233"/>
<circle cx="0.827023" cy="0.827023" r="0.827023" transform="matrix(0.866044 0.499967 -0.866044 0.499967 1.43262 13.0918)" fill="#323233"/>
<circle cx="0.827023" cy="0.827023" r="0.827023" transform="matrix(0.866044 0.499967 -0.866044 0.499967 4.13916 14.6523)" fill="#323233"/>
<circle cx="0.827023" cy="0.827023" r="0.827023" transform="matrix(0.866044 0.499967 -0.866044 0.499967 6.84521 16.2148)" fill="#323233"/>
<circle cx="0.827023" cy="0.827023" r="0.827023" transform="matrix(0.866044 0.499967 -0.866044 0.499967 9.55127 17.7793)" fill="#323233"/>
<circle cx="0.827023" cy="0.827023" r="0.827023" transform="matrix(0.866044 0.499967 -0.866044 0.499967 11.979 19.1797)" fill="#323233"/>
</g>
<g clip-path="url(#clip0_1555_90448)">
<path d="M11.8566 10.0925C11.5843 10.0986 11.3312 10.033 11.1047 9.87703C10.8024 9.66869 10.7174 9.313 10.9027 8.99587C11.0929 8.66988 11.3815 8.49853 11.7616 8.50404C12.1812 8.51013 12.5126 8.69585 12.7472 9.03993C12.9859 9.39031 12.8721 9.78358 12.4877 9.96556C12.2888 10.0598 12.0783 10.1037 11.8566 10.0925V10.0925Z" fill="#323233"/>
<path d="M8.76645 8.39063C8.5987 8.38492 8.45086 8.36328 8.32411 8.26747C8.16464 8.14687 8.10157 7.98732 8.14158 7.79315C8.2157 7.43274 8.43588 7.16361 8.70436 6.9295C8.90404 6.75539 9.12738 6.62141 9.39448 6.57498C9.71539 6.51931 9.95213 6.68732 9.99806 7.00957C10.0387 7.29424 9.94641 7.54625 9.78576 7.77564C9.53423 8.13487 9.19854 8.35698 8.76645 8.39082V8.39063Z" fill="#323233"/>
<path d="M14.9075 8.56859C14.2963 8.55895 13.7256 8.10784 13.6205 7.5625C13.5985 7.4482 13.6099 7.31973 13.6371 7.20523C13.6899 6.98391 13.905 6.8643 14.1679 6.88515C14.393 6.90305 14.5921 6.99552 14.7835 7.10352C15.0489 7.25324 15.2834 7.44249 15.4459 7.70395C15.559 7.88593 15.6176 8.08089 15.4908 8.2849C15.4082 8.4175 15.2811 8.49068 15.1358 8.53082C15.0512 8.55403 14.9619 8.55993 14.9073 8.56859H14.9075Z" fill="#323233"/>
<path d="M11.1061 5.24738C10.9494 5.20649 10.7931 5.12403 10.6646 5.02438C10.4947 4.89276 10.4674 4.68585 10.5551 4.48876C10.6586 4.25615 10.8439 4.10756 11.0669 3.99672C11.6468 3.7087 12.4602 3.87517 12.8742 4.36855C12.8885 4.38553 12.9024 4.40296 12.9158 4.42106C13.1764 4.77411 13.0611 5.12381 12.6413 5.25676C12.3783 5.34011 11.3421 5.30905 11.1061 5.24738Z" fill="#323233"/>
<path d="M9.20696 11.8897C8.99584 11.886 8.80148 11.8579 8.62151 11.7709C8.54582 11.7343 8.4713 11.6889 8.40764 11.6342C8.20598 11.4605 8.18824 11.2189 8.38201 11.0359C8.49338 10.9309 8.63058 10.8394 8.7727 10.7829C9.12515 10.6428 9.48726 10.6312 9.84227 10.7857C9.91324 10.8166 9.98302 10.8585 10.0414 10.909C10.3053 11.1372 10.2893 11.4461 10.0102 11.6562C9.76776 11.8388 9.48687 11.884 9.20676 11.8899L9.20696 11.8897Z" fill="#323233"/>
<path d="M14.2694 11.7483C14.0569 11.7461 13.8511 11.7091 13.6593 11.6166C13.5866 11.5816 13.5156 11.5362 13.4561 11.4821C13.213 11.2604 13.2284 10.9619 13.4888 10.7599C13.6465 10.6375 13.8306 10.5777 14.0253 10.5594C14.3679 10.5271 14.7005 10.562 14.997 10.7583C15.3539 10.9948 15.3488 11.3501 14.9849 11.5741C14.7659 11.7091 14.5229 11.7514 14.2694 11.7485V11.7483Z" fill="#323233"/>
<path d="M6.90615 5.91602C7.0053 5.92566 7.10761 5.92802 7.20656 5.9469C7.47839 5.99864 7.57577 6.16272 7.49041 6.42772C7.39816 6.71416 7.2042 6.91699 6.93532 7.04408C6.60022 7.20225 6.25565 7.2235 5.90793 7.08146C5.85373 7.05923 5.80129 7.0305 5.75241 6.99804C5.52552 6.84774 5.48905 6.61363 5.65562 6.39899C5.77646 6.24338 5.94263 6.15052 6.11925 6.0793C6.24895 6.02697 6.38634 5.989 6.52354 5.96048C6.64773 5.93471 6.77625 5.93018 6.90595 5.91602H6.90615Z" fill="#323233"/>
<path d="M3.90639 4.5918C4.17132 4.59947 4.42225 4.65416 4.64618 4.79935C4.78042 4.8863 4.8707 5.00572 4.84428 5.17589C4.82536 5.29748 4.74927 5.38955 4.65406 5.4645C4.38795 5.67382 4.07591 5.73166 3.7481 5.73127C3.5561 5.73107 3.36805 5.70058 3.19577 5.61284C3.11219 5.57034 3.02901 5.519 2.961 5.45525C2.77709 5.28272 2.77985 5.06297 2.96198 4.88709C3.1319 4.72282 3.34795 4.6577 3.57404 4.62209C3.68364 4.60478 3.7956 4.60163 3.90639 4.59219V4.5918Z" fill="#323233"/>
<path d="M16.9802 10.2428C16.6606 10.2237 16.3659 10.1711 16.1178 9.97402C15.8345 9.74876 15.8507 9.433 16.1546 9.23588C16.3517 9.108 16.5723 9.06787 16.8027 9.07043C17.1002 9.07397 17.3817 9.13633 17.6322 9.30513C17.6701 9.3307 17.7059 9.36002 17.7391 9.39149C17.9395 9.58272 17.9366 9.8125 17.7286 9.99526C17.5644 10.1395 17.3614 10.1918 17.1515 10.2237C17.0899 10.2329 17.0279 10.2374 16.98 10.2426L16.9802 10.2428Z" fill="#323233"/>
<path d="M4.46862 7.78325C4.54767 7.80705 4.62218 7.85781 4.68822 7.90975C4.93067 8.10097 4.92831 8.37089 4.68644 8.56369C4.52835 8.68959 4.34207 8.75078 4.14653 8.78265C3.85006 8.83104 3.55734 8.80901 3.28117 8.68664C3.18163 8.64257 3.08524 8.57805 3.00659 8.50289C2.83923 8.34275 2.84377 8.1295 3.00698 7.96365C3.18064 7.78718 3.40516 7.7197 3.64171 7.6839C3.72233 7.6717 3.76077 7.64711 3.96301 7.66875C4.16526 7.69039 4.279 7.72639 4.46843 7.78345L4.46862 7.78325Z" fill="#323233"/>
<path d="M6.55882 10.3477C6.34002 10.3464 6.12515 10.318 5.92961 10.2165C5.83539 10.1675 5.74235 10.1044 5.66981 10.028C5.52611 9.87695 5.5336 9.67825 5.67493 9.5244C5.82593 9.36013 6.02364 9.28498 6.23692 9.24524C6.55507 9.18602 6.87027 9.19311 7.17482 9.31331C7.24696 9.34183 7.31832 9.38158 7.37746 9.43115C7.58798 9.60723 7.59547 9.87675 7.3952 10.0654C7.21661 10.2336 6.99623 10.3115 6.75535 10.3367C6.6901 10.3436 6.62426 10.3442 6.55882 10.3477V10.3477Z" fill="#323233"/>
<path d="M19.5266 8.75055C19.2456 8.73402 18.9852 8.69448 18.7569 8.54083C18.6422 8.46351 18.5489 8.36633 18.5298 8.2237C18.5073 8.05589 18.5974 7.93667 18.7222 7.84027C18.8762 7.72144 19.0561 7.66144 19.2452 7.63016C19.545 7.58038 19.8407 7.60242 20.1192 7.72793C20.2211 7.77377 20.3191 7.84243 20.3987 7.92093C20.5501 8.07044 20.5469 8.27406 20.4032 8.43105C20.2278 8.62267 19.9938 8.69172 19.7472 8.72871C19.6698 8.74032 19.5911 8.74445 19.5266 8.75055Z" fill="#323233"/>
<path d="M11.65 13.2873C11.4235 13.2948 11.2065 13.2533 11.0028 13.1539C10.8225 13.0658 10.6595 12.9467 10.6563 12.7282C10.6531 12.5088 10.8118 12.3811 10.9936 12.2969C11.4288 12.0953 11.8684 12.1022 12.3046 12.2983C12.3549 12.3209 12.4022 12.3528 12.4458 12.3866C12.7056 12.5891 12.7022 12.8679 12.4394 13.0658C12.2498 13.2086 11.9697 13.2871 11.65 13.2871V13.2873Z" fill="#323233"/>
<path d="M22.1256 6.08789C22.4071 6.10087 22.6611 6.14081 22.8855 6.28639C23.0282 6.37905 23.1358 6.49375 23.1265 6.6836C23.1206 6.80183 23.0635 6.88721 22.9817 6.96158C22.8153 7.11287 22.6095 7.17916 22.394 7.21064C22.1289 7.2492 21.8632 7.23877 21.6117 7.13765C21.5011 7.09319 21.3905 7.03398 21.3 6.95784C21.096 6.78609 21.0986 6.54431 21.2959 6.3641C21.464 6.21065 21.6724 6.14553 21.892 6.1113C21.9758 6.09832 22.0609 6.09419 22.1256 6.08789Z" fill="#323233"/>
<path d="M1.21533 7.25853C0.930891 7.24692 0.673846 7.2062 0.446961 7.05845C0.304246 6.9654 0.19859 6.84893 0.209235 6.65948C0.215937 6.54124 0.274678 6.45665 0.35668 6.38268C0.520881 6.23454 0.723323 6.16942 0.935424 6.13676C1.211 6.09427 1.48499 6.11178 1.74618 6.21545C1.84218 6.25362 1.9364 6.30634 2.01682 6.37087C2.24509 6.55403 2.24174 6.81785 2.01525 7.00455C1.84848 7.14206 1.64979 7.20403 1.44005 7.23571C1.35943 7.2479 1.27762 7.25243 1.21553 7.25853H1.21533Z" fill="#323233"/>
<path d="M19.7151 4.70332C19.9511 4.70588 20.1624 4.73263 20.3565 4.83002C20.4403 4.87212 20.5235 4.92366 20.5915 4.9874C20.7796 5.16348 20.7713 5.39582 20.5779 5.56993C20.4269 5.70567 20.2432 5.77177 20.0471 5.80856C19.7334 5.86758 19.4259 5.85066 19.1342 5.71512C19.041 5.67183 18.9507 5.60986 18.8772 5.53806C18.6818 5.34742 18.6986 5.11607 18.9124 4.94668C19.0928 4.80385 19.3059 4.74267 19.53 4.71473C19.5982 4.70627 19.6674 4.70608 19.7153 4.70312L19.7151 4.70332Z" fill="#323233"/>
<path d="M17.2686 7.24084C16.9532 7.22117 16.6264 7.13598 16.3694 6.87472C16.2799 6.78364 16.2198 6.67484 16.2038 6.54756C16.1758 6.32348 16.2923 6.16039 16.5338 6.08012C16.8137 5.98707 17.0912 6.02445 17.3654 6.10452C17.5588 6.16098 17.738 6.24912 17.8904 6.38368C17.9317 6.42027 17.9708 6.46119 18.0037 6.50546C18.1624 6.71911 18.1155 6.95224 17.8892 7.09408C17.7104 7.20622 17.5121 7.2375 17.2686 7.24084V7.24084Z" fill="#323233"/>
<path d="M6.72511 2.94796C6.92341 2.94481 7.11777 2.96881 7.30169 3.04672C7.58574 3.16692 7.63088 3.38175 7.41956 3.6078C7.25379 3.78505 7.04464 3.8909 6.81421 3.95601C6.49941 4.04494 6.18185 4.06894 5.86843 3.95503C5.78426 3.92454 5.70088 3.87594 5.63425 3.81653C5.47616 3.67547 5.47222 3.48937 5.61217 3.33001C5.73044 3.19564 5.88558 3.11538 6.05017 3.05852C6.26779 2.98337 6.4931 2.94127 6.72531 2.94796H6.72511Z" fill="#323233"/>
<path d="M17.2483 4.13056C16.8961 4.12308 16.5671 4.04124 16.2933 3.80831C16.218 3.74437 16.1531 3.65978 16.106 3.57263C16.022 3.41721 16.0601 3.27045 16.2158 3.18703C16.3315 3.12506 16.4632 3.07824 16.5927 3.05955C16.9802 3.00348 17.3569 3.04814 17.7043 3.2429C17.7802 3.2854 17.8535 3.34009 17.913 3.40324C18.1001 3.60214 18.0599 3.84943 17.8237 3.98891C17.6465 4.09357 17.452 4.1282 17.2483 4.13056V4.13056Z" fill="#323233"/>
<path d="M14.3434 3.55933C14.7044 3.6937 15.0268 3.89436 15.2855 4.1812C15.3775 4.2833 15.4562 4.40724 15.5062 4.53492C15.5855 4.73756 15.4727 4.88235 15.2535 4.89101C15.0876 4.8975 14.9356 4.84478 14.7929 4.76943C14.3945 4.55873 14.0501 4.27996 13.7629 3.93273C13.7215 3.88256 13.6845 3.82728 13.6541 3.76983C13.5595 3.5908 13.633 3.46765 13.8366 3.45899C13.8563 3.45821 14.2007 3.50621 14.3434 3.55933V3.55933Z" fill="#323233"/>
<path d="M11.6985 0.956162C11.4426 0.944358 11.1925 0.921143 10.9575 0.814318C10.9189 0.796809 10.8814 0.775562 10.8467 0.751167C10.6672 0.624668 10.6528 0.436002 10.8152 0.286289C10.9692 0.144445 11.158 0.0704734 11.3608 0.0334878C11.7216 -0.0322208 12.0738 -0.0080227 12.4022 0.167069C12.4834 0.21035 12.5591 0.276255 12.6173 0.347866C12.7202 0.474365 12.7072 0.625258 12.5725 0.716739C12.459 0.794055 12.3261 0.854845 12.1931 0.889076C12.033 0.930193 11.8637 0.935308 11.6985 0.956162V0.956162Z" fill="#323233"/>
<path d="M8.46881 4.65803C8.22004 4.65803 8.12306 4.52641 8.19304 4.33322C8.21945 4.26043 8.25533 4.18725 8.30303 4.12685C8.63971 3.69974 9.06963 3.42019 9.61191 3.32989C9.68701 3.3173 9.7696 3.32733 9.8449 3.34385C9.95076 3.36687 9.99807 3.45206 9.96002 3.55318C9.93164 3.62833 9.89182 3.70387 9.83997 3.76467C9.53188 4.12665 9.15814 4.40326 8.71955 4.58838C8.62729 4.62734 8.52538 4.64288 8.46861 4.65822L8.46881 4.65803Z" fill="#323233"/>
<path d="M14.1571 1.3977C14.465 1.3977 14.7662 1.43961 15.036 1.59778C15.1297 1.65267 15.2196 1.72683 15.2866 1.81163C15.3932 1.94698 15.3571 2.09531 15.2113 2.18935C15.0514 2.29264 14.8697 2.30405 14.6895 2.28339C14.3079 2.23972 13.9513 2.114 13.6199 1.92022C13.5639 1.88756 13.5105 1.84723 13.4642 1.80199C13.368 1.70815 13.3753 1.59857 13.4944 1.53482C13.5935 1.48171 13.7063 1.45279 13.8151 1.42013C13.8677 1.40439 13.9249 1.40164 13.9803 1.39829C14.039 1.39475 14.0981 1.3975 14.1571 1.3975V1.3977Z" fill="#323233"/>
<path d="M9.42588 1.37336C9.63187 1.38103 9.75763 1.41428 9.91769 1.47428C10.1257 1.55238 10.1395 1.69895 9.95751 1.82919C9.66735 2.03713 9.33323 2.1416 8.98729 2.21183C8.80594 2.24862 8.62281 2.25846 8.44166 2.21144C8.30979 2.17701 8.1858 2.11661 8.15584 1.97221C8.12844 1.83922 8.21931 1.74341 8.31353 1.66413C8.49744 1.5093 8.72295 1.44615 8.95259 1.40444C9.103 1.3771 9.21969 1.36588 9.42568 1.37336H9.42588Z" fill="#323233"/>
<path d="M10.9943 2.54303C10.9366 2.5385 10.8778 2.52257 10.8232 2.50211C10.6922 2.45292 10.6746 2.364 10.7824 2.27724C10.8402 2.23081 10.907 2.19009 10.9762 2.16471C11.4873 1.97624 12.0006 1.98116 12.5114 2.16629C12.5867 2.19363 12.6594 2.23829 12.7213 2.28944C12.8207 2.37167 12.8047 2.46099 12.6837 2.50211C12.5948 2.53221 12.4995 2.55582 12.4063 2.55955C12.1972 2.56801 11.9876 2.56211 11.7781 2.56211C11.7779 2.57332 11.2549 2.56329 10.9941 2.54303H10.9943Z" fill="#323233"/>
</g>
<defs>
<clipPath id="clip0_1555_90448">
<rect width="22.9185" height="13.2861" fill="white" transform="translate(0.208496)"/>
</clipPath>
</defs>
</svg>
