<svg width="20" height="20" viewBox="0 0 20 20" fill="none" xmlns="http://www.w3.org/2000/svg">
<g clip-path="url(#clip0_397_94578)">
<ellipse rx="1.47264" ry="1.47258" transform="matrix(0.959076 -0.28315 0.283175 0.959068 1.82937 7.69357)" fill="white"/>
<ellipse rx="1.47264" ry="1.47258" transform="matrix(0.959076 -0.28315 0.283175 0.959068 8.6697 7.80197)" fill="white"/>
<ellipse rx="1.47264" ry="1.47258" transform="matrix(0.959076 -0.28315 0.283175 0.959068 11.168 1.82931)" fill="white"/>
<ellipse rx="1.47264" ry="1.47258" transform="matrix(0.959076 -0.28315 0.283175 0.959068 5.13821 13.8274)" fill="white"/>
<ellipse rx="1.47264" ry="1.47258" transform="matrix(0.959076 -0.28315 0.283175 0.959068 12.0882 12.0891)" fill="white"/>
<ellipse rx="1.47264" ry="1.47258" transform="matrix(0.959076 -0.28315 0.283175 0.959068 15.565 6.00802)" fill="white"/>
<ellipse rx="1.47264" ry="1.47258" transform="matrix(0.959076 -0.28315 0.283175 0.959068 11.2207 18.1711)" fill="white"/>
<ellipse rx="1.47264" ry="1.47258" transform="matrix(0.959076 -0.28315 0.283175 0.959068 18.1707 12.9582)" fill="white"/>
</g>
<defs>
<clipPath id="clip0_397_94578">
<rect width="20" height="20" fill="white"/>
</clipPath>
</defs>
</svg>
