<svg width="20" height="20" viewBox="0 0 20 20" fill="none" xmlns="http://www.w3.org/2000/svg">
<g opacity="0.3">
<circle cx="0.716797" cy="0.716797" r="0.716797" transform="matrix(0.832684 0.553748 -0.832684 0.553748 10.0176 6.69922)" fill="white"/>
<circle cx="0.716797" cy="0.716797" r="0.716797" transform="matrix(0.832684 0.553748 -0.832684 0.553748 12.2729 8.19922)" fill="white"/>
<circle cx="0.716797" cy="0.716797" r="0.716797" transform="matrix(0.832684 0.553748 -0.832684 0.553748 14.5278 9.69922)" fill="white"/>
<circle cx="0.716797" cy="0.716797" r="0.716797" transform="matrix(0.832684 0.553748 -0.832684 0.553748 16.7832 11.1992)" fill="white"/>
<circle cx="0.716797" cy="0.716797" r="0.716797" transform="matrix(0.832684 0.553748 -0.832684 0.553748 18.8062 12.543)" fill="white"/>
<circle cx="0.716797" cy="0.716797" r="0.716797" transform="matrix(0.832684 0.553748 -0.832684 0.553748 7.81152 8.16602)" fill="white"/>
<circle cx="0.716797" cy="0.716797" r="0.716797" transform="matrix(0.832684 0.553748 -0.832684 0.553748 10.0669 9.66602)" fill="white"/>
<circle cx="0.716797" cy="0.716797" r="0.716797" transform="matrix(0.832684 0.553748 -0.832684 0.553748 12.3223 11.166)" fill="white"/>
<circle cx="0.716797" cy="0.716797" r="0.716797" transform="matrix(0.832684 0.553748 -0.832684 0.553748 14.5776 12.666)" fill="white"/>
<circle cx="0.716797" cy="0.716797" r="0.716797" transform="matrix(0.832684 0.553748 -0.832684 0.553748 16.6006 14.0117)" fill="white"/>
<circle cx="0.716797" cy="0.716797" r="0.716797" transform="matrix(0.832684 0.553748 -0.832684 0.553748 5.60547 9.63281)" fill="white"/>
<circle cx="0.716797" cy="0.716797" r="0.716797" transform="matrix(0.832684 0.553748 -0.832684 0.553748 7.86084 11.1328)" fill="white"/>
<circle cx="0.716797" cy="0.716797" r="0.716797" transform="matrix(0.832684 0.553748 -0.832684 0.553748 10.1162 12.6328)" fill="white"/>
<circle cx="0.716797" cy="0.716797" r="0.716797" transform="matrix(0.832684 0.553748 -0.832684 0.553748 12.3716 14.1328)" fill="white"/>
<circle cx="0.716797" cy="0.716797" r="0.716797" transform="matrix(0.832684 0.553748 -0.832684 0.553748 14.3945 15.4785)" fill="white"/>
<circle cx="0.716797" cy="0.716797" r="0.716797" transform="matrix(0.832684 0.553748 -0.832684 0.553748 3.39941 11.0996)" fill="white"/>
<circle cx="0.716797" cy="0.716797" r="0.716797" transform="matrix(0.832684 0.553748 -0.832684 0.553748 5.65479 12.5996)" fill="white"/>
<circle cx="0.716797" cy="0.716797" r="0.716797" transform="matrix(0.832684 0.553748 -0.832684 0.553748 7.91016 14.0996)" fill="white"/>
<circle cx="0.716797" cy="0.716797" r="0.716797" transform="matrix(0.832684 0.553748 -0.832684 0.553748 10.1655 15.5996)" fill="white"/>
<circle cx="0.716797" cy="0.716797" r="0.716797" transform="matrix(0.832684 0.553748 -0.832684 0.553748 12.1885 16.9453)" fill="white"/>
<circle cx="0.716797" cy="0.716797" r="0.716797" transform="matrix(0.832684 0.553748 -0.832684 0.553748 1.19385 12.5664)" fill="white"/>
<circle cx="0.716797" cy="0.716797" r="0.716797" transform="matrix(0.832684 0.553748 -0.832684 0.553748 3.44922 14.0664)" fill="white"/>
<circle cx="0.716797" cy="0.716797" r="0.716797" transform="matrix(0.832684 0.553748 -0.832684 0.553748 5.7041 15.5664)" fill="white"/>
<circle cx="0.716797" cy="0.716797" r="0.716797" transform="matrix(0.832684 0.553748 -0.832684 0.553748 7.95947 17.0664)" fill="white"/>
<circle cx="0.716797" cy="0.716797" r="0.716797" transform="matrix(0.832684 0.553749 -0.832684 0.553749 9.98242 18.4121)" fill="white"/>
</g>
<g clip-path="url(#clip0_1555_90326)">
<path d="M9.88055 9.68899C9.6537 9.69484 9.44278 9.63196 9.25404 9.48219C9.00205 9.2822 8.93125 8.94075 9.08567 8.63632C9.24418 8.32339 9.48467 8.1589 9.80138 8.16419C10.1511 8.17004 10.4272 8.34832 10.6227 8.67862C10.8216 9.01497 10.7269 9.39249 10.4065 9.56718C10.2408 9.65764 10.0654 9.69975 9.88055 9.68899V9.68899Z" fill="white"/>
<path d="M7.30489 8.05382C7.1651 8.04834 7.0419 8.02757 6.93627 7.9356C6.80338 7.81983 6.75082 7.66667 6.78416 7.48027C6.84593 7.13429 7.02941 6.87594 7.25314 6.6512C7.41955 6.48407 7.60566 6.35546 7.82824 6.31089C8.09567 6.25745 8.29295 6.41873 8.33123 6.72807C8.36506 7.00134 8.28819 7.24326 8.15431 7.46346C7.94471 7.80831 7.66496 8.02152 7.30489 8.05401V8.05382Z" fill="white"/>
<path d="M12.423 8.22569C11.9136 8.21643 11.4381 7.78339 11.3505 7.25989C11.3321 7.15016 11.3417 7.02684 11.3643 6.91693C11.4083 6.70447 11.5876 6.58965 11.8067 6.60967C11.9943 6.62685 12.1602 6.71561 12.3197 6.81929C12.5408 6.96301 12.7363 7.14469 12.8716 7.39567C12.9659 7.57036 13.0147 7.75752 12.9091 7.95336C12.8403 8.08065 12.7343 8.1509 12.6132 8.18943C12.5428 8.21171 12.4684 8.21738 12.4229 8.22569H12.423Z" fill="white"/>
<path d="M9.25518 5.03734C9.12457 4.99809 8.99434 4.91893 8.88725 4.82327C8.74564 4.69692 8.72287 4.4983 8.79601 4.3091C8.88221 4.08581 9.0367 3.94316 9.22252 3.83677C9.70576 3.56028 10.3836 3.72008 10.7286 4.1937C10.7405 4.21 10.7521 4.22674 10.7633 4.24411C10.9804 4.58302 10.8844 4.91872 10.5345 5.04635C10.3153 5.12636 9.45183 5.09654 9.25518 5.03734Z" fill="white"/>
<path d="M7.6723 11.4133C7.49637 11.4097 7.3344 11.3827 7.18443 11.2992C7.12135 11.2641 7.05926 11.2205 7.0062 11.168C6.83816 11.0012 6.82337 10.7693 6.98485 10.5937C7.07766 10.4928 7.19199 10.405 7.31042 10.3508C7.60413 10.2163 7.90589 10.2052 8.20173 10.3535C8.26087 10.3831 8.31902 10.4233 8.36764 10.4719C8.58759 10.6909 8.57429 10.9874 8.34169 11.1891C8.13964 11.3644 7.90556 11.4078 7.67214 11.4135L7.6723 11.4133Z" fill="white"/>
<path d="M11.8916 11.2764C11.7146 11.2743 11.5431 11.2388 11.3832 11.1501C11.3226 11.1164 11.2635 11.0728 11.2139 11.0209C11.0113 10.808 11.0241 10.5215 11.2411 10.3276C11.3726 10.2101 11.526 10.1527 11.6883 10.1352C11.9738 10.1042 12.2509 10.1376 12.4979 10.3261C12.7954 10.5531 12.7912 10.8942 12.4879 11.1093C12.3054 11.2388 12.1029 11.2794 11.8916 11.2766V11.2764Z" fill="white"/>
<path d="M5.75521 5.67969C5.83783 5.68894 5.92309 5.69121 6.00555 5.70934C6.23207 5.75901 6.31322 5.91651 6.24209 6.1709C6.16522 6.44587 6.00358 6.64057 5.77952 6.76257C5.50026 6.91441 5.21313 6.93481 4.92336 6.79845C4.87819 6.77711 4.83449 6.74954 4.79375 6.71838C4.60468 6.5741 4.57429 6.34936 4.7131 6.14332C4.81379 5.99394 4.95227 5.9048 5.09945 5.83644C5.20754 5.7862 5.32204 5.74975 5.43636 5.72237C5.53985 5.69763 5.64695 5.69328 5.75504 5.67969H5.75521Z" fill="white"/>
<path d="M3.25581 4.40625C3.47658 4.41362 3.6857 4.46612 3.8723 4.60549C3.98417 4.68896 4.0594 4.8036 4.03739 4.96696C4.02162 5.08367 3.95821 5.17205 3.87887 5.244C3.65711 5.44494 3.39708 5.50047 3.1239 5.50009C2.96391 5.4999 2.8072 5.47063 2.66363 5.3864C2.59398 5.34561 2.52466 5.29632 2.46799 5.23513C2.31473 5.0695 2.31703 4.85855 2.46881 4.68972C2.61041 4.53203 2.79044 4.46952 2.97886 4.43533C3.07019 4.41871 3.16349 4.41569 3.25581 4.40663V4.40625Z" fill="white"/>
<path d="M14.1499 9.83057C13.8836 9.81225 13.638 9.76182 13.4312 9.57259C13.1952 9.35635 13.2086 9.05324 13.4619 8.86401C13.6262 8.74126 13.81 8.70273 14.002 8.70519C14.2499 8.70859 14.4845 8.76845 14.6933 8.93049C14.7248 8.95504 14.7547 8.98318 14.7823 9.0134C14.9494 9.19696 14.9469 9.41754 14.7736 9.59299C14.6368 9.73142 14.4676 9.78165 14.2926 9.81225C14.2414 9.82112 14.1896 9.82547 14.1497 9.83038L14.1499 9.83057Z" fill="white"/>
<path d="M3.72385 7.47168C3.78972 7.49453 3.85182 7.54325 3.90685 7.59311C4.10889 7.77668 4.10692 8.03578 3.90537 8.22086C3.77363 8.34173 3.61839 8.40046 3.45544 8.43105C3.20839 8.47751 2.96445 8.45636 2.73431 8.33889C2.65136 8.29659 2.57103 8.23465 2.50549 8.1625C2.36603 8.00878 2.3698 7.80406 2.50582 7.64486C2.65054 7.47546 2.83764 7.41068 3.03476 7.37631C3.10194 7.3646 3.13397 7.34099 3.30251 7.36177C3.47105 7.38254 3.56583 7.4171 3.72369 7.47187L3.72385 7.47168Z" fill="white"/>
<path d="M5.46552 9.93689C5.28318 9.93557 5.10413 9.90837 4.94118 9.81092C4.86266 9.7639 4.78513 9.70328 4.72468 9.63C4.60493 9.48496 4.61117 9.29422 4.72895 9.14654C4.85478 8.98884 5.01954 8.9167 5.19727 8.87855C5.4624 8.82171 5.72506 8.82851 5.97885 8.9439C6.03897 8.97128 6.09844 9.00943 6.14772 9.05702C6.32316 9.22604 6.3294 9.48477 6.1625 9.66588C6.01368 9.82735 5.83003 9.90214 5.62929 9.92631C5.57492 9.93292 5.52006 9.93349 5.46552 9.93689V9.93689Z" fill="white"/>
<path d="M16.272 8.4C16.0378 8.38414 15.8208 8.34618 15.6306 8.19868C15.535 8.12446 15.4573 8.03117 15.4413 7.89425C15.4226 7.73316 15.4977 7.61871 15.6017 7.52618C15.73 7.41211 15.8799 7.35451 16.0375 7.32448C16.2873 7.2767 16.5337 7.29785 16.7658 7.41834C16.8508 7.46234 16.9324 7.52825 16.9988 7.60361C17.1249 7.74714 17.1223 7.9426 17.0025 8.0933C16.8563 8.27725 16.6614 8.34353 16.4559 8.37904C16.3913 8.39018 16.3258 8.39415 16.272 8.4Z" fill="white"/>
<path d="M9.70799 12.7534C9.51925 12.7606 9.33839 12.7207 9.1687 12.6254C9.0184 12.5407 8.88255 12.4265 8.87992 12.2167C8.87729 12.0061 9.00953 11.8835 9.16098 11.8027C9.52368 11.6091 9.89 11.6157 10.2535 11.804C10.2954 11.8257 10.3348 11.8563 10.3711 11.8888C10.5876 12.0832 10.5848 12.3508 10.3659 12.5407C10.2079 12.6779 9.97443 12.7532 9.70799 12.7532V12.7534Z" fill="white"/>
<path d="M18.4381 5.8457C18.6727 5.85817 18.8845 5.8965 19.0714 6.03626C19.1903 6.12521 19.28 6.23531 19.2723 6.41755C19.2674 6.53105 19.2197 6.61301 19.1515 6.6844C19.0129 6.82963 18.8414 6.89327 18.6619 6.92349C18.4409 6.9605 18.2195 6.9505 18.0099 6.85342C17.9177 6.81074 17.8256 6.7539 17.7502 6.68081C17.5802 6.51594 17.5823 6.28384 17.7467 6.11085C17.8869 5.96355 18.0605 5.90104 18.2435 5.86818C18.3133 5.85571 18.3843 5.85175 18.4381 5.8457Z" fill="white"/>
<path d="M1.01286 6.9686C0.775824 6.95746 0.56162 6.91836 0.372549 6.77654C0.25362 6.68721 0.165573 6.57541 0.174444 6.39354C0.180029 6.28004 0.22898 6.19883 0.297315 6.12782C0.434149 5.98562 0.602851 5.92311 0.779602 5.89176C1.00925 5.85097 1.23758 5.86777 1.45523 5.9673C1.53523 6.00394 1.61375 6.05455 1.68077 6.11649C1.87099 6.29232 1.8682 6.54557 1.67945 6.72479C1.54048 6.8568 1.3749 6.91629 1.20012 6.94669C1.13294 6.9584 1.06477 6.96275 1.01302 6.9686H1.01286Z" fill="white"/>
<path d="M16.4292 4.51777C16.6258 4.52022 16.8019 4.54591 16.9637 4.63939C17.0335 4.6798 17.1028 4.72928 17.1595 4.79047C17.3162 4.95949 17.3093 5.18253 17.1482 5.34967C17.0223 5.47997 16.8693 5.54343 16.7058 5.57875C16.4445 5.6354 16.1882 5.61916 15.9451 5.48904C15.8674 5.44749 15.7922 5.388 15.7309 5.31907C15.5681 5.13607 15.5821 4.91398 15.7603 4.75138C15.9106 4.61427 16.0882 4.55554 16.2749 4.52872C16.3318 4.5206 16.3894 4.52041 16.4293 4.51758L16.4292 4.51777Z" fill="white"/>
<path d="M14.3903 6.94803C14.1275 6.92914 13.8551 6.84737 13.6409 6.59657C13.5663 6.50913 13.5162 6.40469 13.5029 6.28251C13.4796 6.0674 13.5767 5.91084 13.7779 5.83379C14.0112 5.74446 14.2424 5.78034 14.4709 5.85721C14.6321 5.91141 14.7814 5.99602 14.9084 6.12519C14.9429 6.16032 14.9754 6.1996 15.0028 6.24209C15.1351 6.44719 15.096 6.67098 14.9074 6.80714C14.7584 6.91479 14.5932 6.94481 14.3903 6.94803V6.94803Z" fill="white"/>
<path d="M5.60434 2.82879C5.76959 2.82577 5.93156 2.84881 6.08482 2.92359C6.32153 3.03898 6.35915 3.24521 6.18305 3.4622C6.0449 3.63236 5.87062 3.73396 5.67859 3.79648C5.41626 3.88184 5.15162 3.90488 4.89044 3.79553C4.8203 3.76626 4.75081 3.71961 4.69529 3.66258C4.56355 3.52717 4.56026 3.34851 4.67689 3.19554C4.77545 3.06656 4.90473 2.9895 5.04189 2.93493C5.22324 2.86278 5.411 2.82237 5.6045 2.82879H5.60434Z" fill="white"/>
<path d="M14.3739 3.96372C14.0804 3.95654 13.8062 3.87798 13.5781 3.65438C13.5153 3.593 13.4613 3.51179 13.422 3.42813C13.352 3.27894 13.3837 3.13805 13.5135 3.05798C13.6099 2.99849 13.7197 2.95354 13.8276 2.9356C14.1505 2.88178 14.4644 2.92465 14.7539 3.11161C14.8171 3.15241 14.8782 3.20491 14.9278 3.26553C15.0837 3.45646 15.0502 3.69385 14.8534 3.82775C14.7058 3.92822 14.5436 3.96145 14.3739 3.96372V3.96372Z" fill="white"/>
<path d="M11.9527 3.41468C12.2535 3.54367 12.5222 3.7363 12.7377 4.01165C12.8144 4.10966 12.88 4.22864 12.9217 4.35121C12.9877 4.54573 12.8938 4.68472 12.7111 4.69303C12.5728 4.69926 12.4462 4.64865 12.3272 4.57632C11.9952 4.37406 11.7083 4.10645 11.4689 3.77313C11.4344 3.72497 11.4036 3.6719 11.3783 3.61676C11.2994 3.4449 11.3607 3.32668 11.5304 3.31837C11.5468 3.31761 11.8338 3.36369 11.9527 3.41468V3.41468Z" fill="white"/>
<path d="M9.74875 0.917869C9.53553 0.906538 9.32708 0.884253 9.13127 0.781706C9.09908 0.764898 9.06787 0.744502 9.03896 0.721084C8.88931 0.599651 8.87732 0.418541 9.01267 0.274823C9.14097 0.13866 9.29833 0.0676511 9.46736 0.0321467C9.76797 -0.0309304 10.0615 -0.0077014 10.3352 0.160378C10.4029 0.201926 10.4659 0.265192 10.5144 0.333934C10.6001 0.455367 10.5893 0.600218 10.4771 0.688035C10.3825 0.762254 10.2718 0.82061 10.1609 0.85347C10.0275 0.892941 9.88641 0.897851 9.74875 0.917869V0.917869Z" fill="white"/>
<path d="M7.05734 4.4718C6.85004 4.4718 6.76922 4.34545 6.82753 4.16C6.84954 4.09012 6.87944 4.01987 6.91919 3.96189C7.19976 3.55189 7.55802 3.28353 8.00992 3.19685C8.07251 3.18476 8.14134 3.19439 8.20409 3.21026C8.2923 3.23235 8.33172 3.31413 8.30002 3.4112C8.27636 3.48334 8.24318 3.55586 8.19998 3.61421C7.94323 3.9617 7.63178 4.22723 7.26629 4.40494C7.18941 4.44234 7.10448 4.45725 7.05718 4.47199L7.05734 4.4718Z" fill="white"/>
<path d="M11.7976 1.34101C12.0542 1.34101 12.3052 1.38124 12.5301 1.53308C12.6081 1.58577 12.683 1.65696 12.7389 1.73836C12.8278 1.86829 12.7977 2.01069 12.6761 2.10096C12.5429 2.20011 12.3915 2.21106 12.2413 2.19123C11.9233 2.1493 11.6262 2.02863 11.35 1.84261C11.3034 1.81126 11.2589 1.77254 11.2202 1.72911C11.1401 1.63902 11.1462 1.53383 11.2454 1.47264C11.328 1.42165 11.422 1.39389 11.5126 1.36254C11.5565 1.34743 11.6041 1.34479 11.6503 1.34158C11.6993 1.33818 11.7485 1.34082 11.7976 1.34082V1.34101Z" fill="white"/>
<path d="M7.85498 1.31663C8.02664 1.32399 8.13144 1.35591 8.26482 1.41351C8.43813 1.48848 8.44963 1.62918 8.29801 1.7542C8.05621 1.95382 7.77777 2.0541 7.48949 2.12152C7.33836 2.15684 7.18576 2.16628 7.0348 2.12114C6.9249 2.08809 6.82158 2.03011 6.79661 1.8915C6.77378 1.76383 6.8495 1.67186 6.92802 1.59575C7.08128 1.44712 7.26921 1.3865 7.46058 1.34646C7.58591 1.32021 7.68316 1.30945 7.85482 1.31663H7.85498Z" fill="white"/>
<path d="M9.16162 2.44027C9.11349 2.43592 9.06454 2.42063 9.01904 2.40098C8.9098 2.35377 8.89518 2.26841 8.98504 2.18513C9.03317 2.14056 9.08885 2.10146 9.14651 2.0771C9.57246 1.89618 10.0002 1.9009 10.4258 2.07861C10.4886 2.10486 10.5492 2.14773 10.6008 2.19683C10.6836 2.27578 10.6702 2.36151 10.5694 2.40098C10.4953 2.42988 10.416 2.45254 10.3383 2.45613C10.164 2.46425 9.98936 2.45859 9.81475 2.45859C9.81458 2.46935 9.37879 2.45972 9.16146 2.44027H9.16162Z" fill="white"/>
</g>
<defs>
<clipPath id="clip0_1555_90326">
<rect width="19.0988" height="12.754" fill="white" transform="translate(0.173828)"/>
</clipPath>
</defs>
</svg>
