<svg width="150" height="150" viewBox="0 0 150 150" fill="none" xmlns="http://www.w3.org/2000/svg">
<g clip-path="url(#clip0_1555_90560)">
<rect width="150" height="150" fill="#DDDDDD"/>
<g filter="url(#filter0_d_1555_90560)">
<rect x="35" y="35" width="80" height="80" rx="8" fill="white"/>
<g opacity="0.3">
<circle cx="1.72031" cy="1.72031" r="1.72031" transform="matrix(0.832684 0.553748 -0.832684 0.553748 75.042 67.0801)" fill="#868889"/>
<circle cx="1.72031" cy="1.72031" r="1.72031" transform="matrix(0.832684 0.553749 -0.832684 0.553749 80.4546 70.6797)" fill="#868889"/>
<circle cx="1.72031" cy="1.72031" r="1.72031" transform="matrix(0.832684 0.553748 -0.832684 0.553748 85.8672 74.2793)" fill="#868889"/>
<circle cx="1.72031" cy="1.72031" r="1.72031" transform="matrix(0.832684 0.553748 -0.832684 0.553748 91.2798 77.8789)" fill="#868889"/>
<circle cx="1.72031" cy="1.72031" r="1.72031" transform="matrix(0.832684 0.553748 -0.832684 0.553748 96.1353 81.1074)" fill="#868889"/>
<circle cx="1.72031" cy="1.72031" r="1.72031" transform="matrix(0.832684 0.553748 -0.832684 0.553748 69.7476 70.6016)" fill="#868889"/>
<circle cx="1.72031" cy="1.72031" r="1.72031" transform="matrix(0.832684 0.553748 -0.832684 0.553748 75.1602 74.2012)" fill="#868889"/>
<circle cx="1.72031" cy="1.72031" r="1.72031" transform="matrix(0.832684 0.553748 -0.832684 0.553748 80.5732 77.8008)" fill="#868889"/>
<circle cx="1.72031" cy="1.72031" r="1.72031" transform="matrix(0.832684 0.553748 -0.832684 0.553748 85.9858 81.3984)" fill="#868889"/>
<circle cx="1.72031" cy="1.72031" r="1.72031" transform="matrix(0.832684 0.553748 -0.832684 0.553748 90.8408 84.6289)" fill="#868889"/>
<circle cx="1.72031" cy="1.72031" r="1.72031" transform="matrix(0.832684 0.553748 -0.832684 0.553748 64.4531 74.1211)" fill="#868889"/>
<circle cx="1.72031" cy="1.72031" r="1.72031" transform="matrix(0.832684 0.553748 -0.832684 0.553748 69.8657 77.7207)" fill="#868889"/>
<circle cx="1.72031" cy="1.72031" r="1.72031" transform="matrix(0.832684 0.553748 -0.832684 0.553748 75.2788 81.3203)" fill="#868889"/>
<circle cx="1.72031" cy="1.72031" r="1.72031" transform="matrix(0.832684 0.553748 -0.832684 0.553748 80.6914 84.9199)" fill="#868889"/>
<circle cx="1.72031" cy="1.72031" r="1.72031" transform="matrix(0.832684 0.553748 -0.832684 0.553748 85.5464 88.1484)" fill="#868889"/>
<circle cx="1.72031" cy="1.72031" r="1.72031" transform="matrix(0.832684 0.553748 -0.832684 0.553748 59.1592 77.6426)" fill="#868889"/>
<circle cx="1.72031" cy="1.72031" r="1.72031" transform="matrix(0.832684 0.553748 -0.832684 0.553748 64.5718 81.2422)" fill="#868889"/>
<circle cx="1.72031" cy="1.72031" r="1.72031" transform="matrix(0.832684 0.553748 -0.832684 0.553748 69.9849 84.8418)" fill="#868889"/>
<circle cx="1.72031" cy="1.72031" r="1.72031" transform="matrix(0.832684 0.553748 -0.832684 0.553748 75.3975 88.4414)" fill="#868889"/>
<circle cx="1.72031" cy="1.72031" r="1.72031" transform="matrix(0.832684 0.553748 -0.832684 0.553748 80.2524 91.6699)" fill="#868889"/>
<circle cx="1.72031" cy="1.72031" r="1.72031" transform="matrix(0.832684 0.553748 -0.832684 0.553748 53.8647 81.1621)" fill="#868889"/>
<circle cx="1.72031" cy="1.72031" r="1.72031" transform="matrix(0.832684 0.553748 -0.832684 0.553748 59.2773 84.7617)" fill="#868889"/>
<circle cx="1.72031" cy="1.72031" r="1.72031" transform="matrix(0.832684 0.553748 -0.832684 0.553748 64.6904 88.3613)" fill="#868889"/>
<circle cx="1.72031" cy="1.72031" r="1.72031" transform="matrix(0.832684 0.553748 -0.832684 0.553748 70.103 91.9609)" fill="#868889"/>
<circle cx="1.72031" cy="1.72031" r="1.72031" transform="matrix(0.832684 0.553748 -0.832684 0.553748 74.958 95.1914)" fill="#868889"/>
</g>
<g clip-path="url(#clip1_1555_90560)">
<path d="M74.7126 74.2555C74.1682 74.2696 73.662 74.1186 73.209 73.7592C72.6042 73.2792 72.4343 72.4598 72.8049 71.7291C73.1854 70.9781 73.7625 70.5833 74.5226 70.596C75.362 70.6101 76.0247 71.0379 76.4938 71.8306C76.9712 72.6379 76.7438 73.5439 75.975 73.9632C75.5772 74.1803 75.1562 74.2814 74.7126 74.2555V74.2555Z" fill="#868889"/>
<path d="M68.5319 70.3303C68.1964 70.3172 67.9007 70.2673 67.6473 70.0466C67.3283 69.7688 67.2022 69.4012 67.2822 68.9538C67.4304 68.1235 67.8708 67.5034 68.4077 66.9641C68.8071 66.5629 69.2538 66.2543 69.788 66.1473C70.4298 66.019 70.9033 66.4061 70.9951 67.1485C71.0764 67.8044 70.8918 68.385 70.5705 68.9135C70.0675 69.7411 69.3961 70.2528 68.5319 70.3308V70.3303Z" fill="#868889"/>
<path d="M80.8146 70.7393C79.592 70.7171 78.4507 69.6778 78.2406 68.4214C78.1964 68.1581 78.2193 67.8621 78.2737 67.5983C78.3793 67.0884 78.8095 66.8128 79.3354 66.8609C79.7856 66.9021 80.1838 67.1151 80.5666 67.364C81.0972 67.7089 81.5664 68.1449 81.8912 68.7473C82.1175 69.1665 82.2346 69.6157 81.9811 70.0857C81.8159 70.3912 81.5617 70.5598 81.2711 70.6523C81.102 70.7058 80.9234 70.7194 80.8142 70.7393H80.8146Z" fill="#868889"/>
<path d="M73.2122 63.0916C72.8988 62.9974 72.5862 62.8074 72.3292 62.5778C71.9893 62.2746 71.9347 61.7979 72.1102 61.3438C72.3171 60.8079 72.6879 60.4655 73.1339 60.2102C74.2936 59.5466 75.9204 59.9301 76.7484 61.0668C76.777 61.106 76.8048 61.1461 76.8317 61.1878C77.3529 62.0012 77.1223 62.8069 76.2827 63.1132C75.7565 63.3052 73.6842 63.2337 73.2122 63.0916Z" fill="#868889"/>
<path d="M69.4134 78.3931C68.9912 78.3845 68.6025 78.3197 68.2425 78.1193C68.0911 78.035 67.9421 77.9303 67.8148 77.8043C67.4115 77.4041 67.376 76.8475 67.7635 76.426C67.9863 76.184 68.2607 75.9732 68.5449 75.8431C69.2498 75.5204 69.974 75.4937 70.6841 75.8495C70.826 75.9206 70.9655 76.0172 71.0822 76.1337C71.6101 76.6594 71.5782 77.371 71.02 77.8551C70.535 78.2757 69.9732 78.38 69.413 78.3936L69.4134 78.3931Z" fill="#868889"/>
<path d="M79.5393 78.0641C79.1143 78.0591 78.7027 77.9739 78.3191 77.7609C78.1736 77.6802 78.0317 77.5755 77.9126 77.4509C77.4265 76.9401 77.4573 76.2525 77.9781 75.787C78.2935 75.5051 78.6617 75.3673 79.0512 75.3251C79.7364 75.2508 80.4015 75.331 80.9944 75.7834C81.7084 76.3282 81.6981 77.1468 80.9703 77.663C80.5323 77.9739 80.0462 78.0714 79.5393 78.0646V78.0641Z" fill="#868889"/>
<path d="M64.8123 64.6309C65.0106 64.6531 65.2152 64.6585 65.4131 64.702C65.9568 64.8212 66.1515 65.1992 65.9808 65.8098C65.7963 66.4697 65.4084 66.937 64.8706 67.2298C64.2004 67.5942 63.5113 67.6431 62.8159 67.3159C62.7075 67.2647 62.6026 67.1985 62.5048 67.1237C62.051 66.7774 61.9781 66.2381 62.3112 65.7436C62.5529 65.3851 62.8853 65.1711 63.2385 65.0071C63.4979 64.8865 63.7727 64.799 64.0471 64.7333C64.2955 64.6739 64.5525 64.6635 64.8119 64.6309H64.8123Z" fill="#868889"/>
<path d="M58.8133 61.5742C59.3431 61.5919 59.845 61.7179 60.2928 62.0524C60.5613 62.2527 60.7419 62.5279 60.6891 62.9199C60.6512 63.2 60.499 63.4121 60.3086 63.5848C59.7764 64.0671 59.1523 64.2003 58.4967 64.1994C58.1127 64.199 57.7366 64.1287 57.392 63.9266C57.2249 63.8287 57.0585 63.7104 56.9225 63.5635C56.5547 63.166 56.5602 62.6597 56.9245 62.2545C57.2643 61.8761 57.6964 61.7261 58.1486 61.644C58.3678 61.6041 58.5917 61.5969 58.8133 61.5751V61.5742Z" fill="#868889"/>
<path d="M84.9603 74.5957C84.3212 74.5517 83.7319 74.4307 83.2355 73.9766C82.669 73.4576 82.7013 72.7301 83.3092 72.276C83.7035 71.9814 84.1446 71.8889 84.6055 71.8948C85.2004 71.903 85.7634 72.0466 86.2644 72.4355C86.3401 72.4944 86.4119 72.562 86.4781 72.6345C86.8791 73.0751 86.8732 73.6044 86.4572 74.0255C86.1288 74.3577 85.7228 74.4783 85.3029 74.5517C85.1799 74.573 85.0557 74.5835 84.9599 74.5952L84.9603 74.5957Z" fill="#868889"/>
<path d="M59.9368 68.9301C60.0949 68.9849 60.2439 69.1019 60.3759 69.2215C60.8609 69.6621 60.8561 70.2839 60.3724 70.7281C60.0562 71.0182 59.6837 71.1591 59.2926 71.2326C58.6996 71.3441 58.1142 71.2933 57.5619 71.0114C57.3628 70.9099 57.17 70.7612 57.0127 70.5881C56.678 70.2191 56.687 69.7278 57.0135 69.3457C57.3608 68.9391 57.8098 68.7837 58.2829 68.7012C58.4442 68.6731 58.521 68.6164 58.9255 68.6663C59.33 68.7161 59.5575 68.7991 59.9364 68.9305L59.9368 68.9301Z" fill="#868889"/>
<path d="M64.1171 74.8462C63.6795 74.843 63.2498 74.7777 62.8587 74.5439C62.6703 74.431 62.4842 74.2855 62.3391 74.1097C62.0517 73.7616 62.0667 73.3038 62.3494 72.9493C62.6514 72.5709 63.0468 72.3977 63.4734 72.3062C64.1097 72.1698 64.74 72.1861 65.3491 72.463C65.4934 72.5287 65.6362 72.6203 65.7544 72.7345C66.1755 73.1402 66.1905 73.7611 65.7899 74.1958C65.4327 74.5833 64.992 74.7628 64.5102 74.8208C64.3797 74.8367 64.248 74.838 64.1171 74.8462V74.8462Z" fill="#868889"/>
<path d="M90.0523 71.1616C89.4901 71.1235 88.9693 71.0324 88.5128 70.6784C88.2834 70.5003 88.0969 70.2764 88.0587 69.9478C88.0137 69.5611 88.1939 69.2865 88.4434 69.0644C88.7513 68.7906 89.1113 68.6524 89.4893 68.5803C90.089 68.4656 90.6803 68.5164 91.2374 68.8056C91.4412 68.9112 91.6372 69.0694 91.7964 69.2502C92.0992 69.5947 92.0929 70.0638 91.8055 70.4255C91.4546 70.867 90.9867 71.026 90.4935 71.1113C90.3385 71.138 90.1812 71.1475 90.0523 71.1616Z" fill="#868889"/>
<path d="M74.2995 81.6082C73.8465 81.6254 73.4124 81.5297 73.0052 81.3008C72.6444 81.0978 72.3184 80.8236 72.3121 80.32C72.3058 79.8146 72.6232 79.5205 72.9866 79.3265C73.8571 78.8619 74.7363 78.8778 75.6087 79.3297C75.7093 79.3818 75.8039 79.4552 75.891 79.5332C76.4106 79.9996 76.4039 80.6418 75.8784 81.0978C75.4991 81.4269 74.9389 81.6077 74.2995 81.6077V81.6082Z" fill="#868889"/>
<path d="M95.2511 65.0293C95.8141 65.0592 96.3223 65.1512 96.7709 65.4866C97.0564 65.7001 97.2716 65.9643 97.2531 66.4017C97.2413 66.6741 97.1269 66.8708 96.9633 67.0422C96.6306 67.3907 96.219 67.5435 95.7881 67.616C95.2578 67.7048 94.7264 67.6808 94.2234 67.4478C94.0022 67.3454 93.781 67.209 93.6001 67.0336C93.192 66.6379 93.1972 66.0808 93.5918 65.6657C93.9281 65.3121 94.3448 65.1621 94.784 65.0832C94.9515 65.0533 95.1218 65.0438 95.2511 65.0293Z" fill="#868889"/>
<path d="M53.4307 67.7239C52.8618 67.6971 52.3477 67.6033 51.8939 67.2629C51.6085 67.0485 51.3972 66.7802 51.4185 66.3437C51.4319 66.0713 51.5494 65.8764 51.7134 65.706C52.0418 65.3647 52.4466 65.2147 52.8708 65.1394C53.422 65.0415 53.97 65.0819 54.4924 65.3207C54.6844 65.4087 54.8728 65.5301 55.0336 65.6788C55.4902 66.1008 55.4835 66.7086 55.0305 67.1387C54.697 67.4555 54.2996 67.5983 53.8801 67.6713C53.7189 67.6994 53.5552 67.7098 53.4311 67.7239H53.4307Z" fill="#868889"/>
<path d="M90.4297 61.8422C90.9016 61.8481 91.3243 61.9098 91.7126 62.1341C91.8801 62.2311 92.0465 62.3499 92.1825 62.4967C92.5586 62.9024 92.5421 63.4377 92.1553 63.8388C91.8533 64.1515 91.4859 64.3038 91.0936 64.3886C90.4664 64.5246 89.8514 64.4856 89.2679 64.1733C89.0814 64.0736 88.9009 63.9308 88.7538 63.7654C88.3631 63.3262 88.3966 62.7932 88.8244 62.4029C89.1851 62.0739 89.6113 61.9329 90.0595 61.8685C90.196 61.849 90.3343 61.8486 90.4301 61.8418L90.4297 61.8422Z" fill="#868889"/>
<path d="M85.5368 67.6772C84.906 67.6319 84.2523 67.4356 83.7383 66.8337C83.5593 66.6239 83.439 66.3732 83.4071 66.08C83.3511 65.5637 83.5841 65.188 84.0671 65.0031C84.6269 64.7887 85.182 64.8748 85.7304 65.0593C86.1171 65.1893 86.4755 65.3924 86.7802 65.7024C86.863 65.7867 86.9411 65.881 87.0069 65.983C87.3243 66.4752 87.2304 67.0123 86.7778 67.3391C86.4203 67.5974 86.0237 67.6695 85.5368 67.6772V67.6772Z" fill="#868889"/>
<path d="M64.4497 57.7907C64.8463 57.7834 65.2351 57.8387 65.6029 58.0182C66.171 58.2951 66.2613 58.7901 65.8386 59.3109C65.5071 59.7192 65.0888 59.9631 64.6279 60.1131C63.9983 60.318 63.3632 60.3733 62.7364 60.1108C62.568 60.0406 62.4013 59.9286 62.268 59.7917C61.9518 59.4668 61.9439 59.038 62.2239 58.6709C62.4604 58.3613 62.7707 58.1764 63.0999 58.0454C63.5351 57.8722 63.9857 57.7752 64.4501 57.7907H64.4497Z" fill="#868889"/>
<path d="M85.4972 60.5133C84.7926 60.4961 84.1347 60.3075 83.5871 59.7709C83.4365 59.6236 83.3068 59.4287 83.2125 59.2279C83.0446 58.8698 83.1207 58.5317 83.4321 58.3395C83.6635 58.1968 83.9269 58.0889 84.1859 58.0458C84.961 57.9167 85.7144 58.0195 86.409 58.4683C86.5608 58.5662 86.7075 58.6922 86.8265 58.8377C87.2007 59.2959 87.1202 59.8656 86.6479 60.187C86.2935 60.4281 85.9044 60.5079 85.4972 60.5133V60.5133Z" fill="#868889"/>
<path d="M79.6869 59.196C80.4087 59.5056 81.0537 59.9679 81.5709 60.6287C81.755 60.864 81.9124 61.1495 82.0125 61.4437C82.171 61.9105 81.9455 62.2441 81.5071 62.2641C81.1751 62.279 80.8712 62.1575 80.5857 61.984C79.789 61.4985 79.1002 60.8563 78.5258 60.0563C78.443 59.9407 78.3689 59.8133 78.3082 59.681C78.119 59.2685 78.266 58.9848 78.6733 58.9649C78.7127 58.9631 79.4014 59.0736 79.6869 59.196V59.196Z" fill="#868889"/>
<path d="M74.397 53.2029C73.8853 53.1757 73.385 53.1222 72.9151 52.8761C72.8378 52.8358 72.7629 52.7868 72.6935 52.7306C72.3343 52.4392 72.3056 52.0045 72.6304 51.6596C72.9383 51.3328 73.316 51.1624 73.7217 51.0772C74.4431 50.9258 75.1476 50.9815 75.8044 51.3849C75.9669 51.4846 76.1183 51.6365 76.2346 51.8014C76.4403 52.0929 76.4143 52.4405 76.1451 52.6513C75.918 52.8294 75.6523 52.9695 75.3862 53.0483C75.066 53.1431 74.7274 53.1548 74.397 53.2029V53.2029Z" fill="#868889"/>
<path d="M67.9371 61.7331C67.4396 61.7331 67.2456 61.4299 67.3856 60.9848C67.4384 60.8171 67.5102 60.6485 67.6056 60.5093C68.2789 59.5253 69.1388 58.8813 70.2233 58.6732C70.3735 58.6442 70.5387 58.6673 70.6893 58.7054C70.901 58.7584 70.9956 58.9547 70.9196 59.1877C70.8628 59.3608 70.7831 59.5348 70.6795 59.6749C70.0633 60.5089 69.3158 61.1461 68.4386 61.5726C68.2541 61.6624 68.0503 61.6982 67.9367 61.7335L67.9371 61.7331Z" fill="#868889"/>
<path d="M79.3142 54.2216C79.93 54.2216 80.5324 54.3181 81.0721 54.6825C81.2593 54.809 81.4391 54.9798 81.5732 55.1752C81.7864 55.487 81.7143 55.8288 81.4226 56.0454C81.1028 56.2834 80.7393 56.3097 80.379 56.2621C79.6158 56.1615 78.9026 55.8718 78.2399 55.4254C78.1279 55.3501 78.021 55.2572 77.9284 55.153C77.736 54.9368 77.7506 54.6843 77.9887 54.5375C78.187 54.4151 78.4125 54.3485 78.6302 54.2732C78.7354 54.237 78.8497 54.2306 78.9605 54.2229C79.078 54.2148 79.1963 54.2211 79.3142 54.2211V54.2216Z" fill="#868889"/>
<path d="M69.8518 54.1595C70.2637 54.1772 70.5153 54.2538 70.8354 54.392C71.2513 54.572 71.2789 54.9096 70.915 55.2097C70.3347 55.6888 69.6665 55.9294 68.9746 56.0913C68.6119 56.176 68.2456 56.1987 67.8833 56.0903C67.6196 56.011 67.3716 55.8719 67.3117 55.5392C67.2569 55.2328 67.4386 55.0121 67.6271 54.8294C67.9949 54.4727 68.4459 54.3272 68.9052 54.2311C69.206 54.1681 69.4394 54.1423 69.8514 54.1595H69.8518Z" fill="#868889"/>
<path d="M72.9882 56.8586C72.8727 56.8482 72.7552 56.8115 72.646 56.7643C72.3838 56.651 72.3487 56.4461 72.5644 56.2463C72.6799 56.1393 72.8135 56.0455 72.9519 55.987C73.9742 55.5528 75.0008 55.5641 76.0223 55.9906C76.1729 56.0536 76.3183 56.1565 76.4421 56.2744C76.6408 56.4638 76.6089 56.6696 76.3668 56.7643C76.189 56.8337 75.9986 56.8881 75.8121 56.8967C75.3938 56.9162 74.9748 56.9026 74.5557 56.9026C74.5553 56.9284 73.5094 56.9053 72.9878 56.8586H72.9882Z" fill="#868889"/>
</g>
</g>
</g>
<defs>
<filter id="filter0_d_1555_90560" x="27" y="31" width="96" height="96" filterUnits="userSpaceOnUse" color-interpolation-filters="sRGB">
<feFlood flood-opacity="0" result="BackgroundImageFix"/>
<feColorMatrix in="SourceAlpha" type="matrix" values="0 0 0 0 0 0 0 0 0 0 0 0 0 0 0 0 0 0 127 0" result="hardAlpha"/>
<feOffset dy="4"/>
<feGaussianBlur stdDeviation="4"/>
<feColorMatrix type="matrix" values="0 0 0 0 0.196078 0 0 0 0 0.196078 0 0 0 0 0.196078 0 0 0 0.1 0"/>
<feBlend mode="multiply" in2="BackgroundImageFix" result="effect1_dropShadow_1555_90560"/>
<feBlend mode="normal" in="SourceGraphic" in2="effect1_dropShadow_1555_90560" result="shape"/>
</filter>
<clipPath id="clip0_1555_90560">
<rect width="150" height="150" fill="white"/>
</clipPath>
<clipPath id="clip1_1555_90560">
<rect width="45.8371" height="30.6097" fill="white" transform="translate(51.417 51)"/>
</clipPath>
</defs>
</svg>
