<svg width="24" height="24" viewBox="0 0 24 24" fill="none" xmlns="http://www.w3.org/2000/svg">
<g clip-path="url(#clip0_397_94649)">
<ellipse rx="1.76717" ry="1.7671" transform="matrix(0.959076 -0.28315 0.283175 0.959068 2.19525 9.2315)" fill="#3B3B3B"/>
<ellipse rx="1.76717" ry="1.7671" transform="matrix(0.959076 -0.28315 0.283175 0.959068 10.4037 9.36236)" fill="#3B3B3B"/>
<ellipse rx="1.76717" ry="1.7671" transform="matrix(0.959076 -0.28315 0.283175 0.959068 13.4018 2.19537)" fill="#3B3B3B"/>
<ellipse rx="1.76717" ry="1.7671" transform="matrix(0.959076 -0.28315 0.283175 0.959068 6.16595 16.5919)" fill="#3B3B3B"/>
<ellipse rx="1.76717" ry="1.7671" transform="matrix(0.959076 -0.28315 0.283175 0.959068 14.5058 14.5069)" fill="#3B3B3B"/>
<ellipse rx="1.76717" ry="1.7671" transform="matrix(0.959076 -0.28315 0.283175 0.959068 18.6779 7.20904)" fill="#3B3B3B"/>
<ellipse rx="1.76717" ry="1.7671" transform="matrix(0.959076 -0.28315 0.283175 0.959068 13.465 21.8047)" fill="#3B3B3B"/>
<ellipse rx="1.76717" ry="1.7671" transform="matrix(0.959076 -0.28315 0.283175 0.959068 21.8049 15.5499)" fill="#3B3B3B"/>
</g>
<defs>
<clipPath id="clip0_397_94649">
<rect width="24" height="24" fill="white"/>
</clipPath>
</defs>
</svg>
