<svg width="24" height="24" viewBox="0 0 24 24" fill="none" xmlns="http://www.w3.org/2000/svg">
<g clip-path="url(#clip0_397_94650)">
<path opacity="0.4" d="M1.90649 8.54465L10.969 1.92773L13.2941 10.9576L21.5413 17.17C16.8842 18.6569 7.52422 21.716 7.34105 22.0575C7.15787 22.3991 3.64169 13.1912 1.90649 8.54465Z" fill="#3B3B3B"/>
<path fill-rule="evenodd" clip-rule="evenodd" d="M11.1714 1.36232C11.3586 1.42941 11.5004 1.58493 11.55 1.77754L13.8228 10.6041L21.9022 16.6902C22.0814 16.8252 22.1703 17.0488 22.1327 17.2699C22.0952 17.4911 21.9374 17.6728 21.7237 17.741C19.3969 18.4839 15.896 19.6193 12.9551 20.6112C11.484 21.1074 10.1573 21.5663 9.18879 21.9216C8.70339 22.0996 8.31521 22.2491 8.04601 22.3627C7.90995 22.4201 7.81504 22.4638 7.75661 22.4943C7.75394 22.4957 7.75144 22.497 7.7491 22.4982C7.67328 22.5705 7.56752 22.6352 7.42638 22.6582C7.21429 22.6927 7.05665 22.608 6.99625 22.5702C6.87946 22.4972 6.80719 22.3979 6.78451 22.3667L6.78365 22.3655C6.71807 22.2753 6.65234 22.156 6.59222 22.0388C6.46544 21.7917 6.29969 21.4264 6.10755 20.9805C5.72114 20.0836 5.20739 18.8122 4.64748 17.391C3.52683 14.5463 2.21261 11.079 1.34436 8.75397C1.25025 8.50196 1.33537 8.21812 1.55263 8.05949L10.6152 1.44257C10.7758 1.32529 10.9841 1.29523 11.1714 1.36232ZM2.62785 8.76025C3.49083 11.0652 4.7134 14.2843 5.76397 16.9511C6.32291 18.3699 6.831 19.6269 7.20961 20.5057C7.34279 20.8148 7.45747 21.0712 7.5511 21.2691C7.56048 21.2651 7.56994 21.2611 7.57946 21.2571C7.87539 21.1322 8.28489 20.975 8.77551 20.795C9.75908 20.4342 11.0977 19.9713 12.5716 19.4742C15.0852 18.6263 18.0045 17.6748 20.2547 16.9516L12.9331 11.4362C12.8245 11.3545 12.7469 11.2382 12.713 11.1066L10.6085 2.93328L2.62785 8.76025Z" fill="#3B3B3B"/>
<path d="M13.2658 3.19572C12.7033 4.24455 11.4092 4.63217 10.3754 4.06149C9.34157 3.49082 8.9595 2.17794 9.52201 1.1291C10.0845 0.0802692 11.3786 -0.307353 12.4124 0.263326C13.4462 0.834006 13.8283 2.14688 13.2658 3.19572Z" fill="#3B3B3B"/>
<path d="M15.8266 11.9926C15.2641 13.0414 13.97 13.429 12.9362 12.8584C11.9024 12.2877 11.5203 10.9748 12.0828 9.92598C12.6453 8.87714 13.9394 8.48952 14.9732 9.0602C16.007 9.63088 16.3891 10.9438 15.8266 11.9926Z" fill="#3B3B3B"/>
<path d="M23.7404 17.5922C23.1779 18.641 21.8838 19.0287 20.85 18.458C19.8162 17.8873 19.4341 16.5744 19.9966 15.5256C20.5591 14.4768 21.8532 14.0891 22.887 14.6598C23.9208 15.2305 24.3029 16.5434 23.7404 17.5922Z" fill="#3B3B3B"/>
<path d="M8.77995 22.8705C8.21744 23.9194 6.92336 24.307 5.88955 23.7363C4.85573 23.1656 4.47366 21.8527 5.03617 20.8039C5.59867 19.7551 6.89275 19.3675 7.92657 19.9381C8.96038 20.5088 9.34245 21.8217 8.77995 22.8705Z" fill="#3B3B3B"/>
<path d="M4.00334 9.15861C3.44083 10.2074 2.14675 10.5951 1.11294 10.0244C0.0791198 9.45371 -0.302952 8.14083 0.259556 7.092C0.822063 6.04316 2.11614 5.65554 3.14996 6.22622C4.18377 6.7969 4.56584 8.10977 4.00334 9.15861Z" fill="#3B3B3B"/>
</g>
<defs>
<clipPath id="clip0_397_94650">
<rect width="24" height="24" fill="white"/>
</clipPath>
</defs>
</svg>
