<svg width="24" height="24" viewBox="0 0 24 24" fill="none" xmlns="http://www.w3.org/2000/svg">
<path d="M3 7.8C3 6.11984 3 5.27976 3.32698 4.63803C3.6146 4.07354 4.07354 3.6146 4.63803 3.32698C5.27976 3 6.11984 3 7.8 3H16.2C17.8802 3 18.7202 3 19.362 3.32698C19.9265 3.6146 20.3854 4.07354 20.673 4.63803C21 5.27976 21 6.11984 21 7.8V16.2C21 17.8802 21 18.7202 20.673 19.362C20.3854 19.9265 19.9265 20.3854 19.362 20.673C18.7202 21 17.8802 21 16.2 21H7.8C6.11984 21 5.27976 21 4.63803 20.673C4.07354 20.3854 3.6146 19.9265 3.32698 19.362C3 18.7202 3 17.8802 3 16.2V7.8Z" fill="#009541" fill-opacity="0.25"/>
<path fill-rule="evenodd" clip-rule="evenodd" d="M18.3163 5.05134C18.8402 5.22599 19.1234 5.79231 18.9487 6.31625L16.972 12.2463C16.2668 14.362 13.5816 14.9958 12.0047 13.4189L10.5812 11.9954C10.0555 11.4697 9.16045 11.681 8.92538 12.3863L6.94871 18.3163C6.77406 18.8402 6.20774 19.1234 5.6838 18.9487C5.15986 18.7741 4.8767 18.2077 5.05134 17.6838L7.02801 11.7538C7.73324 9.6381 10.4184 9.00422 11.9954 10.5812L13.4189 12.0047C13.9445 12.5303 14.8396 12.319 15.0747 11.6138L17.0513 5.6838C17.226 5.15986 17.7923 4.8767 18.3163 5.05134Z" fill="#00863A"/>
</svg>
