<svg width="20" height="20" viewBox="0 0 20 20" fill="none" xmlns="http://www.w3.org/2000/svg">
<path d="M10 3.05566C12.4546 3.05566 14.4444 5.04551 14.4444 7.50011L14.4447 9.37745C14.7796 9.60172 15 9.9835 15 10.4168V15.6946C15 16.3849 14.4404 16.9446 13.75 16.9446H6.25C5.55964 16.9446 5 16.3849 5 15.6946V10.4168C5 9.9835 5.22044 9.60172 5.55528 9.37745L5.55556 7.50011C5.55556 5.04551 7.5454 3.05566 10 3.05566ZM10 4.72233C8.46588 4.72233 7.22222 5.96598 7.22222 7.50011L7.22125 9.16567H12.7775L12.7778 7.50011C12.7778 5.96598 11.5341 4.72233 10 4.72233Z" fill="#868889"/>
</svg>
