<svg width="24" height="24" viewBox="0 0 24 24" fill="none" xmlns="http://www.w3.org/2000/svg">
<path d="M9.43247 13.8521L4.49522 12.5652C2.61569 12.0753 2.46722 9.46394 4.27911 8.76416L18.9277 3.10671C20.1582 2.63147 21.3685 3.84175 20.8932 5.07225L15.2358 19.7208C14.536 21.5327 11.9247 21.3842 11.4348 19.5047L10.1479 14.5675C10.0566 14.2171 9.78292 13.9434 9.43247 13.8521Z" fill="#009541" fill-opacity="0.25"/>
<path fill-rule="evenodd" clip-rule="evenodd" d="M9.88745 14.1127L20.5502 3.44995C20.9472 3.84693 21.1309 4.45711 20.8933 5.07235L15.2359 19.7209C14.5361 21.5328 11.9247 21.3843 11.4349 19.5048L10.148 14.5676C10.1023 14.3924 10.0111 14.2364 9.88745 14.1127Z" fill="#00863A"/>
</svg>
