<svg width="24" height="24" viewBox="0 0 24 24" fill="none" xmlns="http://www.w3.org/2000/svg">
<path fill-rule="evenodd" clip-rule="evenodd" d="M16.8385 5H7.16146H7.16142C6.63429 4.99998 6.17954 4.99997 5.80497 5.03057C5.40963 5.06287 5.01641 5.13419 4.63803 5.32698C4.07354 5.6146 3.6146 6.07354 3.32698 6.63803C3.13419 7.01641 3.06287 7.40963 3.03057 7.80497C2.99997 8.17954 2.99998 8.63429 3 9.16142V9.16146V16.8385V16.8386C2.99998 17.3657 2.99997 17.8205 3.03057 18.195C3.06287 18.5904 3.13419 18.9836 3.32698 19.362C3.6146 19.9265 4.07354 20.3854 4.63803 20.673C5.01641 20.8658 5.40963 20.9371 5.80497 20.9694C6.17952 21 6.63425 21 7.16136 21H7.16148H16.8385H16.8386C17.3658 21 17.8205 21 18.195 20.9694C18.5904 20.9371 18.9836 20.8658 19.362 20.673C19.9265 20.3854 20.3854 19.9265 20.673 19.362C20.8658 18.9836 20.9371 18.5904 20.9694 18.195C21 17.8205 21 17.3657 21 16.8386V9.16144C21 8.6343 21 8.17954 20.9694 7.80497C20.9371 7.40963 20.8658 7.01641 20.673 6.63803C20.3854 6.07354 19.9265 5.6146 19.362 5.32698C18.9836 5.13419 18.5904 5.06287 18.195 5.03057C17.8205 4.99997 17.3657 4.99998 16.8386 5H16.8385Z" fill="#009541" fill-opacity="0.25"/>
<path fill-rule="evenodd" clip-rule="evenodd" d="M22.7071 16.2929C23.0976 16.6834 23.0976 17.3166 22.7071 17.7071L18.7071 21.7071C18.3166 22.0976 17.6834 22.0976 17.2929 21.7071L15.2929 19.7071C14.9024 19.3166 14.9024 18.6834 15.2929 18.2929C15.6834 17.9024 16.3166 17.9024 16.7071 18.2929L18 19.5858L21.2929 16.2929C21.6834 15.9024 22.3166 15.9024 22.7071 16.2929Z" fill="#00863A"/>
<path d="M9 4C9 3.44772 8.55228 3 8 3C7.44772 3 7 3.44772 7 4V6C7 6.55228 7.44772 7 8 7C8.55228 7 9 6.55228 9 6V4Z" fill="#00863A"/>
<path d="M17 4C17 3.44772 16.5523 3 16 3C15.4477 3 15 3.44772 15 4V6C15 6.55228 15.4477 7 16 7C16.5523 7 17 6.55228 17 6V4Z" fill="#00863A"/>
</svg>
