<svg width="150" height="150" viewBox="0 0 150 150" fill="none" xmlns="http://www.w3.org/2000/svg">
<g clip-path="url(#clip0_1555_90681)">
<rect width="150" height="150" fill="#DDDDDD"/>
<g filter="url(#filter0_d_1555_90681)">
<rect x="35" y="35" width="80" height="80" rx="8" fill="white"/>
<path d="M79.3832 76.0588H78.1981C77.4213 76.0588 76.6931 75.8526 76.0658 75.4922V85.0588C76.0658 86.2284 77.0205 87.1765 78.1981 87.1765H79.3832C79.868 85.0546 81.7787 83.4706 84.062 83.4706C86.7116 83.4706 88.8596 85.6038 88.8596 88.2353C88.8596 90.8668 86.7116 93 84.062 93C81.7787 93 79.868 91.416 79.3832 89.2941H78.1981C75.8428 89.2941 73.9335 87.3979 73.9335 85.0588V64.9412C73.9335 63.7716 72.9788 62.8235 71.8012 62.8235H70.6161C70.1313 64.9454 68.2206 66.5294 65.9373 66.5294C63.2876 66.5294 61.1396 64.3962 61.1396 61.7647C61.1396 59.1332 63.2876 57 65.9373 57C68.2206 57 70.1313 58.584 70.6161 60.7059H71.8012C74.1565 60.7059 76.0658 62.6021 76.0658 64.9412V71.8235C76.0658 72.9931 77.0205 73.9412 78.1981 73.9412H79.3832C79.868 71.8193 81.7787 70.2353 84.062 70.2353C86.7116 70.2353 88.8596 72.3685 88.8596 75C88.8596 77.6315 86.7116 79.7647 84.062 79.7647C81.7787 79.7647 79.868 78.1807 79.3832 76.0588ZM65.9373 64.4118C67.4094 64.4118 68.6027 63.2266 68.6027 61.7647C68.6027 60.3028 67.4094 59.1176 65.9373 59.1176C64.4653 59.1176 63.272 60.3028 63.272 61.7647C63.272 63.2266 64.4653 64.4118 65.9373 64.4118ZM84.062 90.8824C85.534 90.8824 86.7273 89.6972 86.7273 88.2353C86.7273 86.7734 85.534 85.5882 84.062 85.5882C82.5899 85.5882 81.3966 86.7734 81.3966 88.2353C81.3966 89.6972 82.5899 90.8824 84.062 90.8824ZM84.062 77.6471C85.534 77.6471 86.7273 76.4619 86.7273 75C86.7273 73.5381 85.534 72.3529 84.062 72.3529C82.5899 72.3529 81.3966 73.5381 81.3966 75C81.3966 76.4619 82.5899 77.6471 84.062 77.6471Z" fill="#868889"/>
</g>
</g>
<defs>
<filter id="filter0_d_1555_90681" x="27" y="31" width="96" height="96" filterUnits="userSpaceOnUse" color-interpolation-filters="sRGB">
<feFlood flood-opacity="0" result="BackgroundImageFix"/>
<feColorMatrix in="SourceAlpha" type="matrix" values="0 0 0 0 0 0 0 0 0 0 0 0 0 0 0 0 0 0 127 0" result="hardAlpha"/>
<feOffset dy="4"/>
<feGaussianBlur stdDeviation="4"/>
<feColorMatrix type="matrix" values="0 0 0 0 0.196078 0 0 0 0 0.196078 0 0 0 0 0.196078 0 0 0 0.1 0"/>
<feBlend mode="multiply" in2="BackgroundImageFix" result="effect1_dropShadow_1555_90681"/>
<feBlend mode="normal" in="SourceGraphic" in2="effect1_dropShadow_1555_90681" result="shape"/>
</filter>
<clipPath id="clip0_1555_90681">
<rect width="150" height="150" fill="white"/>
</clipPath>
</defs>
</svg>
