<svg width="20" height="20" viewBox="0 0 20 20" fill="none" xmlns="http://www.w3.org/2000/svg">
<g clip-path="url(#clip0_397_94451)">
<path d="M12.4351 10.5882H11.7767C11.3452 10.5882 10.9406 10.4737 10.5921 10.2735V15.5882C10.5921 16.238 11.1225 16.7647 11.7767 16.7647H12.4351C12.7044 15.5859 13.7659 14.7059 15.0344 14.7059C16.5065 14.7059 17.6998 15.891 17.6998 17.3529C17.6998 18.8149 16.5065 20 15.0344 20C13.7659 20 12.7044 19.12 12.4351 17.9412H11.7767C10.4682 17.9412 9.4075 16.8877 9.4075 15.5882V4.41176C9.4075 3.76202 8.87713 3.23529 8.22288 3.23529H7.56452C7.29519 4.41411 6.23367 5.29412 4.96519 5.29412C3.49314 5.29412 2.2998 4.10899 2.2998 2.64706C2.2998 1.18513 3.49314 0 4.96519 0C6.23367 0 7.29519 0.880007 7.56452 2.05882H8.22288C9.53137 2.05882 10.5921 3.11227 10.5921 4.41176V8.23529C10.5921 8.88504 11.1225 9.41177 11.7767 9.41177H12.4351C12.7044 8.23295 13.7659 7.35294 15.0344 7.35294C16.5065 7.35294 17.6998 8.53807 17.6998 10C17.6998 11.4619 16.5065 12.6471 15.0344 12.6471C13.7659 12.6471 12.7044 11.7671 12.4351 10.5882ZM4.96519 4.11765C5.783 4.11765 6.44596 3.45924 6.44596 2.64706C6.44596 1.83488 5.783 1.17647 4.96519 1.17647C4.14738 1.17647 3.48442 1.83488 3.48442 2.64706C3.48442 3.45924 4.14738 4.11765 4.96519 4.11765ZM15.0344 18.8235C15.8522 18.8235 16.5152 18.1651 16.5152 17.3529C16.5152 16.5408 15.8522 15.8824 15.0344 15.8824C14.2166 15.8824 13.5537 16.5408 13.5537 17.3529C13.5537 18.1651 14.2166 18.8235 15.0344 18.8235ZM15.0344 11.4706C15.8522 11.4706 16.5152 10.8122 16.5152 10C16.5152 9.18782 15.8522 8.52941 15.0344 8.52941C14.2166 8.52941 13.5537 9.18782 13.5537 10C13.5537 10.8122 14.2166 11.4706 15.0344 11.4706Z" fill="white"/>
</g>
<defs>
<clipPath id="clip0_397_94451">
<rect width="20" height="20" fill="white"/>
</clipPath>
</defs>
</svg>
