<svg width="24" height="24" viewBox="0 0 24 24" fill="none" xmlns="http://www.w3.org/2000/svg">
<g clip-path="url(#clip0_397_94643)">
<path d="M14.9221 12.7059H14.1321C13.6142 12.7059 13.1287 12.5684 12.7105 12.3281V18.7059C12.7105 19.4856 13.347 20.1176 14.1321 20.1176H14.9221C15.2453 18.7031 16.5191 17.6471 18.0413 17.6471C19.8078 17.6471 21.2398 19.0692 21.2398 20.8235C21.2398 22.5778 19.8078 24 18.0413 24C16.5191 24 15.2453 22.944 14.9221 21.5294H14.1321C12.5619 21.5294 11.289 20.2653 11.289 18.7059V5.29412C11.289 4.51442 10.6526 3.88235 9.86746 3.88235H9.07743C8.75422 5.29693 7.4804 6.35294 5.95823 6.35294C4.19177 6.35294 2.75977 4.93079 2.75977 3.17647C2.75977 1.42215 4.19177 0 5.95823 0C7.4804 0 8.75422 1.05601 9.07743 2.47059H9.86746C11.4376 2.47059 12.7105 3.73473 12.7105 5.29412V9.88235C12.7105 10.662 13.347 11.2941 14.1321 11.2941H14.9221C15.2453 9.87954 16.5191 8.82353 18.0413 8.82353C19.8078 8.82353 21.2398 10.2457 21.2398 12C21.2398 13.7543 19.8078 15.1765 18.0413 15.1765C16.5191 15.1765 15.2453 14.1205 14.9221 12.7059ZM5.95823 4.94118C6.93959 4.94118 7.73515 4.15109 7.73515 3.17647C7.73515 2.20185 6.93959 1.41176 5.95823 1.41176C4.97686 1.41176 4.1813 2.20185 4.1813 3.17647C4.1813 4.15109 4.97686 4.94118 5.95823 4.94118ZM18.0413 22.5882C19.0227 22.5882 19.8182 21.7982 19.8182 20.8235C19.8182 19.8489 19.0227 19.0588 18.0413 19.0588C17.0599 19.0588 16.2644 19.8489 16.2644 20.8235C16.2644 21.7982 17.0599 22.5882 18.0413 22.5882ZM18.0413 13.7647C19.0227 13.7647 19.8182 12.9746 19.8182 12C19.8182 11.0254 19.0227 10.2353 18.0413 10.2353C17.0599 10.2353 16.2644 11.0254 16.2644 12C16.2644 12.9746 17.0599 13.7647 18.0413 13.7647Z" fill="#3B3B3B"/>
</g>
<defs>
<clipPath id="clip0_397_94643">
<rect width="24" height="24" fill="white"/>
</clipPath>
</defs>
</svg>
