<svg width="21" height="24" viewBox="0 0 21 24" fill="none" xmlns="http://www.w3.org/2000/svg">
<g clip-path="url(#clip0_1555_90679)">
<path fill-rule="evenodd" clip-rule="evenodd" d="M1.77069e-05 4.28571C1.77069e-05 1.91882 1.89424 0 4.23078 0H17.7692C19.1712 0 20.3077 1.15122 20.3077 2.57142V21.4285C20.3077 21.9018 19.9288 22.2857 19.4615 22.2857H16.923C16.4558 22.2857 16.077 21.9018 16.077 21.4285C16.077 20.9551 16.4558 20.5714 16.923 20.5714H18.6154V15.4285H4.23078C3.15385 15.4285 2.23343 16.108 1.86474 17.0667C1.8009 17.2608 1.75974 17.4464 1.73367 17.6052C1.71214 17.7357 1.70175 17.8427 1.69684 17.9137C1.6942 17.949 1.69306 17.9751 1.69268 17.99L1.6923 18.0036C1.6942 19.4221 2.83007 20.5714 4.23077 20.5714H5.07692C5.54419 20.5714 5.92307 20.9551 5.92307 21.4285C5.92307 21.9018 5.54419 22.2857 5.07692 22.2857H4.23077C1.89422 22.2857 0 20.3669 0 17.9999L1.77069e-05 4.28571ZM18.6154 2.57142V13.7142H4.23078C3.23658 13.7142 2.43462 13.9686 1.80469 14.3938C1.76635 14.4197 1.72895 14.4461 1.69231 14.4728V4.28562C1.69231 2.86542 2.82877 1.7142 4.23078 1.7142H17.7692C18.2365 1.7142 18.6154 2.09808 18.6154 2.57142ZM8.46155 17.1428C7.99427 17.1428 7.61539 17.5266 7.61539 18V23.1428C7.61539 23.4589 7.78709 23.7493 8.06227 23.8986C8.33746 24.0478 8.67121 24.0313 8.93091 23.8561L11 22.4588L13.0691 23.8561C13.3289 24.0313 13.6626 24.0478 13.9377 23.8986C14.213 23.7493 14.3847 23.4589 14.3847 23.1428V18C14.3847 17.5266 14.0058 17.1428 13.5385 17.1428H8.46155ZM9.30766 21.5412V18.8571H12.6923V21.5412L11.4693 20.7153C11.1851 20.5234 10.815 20.5234 10.5306 20.7153L9.30766 21.5412Z" fill="black"/>
</g>
<defs>
<clipPath id="clip0_1555_90679">
<rect width="20.3077" height="24" fill="white"/>
</clipPath>
</defs>
</svg>
