<svg width="24" height="24" viewBox="0 0 24 24" fill="none" xmlns="http://www.w3.org/2000/svg">
<g clip-path="url(#clip0_397_94646)">
<path d="M3.76705 1.09141C3.63143 1.10387 3.5055 1.16538 3.41402 1.26386C3.32255 1.36233 3.27214 1.49064 3.27273 1.62354V3.75208H2.72728C2.71024 3.7513 2.69318 3.7513 2.67614 3.75208C2.54052 3.76455 2.41459 3.82607 2.32311 3.92455C2.23164 4.02302 2.18124 4.15132 2.18182 4.28421V6.41277H1.63637C1.61933 6.41199 1.60227 6.41199 1.58523 6.41277C1.44961 6.42524 1.32368 6.48676 1.2322 6.58523C1.14073 6.68371 1.09033 6.81201 1.09091 6.9449V9.07344H0.54546C0.528423 9.07266 0.511359 9.07266 0.494323 9.07344C0.358702 9.08591 0.23277 9.14743 0.141294 9.24591C0.0498175 9.34438 -0.000582573 9.47269 5.08161e-06 9.60559V22.3769C1.56332e-05 22.518 0.0574859 22.6533 0.159776 22.7531C0.262066 22.8529 0.400798 22.909 0.54546 22.909H23.4545C23.5992 22.909 23.7379 22.8529 23.8402 22.7531C23.9425 22.6533 24 22.518 24 22.3769V9.60559C24 9.46446 23.9425 9.32912 23.8402 9.22933C23.7379 9.12953 23.5992 9.07345 23.4545 9.07344H22.9091V6.9449C22.9091 6.80377 22.8516 6.66843 22.7493 6.56864C22.647 6.46885 22.5083 6.41278 22.3636 6.41277H21.8182V4.28421C21.8182 4.14309 21.7607 4.00774 21.6584 3.90795C21.5561 3.80816 21.4174 3.75209 21.2727 3.75208H20.7273V1.62354C20.7273 1.48241 20.6698 1.34707 20.5675 1.24728C20.4652 1.14748 20.3265 1.09142 20.1818 1.09141H3.81819C3.80115 1.09063 3.78409 1.09063 3.76705 1.09141V1.09141ZM4.36364 2.15567H19.6364V3.75208H4.36364V2.15567V2.15567ZM3.27273 4.81635H20.7273V6.41277H3.27273V4.81635V4.81635ZM2.18182 7.47704H21.8182V9.07344H2.18182V7.47704V7.47704ZM1.09091 10.1377H1.59375H22.4148H22.9091V21.8447H1.09091V10.1377V10.1377Z" fill="#3B3B3B"/>
<rect opacity="0.4" x="3.27197" y="12" width="17.4545" height="7.63636" fill="#3B3B3B"/>
</g>
<defs>
<clipPath id="clip0_397_94646">
<rect width="24" height="24" fill="white"/>
</clipPath>
</defs>
</svg>
