<svg width="16" height="16" viewBox="0 0 16 16" fill="none" xmlns="http://www.w3.org/2000/svg">
<path d="M8 3C8.55228 3 9 3.44772 9 4V9.585L11.2929 7.29289C11.6534 6.93241 12.2206 6.90468 12.6129 7.2097L12.7071 7.29289C13.0976 7.68342 13.0976 8.31658 12.7071 8.70711L8.70711 12.7071C8.67864 12.7356 8.64847 12.7623 8.61675 12.7872C8.60984 12.7927 8.6026 12.7982 8.59531 12.8037C8.57113 12.8215 8.54628 12.8383 8.52066 12.8539C8.50861 12.8614 8.49639 12.8685 8.48406 12.8753C8.46429 12.8862 8.44389 12.8966 8.4231 12.9063C8.4061 12.9143 8.3888 12.9218 8.37134 12.9288C8.35158 12.9367 8.3318 12.9439 8.31174 12.9505C8.29685 12.9553 8.28146 12.9599 8.26599 12.9642C8.24444 12.9702 8.22275 12.9754 8.20079 12.9798C8.18338 12.9833 8.16595 12.9864 8.14847 12.989C8.10036 12.9962 8.05062 13 8 13L8.08522 12.9964C8.06792 12.9979 8.05059 12.9989 8.03325 12.9995L8 13C7.98887 13 7.97779 12.9998 7.96675 12.9995C7.94973 12.9989 7.93173 12.9978 7.91377 12.9963C7.89211 12.9945 7.87148 12.992 7.85104 12.989C7.83405 12.9864 7.81662 12.9833 7.79927 12.9798C7.77725 12.9754 7.75556 12.9702 7.73416 12.9643C7.71854 12.9599 7.70315 12.9553 7.68786 12.9503C7.6682 12.9439 7.64842 12.9367 7.62894 12.9289C7.6112 12.9218 7.5939 12.9143 7.57678 12.9063C7.55611 12.8966 7.53571 12.8862 7.51572 12.8751C7.50361 12.8685 7.49139 12.8614 7.47929 12.854C7.45373 12.8383 7.42887 12.8215 7.40484 12.8037C7.36567 12.7747 7.32829 12.7425 7.29289 12.7071L7.38325 12.7872C7.35153 12.7623 7.32136 12.7356 7.29289 12.7071L3.29289 8.70711C2.90237 8.31658 2.90237 7.68342 3.29289 7.29289C3.68342 6.90237 4.31658 6.90237 4.70711 7.29289L7 9.585L7 4C7 3.48716 7.38604 3.06449 7.88338 3.00673L8 3Z" fill="#242424"/>
</svg>
