<svg width="11" height="14" viewBox="0 0 11 14" fill="none" xmlns="http://www.w3.org/2000/svg">
<path opacity="0.5" fill-rule="evenodd" clip-rule="evenodd" d="M2.66073 1.79961C2.92844 1.04218 3.6508 0.499512 4.4999 0.499512H5.8C6.64911 0.499512 7.37145 1.04218 7.6392 1.79961H8.40022C9.1182 1.79961 9.70032 2.38169 9.70032 3.09971V5.04986C10.4183 5.04986 11.0004 5.63193 11.0004 6.34996V12.2004C11.0004 12.9184 10.4183 13.5005 9.70032 13.5005H4.4999C3.78188 13.5005 3.1998 12.9184 3.1998 12.2004H1.89971C1.18168 12.2004 0.599609 11.6183 0.599609 10.9003V3.09971C0.599609 2.38169 1.18168 1.79961 1.89971 1.79961H2.66073ZM2.66073 3.09971H2.15973C2.01612 3.09971 1.89971 3.21612 1.89971 3.35973V10.6403C1.89971 10.7839 2.01612 10.9003 2.15973 10.9003H3.1998V6.34996C3.1998 5.63193 3.78188 5.04986 4.4999 5.04986H8.40022V3.35973C8.40022 3.21612 8.28379 3.09971 8.1402 3.09971H7.6392C7.37145 3.85714 6.64911 4.39981 5.8 4.39981H4.4999C3.6508 4.39981 2.92844 3.85714 2.66073 3.09971ZM4.4999 1.79961C4.14089 1.79961 3.84985 2.09065 3.84985 2.44966C3.84985 2.80867 4.14089 3.09971 4.4999 3.09971H5.8C6.15902 3.09971 6.45005 2.80867 6.45005 2.44966C6.45005 2.09065 6.15902 1.79961 5.8 1.79961H4.4999ZM4.4999 6.60998V11.9404C4.4999 12.084 4.61632 12.2004 4.75992 12.2004H9.4403C9.58389 12.2004 9.70032 12.084 9.70032 11.9404V6.60998C9.70032 6.46637 9.58389 6.34996 9.4403 6.34996H4.75992C4.61632 6.34996 4.4999 6.46637 4.4999 6.60998ZM5.8 9.60022H8.40022C8.75924 9.60022 9.05027 9.89124 9.05027 10.2503C9.05027 10.6093 8.75924 10.9003 8.40022 10.9003H5.8C5.44099 10.9003 5.14995 10.6093 5.14995 10.2503C5.14995 9.89124 5.44099 9.60022 5.8 9.60022ZM5.8 7.65007H8.40022C8.75924 7.65007 9.05027 7.94109 9.05027 8.30012C9.05027 8.65914 8.75924 8.95017 8.40022 8.95017H5.8C5.44099 8.95017 5.14995 8.65914 5.14995 8.30012C5.14995 7.94109 5.44099 7.65007 5.8 7.65007Z" fill="white"/>
</svg>

