<svg width="16" height="16" viewBox="0 0 16 16" fill="none" xmlns="http://www.w3.org/2000/svg">
<path d="M8 6C8.54167 6 9.01042 6.19792 9.40625 6.59375C9.80208 6.98958 10 7.45833 10 8C10 8.54167 9.80208 9.01042 9.40625 9.40625C9.01042 9.80208 8.54167 10 8 10C7.45833 10 6.98958 9.80208 6.59375 9.40625C6.19792 9.01042 6 8.54167 6 8C6 7.45833 6.19792 6.98958 6.59375 6.59375C6.98958 6.19792 7.45833 6 8 6ZM8 11.5C8.9595 11.5 9.78271 11.1565 10.4696 10.4696C11.1565 9.78271 11.5 8.9595 11.5 8C11.5 7.0405 11.1565 6.21729 10.4696 5.53037C9.78271 4.84346 8.9595 4.5 8 4.5C7.0405 4.5 6.21729 4.84346 5.53037 5.53037C4.84346 6.21729 4.5 7.0405 4.5 8C4.5 8.9595 4.84346 9.78271 5.53037 10.4696C6.21729 11.1565 7.0405 11.5 8 11.5ZM12.2596 4.375C13.5305 5.29167 14.444 6.5 15 8C14.444 9.5 13.5305 10.7083 12.2596 11.625C10.9887 12.5417 9.56879 13 8 13C6.43121 13 5.01135 12.5417 3.74043 11.625C2.4695 10.7083 1.55603 9.5 1 8C1.55603 6.5 2.4695 5.29167 3.74043 4.375C5.01135 3.45833 6.43121 3 8 3C9.56879 3 10.9887 3.45833 12.2596 4.375Z" fill="#242424"/>
</svg>
