<svg width="16" height="16" viewBox="0 0 16 16" fill="none" xmlns="http://www.w3.org/2000/svg">
<path d="M10.1191 12.1316C10.1191 13.1079 10.934 13.9025 11.9353 13.9025C12.9367 13.9025 13.7516 13.1079 13.7516 12.1316C13.7516 11.363 13.2442 10.7143 12.5407 10.4699V2.7021C12.5407 2.36774 12.2697 2.09668 11.9353 2.09668L11.8459 2.10324C11.5539 2.14649 11.3299 2.39813 11.3299 2.7021V10.4699C10.6264 10.7143 10.1191 11.363 10.1191 12.1316ZM11.3299 12.0862C11.3299 11.7526 11.6011 11.4808 11.9353 11.4808C12.2695 11.4808 12.5407 11.7526 12.5407 12.0862C12.5407 12.4198 12.2695 12.6916 11.9353 12.6916C11.6011 12.6916 11.3299 12.4198 11.3299 12.0862ZM6.18379 7.8028C6.18379 8.57136 6.69114 9.22009 7.39464 9.46447V13.297C7.39464 13.6314 7.6657 13.9025 8.00007 13.9025L8.08953 13.8959C8.38147 13.8526 8.60549 13.601 8.60549 13.297V9.46447C9.30899 9.22009 9.81634 8.57136 9.81634 7.8028C9.81634 7.03425 9.30899 6.38552 8.60549 6.14114V2.7021C8.60549 2.36774 8.33443 2.09668 8.00007 2.09668L7.9106 2.10324C7.61866 2.14649 7.39464 2.39813 7.39464 2.7021V6.14114C6.69114 6.38552 6.18379 7.03425 6.18379 7.8028ZM7.39464 7.84821C7.39464 7.51462 7.66587 7.24279 8.00007 7.24279C8.33426 7.24279 8.60549 7.51462 8.60549 7.84821C8.60549 8.1818 8.33426 8.45363 8.00007 8.45363C7.66587 8.45363 7.39464 8.1818 7.39464 7.84821ZM2.24854 3.86755C2.24854 4.6361 2.75588 5.28483 3.45938 5.52921L3.45938 13.297C3.45938 13.601 3.6834 13.8526 3.97534 13.8959L4.06481 13.9025C4.39917 13.9025 4.67023 13.6314 4.67023 13.297L4.67023 5.52921C5.37373 5.28483 5.88108 4.6361 5.88108 3.86755C5.88108 2.89121 5.06618 2.09668 4.06481 2.09668C3.06344 2.09668 2.24854 2.89121 2.24854 3.86755ZM3.45938 3.88268C3.45938 3.54909 3.73061 3.27726 4.06481 3.27726C4.399 3.27726 4.67023 3.54909 4.67023 3.88268C4.67023 4.21627 4.399 4.48811 4.06481 4.48811C3.73061 4.48811 3.45938 4.21627 3.45938 3.88268Z" fill="#242424"/>
</svg>
