<svg width="16" height="16" viewBox="0 0 16 16" fill="none" xmlns="http://www.w3.org/2000/svg">
<path d="M8.07492 10.2664C7.69974 10.2664 7.3956 10.5705 7.3956 10.9457C7.3956 11.3209 7.69974 11.625 8.07492 11.625H8.11723C8.4924 11.625 8.79654 11.3209 8.79654 10.9457C8.79654 10.5705 8.4924 10.2664 8.11723 10.2664H8.07492Z" fill="#242424"/>
<path d="M5.77495 6.1957C5.68168 6.56228 5.99504 6.88155 6.3733 6.88155C6.74058 6.88155 7.02968 6.56881 7.19909 6.24294C7.21889 6.20485 7.24052 6.16699 7.26397 6.12937C7.41754 5.88804 7.67611 5.76738 8.03966 5.76738C8.40948 5.76738 8.66335 5.8661 8.80125 6.06355C8.94228 6.25786 9.0128 6.47412 9.0128 6.71231C9.0128 6.91916 8.95012 7.10877 8.82475 7.28115C8.7558 7.38144 8.66491 7.47389 8.55208 7.55851L8.2089 7.82648C7.87042 8.08974 7.66044 8.32323 7.57895 8.52695C7.5365 8.63144 7.50255 8.78058 7.47712 8.97438C7.4309 9.32649 7.72327 9.62231 8.07839 9.62231H8.13802C8.44832 9.62231 8.6655 9.36347 8.75893 9.06758C8.81848 8.87953 8.93915 8.71499 9.12092 8.57396L9.4547 8.3154C9.79319 8.05213 10.022 7.83588 10.1411 7.66664C10.3448 7.3877 10.4466 7.04452 10.4466 6.63709C10.4466 5.97266 10.2116 5.47121 9.74147 5.13272C9.27449 4.79424 8.68685 4.625 7.97855 4.625C7.43948 4.625 6.98504 4.7441 6.61521 4.98229C6.19239 5.25136 5.9123 5.65583 5.77495 6.1957Z" fill="#242424"/>
<path fill-rule="evenodd" clip-rule="evenodd" d="M8 1.5C4.41015 1.5 1.5 4.41015 1.5 8C1.5 11.5899 4.41015 14.5 8 14.5C11.5899 14.5 14.5 11.5899 14.5 8C14.5 4.41015 11.5899 1.5 8 1.5ZM2.5 8C2.5 4.96243 4.96243 2.5 8 2.5C11.0376 2.5 13.5 4.96243 13.5 8C13.5 11.0376 11.0376 13.5 8 13.5C4.96243 13.5 2.5 11.0376 2.5 8Z" fill="#242424"/>
</svg>
