<svg width="110" height="32" viewBox="0 0 110 32" fill="none" xmlns="http://www.w3.org/2000/svg">
<path d="M41.8915 11.5186C40.6404 11.5186 39.5785 11.9458 38.7081 12.7992C37.8366 13.6526 37.4014 14.6885 37.4014 15.9056C37.4014 17.1976 37.8286 18.2709 38.682 19.1243C39.5354 19.989 40.5939 20.4219 41.8575 20.4219C43.1325 20.4219 44.208 19.9981 45.0852 19.1503C45.9556 18.297 46.3919 17.2384 46.3919 15.9748C46.3919 14.7236 45.959 13.6673 45.0943 12.8083C44.2159 11.9481 43.1484 11.5186 41.8915 11.5186ZM43.7173 17.9468C43.2617 18.4375 42.6531 18.6823 41.8915 18.6823C41.1356 18.6823 40.527 18.4341 40.0658 17.9377C39.6159 17.447 39.3915 16.7817 39.3915 15.9385C39.3915 15.1543 39.6227 14.5139 40.0839 14.0175C40.5452 13.5211 41.1481 13.2729 41.8927 13.2729C42.6486 13.2729 43.2572 13.5211 43.7184 14.0175C44.174 14.5083 44.4018 15.1622 44.4018 15.9816C44.4007 16.8021 44.1729 17.4572 43.7173 17.9468Z" fill="#323233"/>
<path d="M51.4081 11.5186C50.157 11.5186 49.0951 11.9458 48.2247 12.7992C47.3532 13.6526 46.918 14.6885 46.918 15.9056C46.918 17.1976 47.3452 18.2709 48.1986 19.1243C49.052 19.989 50.1105 20.4219 51.3741 20.4219C52.6491 20.4219 53.7246 19.9981 54.6018 19.1503C55.4722 18.297 55.9085 17.2384 55.9085 15.9748C55.9085 14.7236 55.4756 13.6673 54.6109 12.8083C53.7326 11.9481 52.6661 11.5186 51.4081 11.5186ZM53.2339 17.9468C52.7783 18.4375 52.1697 18.6823 51.4081 18.6823C50.6522 18.6823 50.0436 18.4341 49.5824 17.9377C49.1325 17.447 48.9081 16.7817 48.9081 15.9385C48.9081 15.1543 49.1393 14.5139 49.6005 14.0175C50.0618 13.5211 50.6647 13.2729 51.4081 13.2729C52.1641 13.2729 52.7726 13.5211 53.2339 14.0175C53.6895 14.5083 53.9173 15.1622 53.9173 15.9816C53.9173 16.8021 53.6895 17.4572 53.2339 17.9468Z" fill="#323233"/>
<path d="M60.4336 11.5186C60.0472 11.5186 59.7128 11.5911 59.4295 11.735C59.153 11.8733 58.8357 12.1305 58.4775 12.5045V11.752H56.5305V20.1794H58.4775V15.8104C58.4775 14.2068 59.0079 13.4055 60.0698 13.4055C60.4212 13.4055 60.7827 13.5381 61.151 13.8033L62.0418 12.0206C61.4831 11.6852 60.947 11.5186 60.4336 11.5186Z" fill="#323233"/>
<path d="M68.1309 12.7303C67.3524 11.9234 66.4695 11.5188 65.4835 11.5188C64.3468 11.5188 63.4039 11.9426 62.6548 12.7904C61.8989 13.6324 61.5215 14.6819 61.5215 15.9399C61.5215 17.2262 61.8989 18.2994 62.6548 19.1585C63.4164 20.0005 64.374 20.4221 65.5277 20.4221C66.4967 20.4221 67.3648 20.047 68.1321 19.2979V20.1807H70.087V5.56543H68.1321V12.7303H68.1309ZM67.5847 17.9379C67.1404 18.4343 66.5579 18.6825 65.8371 18.6825C65.1617 18.6825 64.603 18.4264 64.1587 17.913C63.7258 17.4052 63.5093 16.7479 63.5093 15.9399C63.5093 15.1839 63.7314 14.5493 64.1757 14.0359C64.6256 13.5281 65.1855 13.2743 65.8541 13.2743C66.5636 13.2743 67.1404 13.5247 67.5847 14.0268C68.0289 14.5402 68.2511 15.1919 68.2511 15.9818C68.2511 16.7728 68.0289 17.4245 67.5847 17.9379Z" fill="#323233"/>
<path d="M71.9524 6.99316C71.6068 6.99316 71.3087 7.1167 71.0617 7.36489C70.8135 7.61309 70.6899 7.90662 70.6899 8.24775C70.6899 8.60588 70.8135 8.90848 71.0617 9.15667C71.3099 9.40487 71.6091 9.5284 71.9615 9.5284C72.3128 9.5284 72.6109 9.40487 72.8523 9.15667C73.1005 8.90848 73.224 8.60928 73.224 8.25682C73.224 7.90549 73.0994 7.60742 72.8523 7.36603C72.6041 7.1167 72.3049 6.99316 71.9524 6.99316Z" fill="#323233"/>
<path d="M72.9307 11.752H70.9836V20.1793H72.9307V11.752Z" fill="#323233"/>
<path d="M78.0939 11.5186C77.2405 11.5186 76.4732 11.8563 75.7921 12.5306V11.752H73.8372V20.1794H75.7921V16.1176C75.7921 15.0693 75.9247 14.3349 76.1899 13.9144C76.4608 13.4883 76.9198 13.2752 77.5657 13.2752C78.1596 13.2752 78.5699 13.4361 78.7942 13.7591C79.0254 14.0765 79.1399 14.6488 79.1399 15.4784V20.1794H81.0949V15.0137C81.0949 13.826 80.858 12.9692 80.3854 12.4445C79.838 11.8268 79.0742 11.5186 78.0939 11.5186Z" fill="#323233"/>
<path d="M88.4014 12.7301C87.6228 11.9231 86.7433 11.5186 85.7619 11.5186C84.6252 11.5186 83.68 11.9401 82.9241 12.7822C82.1682 13.6243 81.7908 14.6771 81.7908 15.9408C81.7908 17.2271 82.1682 18.3004 82.9241 19.1594C83.6857 20.0015 84.649 20.4231 85.814 20.4231C86.7365 20.4231 87.599 20.0479 88.4014 19.2988V20.1817H90.3563V11.7543H88.4014V12.7301V12.7301ZM87.8562 17.9377C87.412 18.4341 86.8295 18.6823 86.1087 18.6823C85.4332 18.6823 84.8745 18.4261 84.4302 17.9128C83.9973 17.405 83.7809 16.7477 83.7809 15.9396C83.7809 15.1837 84.003 14.5491 84.4472 14.0357C84.8972 13.5279 85.457 13.2741 86.1257 13.2741C86.8351 13.2741 87.412 13.5245 87.8562 14.0266C88.3005 14.54 88.5226 15.1916 88.5226 15.9816C88.5226 16.7726 88.3005 17.4243 87.8562 17.9377Z" fill="#323233"/>
<path d="M93.829 8.66309H91.882V11.7525H91.0513V13.5692H91.882V20.1799H93.829V13.5692H95.3431V11.7525H93.829V8.66309Z" fill="#323233"/>
<path d="M100.913 18.3366C100.596 18.5678 100.195 18.6823 99.7107 18.6823C99.0873 18.6823 98.5774 18.4805 98.1796 18.0771C97.7818 17.668 97.5562 17.1172 97.5041 16.4247H103.544L103.553 15.9657C103.553 14.5751 103.194 13.4883 102.479 12.704C101.759 11.9141 100.778 11.5186 99.5373 11.5186C98.3088 11.5186 97.3228 11.9254 96.5782 12.738C95.8404 13.5631 95.4709 14.642 95.4709 15.9736C95.4709 17.3178 95.8517 18.3967 96.6133 19.2093C97.3749 20.0173 98.3836 20.4208 99.6415 20.4208C100.08 20.4208 100.487 20.3743 100.861 20.2825C101.236 20.1907 101.585 20.0445 101.908 19.8451C102.231 19.6456 102.534 19.3917 102.817 19.0835C103.099 18.7752 103.368 18.4046 103.622 17.9717L101.977 17.0548C101.579 17.6782 101.225 18.1054 100.913 18.3366ZM97.911 14.183C98.0322 13.9926 98.1773 13.8294 98.3484 13.6945C98.5184 13.5585 98.7077 13.4554 98.9151 13.3829C99.1225 13.3103 99.3446 13.2752 99.5815 13.2752C100.62 13.2752 101.275 13.7943 101.545 14.8324H97.6344C97.6979 14.5899 97.7897 14.3734 97.911 14.183Z" fill="#323233"/>
<path d="M109.462 16.0915C109.103 15.7175 108.409 15.3084 107.376 14.8641C106.626 14.5468 106.252 14.2272 106.252 13.9053C106.252 13.7206 106.316 13.5699 106.442 13.452C106.569 13.3341 106.722 13.2752 106.901 13.2752C107.277 13.2752 107.59 13.5325 107.844 14.0447L109.454 13.1879C108.929 12.075 108.127 11.5186 107.049 11.5186C106.317 11.5186 105.693 11.7577 105.18 12.2371C104.678 12.7165 104.427 13.3217 104.427 14.0538C104.427 14.608 104.575 15.0602 104.868 15.4126C105.099 15.6892 105.497 15.9668 106.063 16.2434C106.265 16.342 106.464 16.4372 106.66 16.529C106.856 16.6208 107.052 16.716 107.248 16.8146C107.756 17.1149 108.01 17.4379 108.01 17.7836C108.01 18.3831 107.681 18.6834 107.024 18.6834C106.695 18.6834 106.412 18.5735 106.176 18.3547C106.055 18.2448 105.879 17.9887 105.648 17.5852L103.987 18.3547C104.575 19.734 105.575 20.4231 106.989 20.4231C107.814 20.4231 108.518 20.1635 109.1 19.6456C109.7 19.0982 110 18.4182 110 17.6056C109.998 16.971 109.819 16.4666 109.462 16.0915Z" fill="#323233"/>
<path d="M38.3534 11.7602L35.629 11.759L32.4013 14.9879V5.56543H30.4769V14.9901L27.2493 11.7613L24.5259 11.7636L28.7124 15.9501L24.4919 20.1728L27.2175 20.1717L30.4769 16.9122V20.1819H32.4013V16.9088L35.6618 20.1683L38.3863 20.1694L34.167 15.9467L38.3534 11.7602Z" fill="#323233"/>
<path d="M19.9451 4.45568L15.7257 0.236328L10.1748 5.7828L11.537 7.14845L11.5382 7.14732L15.7235 2.96197L19.9462 7.18359L21.3084 5.82134L19.9451 4.45795V4.45568Z" fill="#323233"/>
<path d="M5.58494 10.3643L0 15.9481L5.54641 21.4991L6.91205 20.1369L2.72561 15.9493L6.94718 11.7265L5.58494 10.3643Z" fill="#323233"/>
<path d="M15.7314 28.9386L11.5087 24.7158L10.1465 26.0781L15.7292 31.6631L21.2801 26.1166L19.919 24.751L15.7314 28.9386Z" fill="#323233"/>
</svg>
