<svg width="16" height="16" viewBox="0 0 16 16" fill="none" xmlns="http://www.w3.org/2000/svg">
<path d="M14.2208 10.7051C14.4868 10.5727 14.8103 10.68 14.9433 10.9448C15.0763 11.2096 14.9685 11.5316 14.7025 11.664L8.00012 15L1.29777 11.664C1.03178 11.5316 0.923971 11.2096 1.05696 10.9448C1.18996 10.68 1.5134 10.5727 1.77939 10.7051L8.00012 13.8014L14.2208 10.7051ZM14.2208 7.48893C14.4868 7.35653 14.8103 7.46386 14.9433 7.72865C15.0763 7.99343 14.9685 8.31541 14.7025 8.4478L8.00012 11.7838L1.29777 8.4478C1.03178 8.31541 0.923971 7.99343 1.05696 7.72865C1.18996 7.46386 1.5134 7.35653 1.77939 7.48893L8.00012 10.5852L14.2208 7.48893ZM8.24093 1.05659L14.7025 4.27276C15.0993 4.4703 15.0993 5.0341 14.7025 5.23163L8.24093 8.4478C8.08933 8.52326 7.9109 8.52326 7.75931 8.4478L1.29777 5.23163C0.9009 5.0341 0.9009 4.4703 1.29777 4.27276L7.75931 1.05659C7.9109 0.981137 8.08933 0.981137 8.24093 1.05659Z" fill="#242424"/>
</svg>
