<svg width="20" height="20" viewBox="0 0 20 20" fill="none" xmlns="http://www.w3.org/2000/svg">
<g clip-path="url(#clip0_397_94531)">
<path d="M4.4051 19.0123C3.90606 19.9294 2.75802 20.2684 1.84086 19.7694C0.923707 19.2703 0.58475 18.1223 1.08378 17.2051C1.58281 16.288 2.73086 15.949 3.64801 16.448C4.56517 16.9471 4.90413 18.0951 4.4051 19.0123Z" fill="white"/>
<path d="M18.0613 16.4517C17.5623 17.3689 16.4143 17.7078 15.4971 17.2088C14.58 16.7098 14.241 15.5617 14.74 14.6446C15.2391 13.7274 16.3871 13.3885 17.3043 13.8875C18.2214 14.3865 18.5604 15.5346 18.0613 16.4517Z" fill="white"/>
<path d="M12.0867 2.7945C11.5877 3.71165 10.4397 4.05061 9.5225 3.55158C8.60535 3.05255 8.26639 1.9045 8.76542 0.987347C9.26445 0.0701915 10.4125 -0.268765 11.3297 0.230266C12.2468 0.729297 12.5858 1.87734 12.0867 2.7945Z" fill="white"/>
<path d="M3.55158 11.3306C3.05255 12.2478 1.9045 12.5867 0.987347 12.0877C0.0701915 11.5887 -0.268765 10.4406 0.230266 9.52348C0.729297 8.60632 1.87734 8.26737 2.7945 8.7664C3.71165 9.26543 4.05061 10.4135 3.55158 11.3306Z" fill="white"/>
<path d="M19.7703 2.7945C19.2713 3.71165 18.1233 4.05061 17.2061 3.55158C16.2889 3.05255 15.95 1.9045 16.449 0.987347C16.948 0.0701915 18.0961 -0.268765 19.0132 0.230266C19.9304 0.729297 20.2694 1.87734 19.7703 2.7945Z" fill="white"/>
<path fill-rule="evenodd" clip-rule="evenodd" d="M18.6008 1.94829L16.8736 16.1014L2.85687 18.7074L2.67407 17.7243L15.9698 15.2523L17.6082 1.82715L18.6008 1.94829Z" fill="white"/>
<path fill-rule="evenodd" clip-rule="evenodd" d="M2.36495 10.9888C2.3709 10.971 2.38672 10.9202 2.38672 10.8503H1.38672C1.38672 10.7153 1.44021 10.6093 1.45474 10.5805L1.45569 10.5786C1.4795 10.5313 1.50785 10.4864 1.53367 10.4481C1.58626 10.3702 1.65651 10.279 1.73649 10.1807C1.89817 9.98209 2.12704 9.72116 2.40336 9.41665C2.95753 8.80595 3.72188 7.99876 4.56753 7.12106C6.25983 5.36464 8.28943 3.31368 9.64218 1.96094L10.3493 2.66804C8.99902 4.01831 6.97413 6.06453 5.28766 7.8149C4.44394 8.6906 3.68785 9.48921 3.14392 10.0886C2.87119 10.3892 2.65661 10.6344 2.51208 10.812C2.43896 10.9018 2.39043 10.9662 2.36251 11.0076C2.35174 11.0236 2.34771 11.0307 2.34768 11.0307C2.34766 11.0307 2.34812 11.0298 2.34893 11.0282C2.3506 11.0249 2.35757 11.0109 2.36495 10.9888Z" fill="white"/>
</g>
<defs>
<clipPath id="clip0_397_94531">
<rect width="20" height="20" fill="white"/>
</clipPath>
</defs>
</svg>
