<svg width="24" height="24" viewBox="0 0 24 24" fill="none" xmlns="http://www.w3.org/2000/svg">
<g clip-path="url(#clip0_397_94648)">
<path d="M5.28582 22.8153C4.68698 23.9159 3.30933 24.3226 2.20874 23.7238C1.10816 23.125 0.701408 21.7473 1.30025 20.6467C1.89908 19.5461 3.27674 19.1394 4.37732 19.7382C5.47791 20.3371 5.88466 21.7147 5.28582 22.8153Z" fill="#3B3B3B"/>
<path d="M21.6735 19.7421C21.0747 20.8427 19.697 21.2494 18.5964 20.6506C17.4959 20.0517 17.0891 18.6741 17.6879 17.5735C18.2868 16.4729 19.6644 16.0662 20.765 16.665C21.8656 17.2638 22.2724 18.6415 21.6735 19.7421Z" fill="#3B3B3B"/>
<path d="M14.5038 3.3534C13.905 4.45399 12.5273 4.86073 11.4268 4.2619C10.3262 3.66306 9.91943 2.2854 10.5183 1.18482C11.1171 0.0842298 12.4948 -0.322518 13.5953 0.276319C14.6959 0.875157 15.1027 2.25281 14.5038 3.3534Z" fill="#3B3B3B"/>
<path d="M4.26165 13.5966C3.66281 14.6972 2.28516 15.1039 1.18457 14.5051C0.0839857 13.9062 -0.322762 12.5286 0.276075 11.428C0.874912 10.3274 2.25257 9.92065 3.35315 10.5195C4.45374 11.1183 4.86049 12.496 4.26165 13.5966Z" fill="#3B3B3B"/>
<path d="M23.7243 3.3534C23.1255 4.45399 21.7478 4.86073 20.6472 4.2619C19.5466 3.66306 19.1399 2.2854 19.7387 1.18482C20.3376 0.0842298 21.7152 -0.322518 22.8158 0.276319C23.9164 0.875157 24.3231 2.25281 23.7243 3.3534Z" fill="#3B3B3B"/>
<path fill-rule="evenodd" clip-rule="evenodd" d="M22.3211 2.33775L20.2484 19.3214L3.42834 22.4487L3.20898 21.269L19.1639 18.3025L21.1299 2.19238L22.3211 2.33775Z" fill="#3B3B3B"/>
<path fill-rule="evenodd" clip-rule="evenodd" d="M2.83769 13.186C2.84483 13.1646 2.86382 13.1036 2.86382 13.0198H1.66382C1.66382 12.8578 1.72801 12.7306 1.74544 12.6961L1.74659 12.6938C1.77515 12.637 1.80918 12.5831 1.84016 12.5372C1.90327 12.4437 1.98757 12.3342 2.08355 12.2163C2.27756 11.9779 2.55221 11.6648 2.88379 11.2994C3.54879 10.5665 4.46601 9.59793 5.4808 8.54469C7.51155 6.43698 9.94708 3.97583 11.5704 2.35254L12.4189 3.20107C10.7986 4.82138 8.36871 7.27685 6.34495 9.37729C5.33248 10.4281 4.42518 11.3865 3.77246 12.1058C3.44519 12.4664 3.18768 12.7607 3.01425 12.9738C2.92651 13.0816 2.86827 13.1589 2.83477 13.2085C2.82185 13.2277 2.81701 13.2363 2.81697 13.2362C2.81695 13.2362 2.8175 13.2352 2.81847 13.2333C2.82047 13.2293 2.82884 13.2125 2.83769 13.186Z" fill="#3B3B3B"/>
</g>
<defs>
<clipPath id="clip0_397_94648">
<rect width="24" height="24" fill="white"/>
</clipPath>
</defs>
</svg>
