<svg width="20" height="20" viewBox="0 0 20 20" fill="none" xmlns="http://www.w3.org/2000/svg">
<g clip-path="url(#clip0_397_94597)">
<path opacity="0.4" d="M1.58862 7.12054L9.14075 1.60645L11.0783 9.13131L17.9509 14.3084C14.07 15.5474 6.27006 18.0967 6.11742 18.3813C5.96477 18.6659 3.03462 10.9927 1.58862 7.12054Z" fill="white"/>
<path fill-rule="evenodd" clip-rule="evenodd" d="M9.30944 1.13575C9.46548 1.19166 9.58366 1.32126 9.625 1.48177L11.5189 8.83721L18.2518 13.909C18.4011 14.0215 18.4752 14.2078 18.4439 14.3921C18.4126 14.5764 18.2811 14.7278 18.103 14.7847C16.164 15.4037 13.2466 16.3499 10.7959 17.1765C9.56996 17.59 8.46435 17.9724 7.65729 18.2685C7.25279 18.4168 6.9293 18.5414 6.70497 18.636C6.59159 18.6839 6.51249 18.7204 6.4638 18.7457C6.46157 18.7469 6.45949 18.748 6.45754 18.749C6.39436 18.8092 6.30623 18.8632 6.18861 18.8823C6.01187 18.9111 5.8805 18.8405 5.83017 18.809C5.73284 18.7482 5.67261 18.6654 5.65372 18.6394L5.653 18.6384C5.59835 18.5633 5.54358 18.4638 5.49348 18.3662C5.38782 18.1603 5.2497 17.8558 5.08958 17.4842C4.76758 16.7368 4.33945 15.6774 3.87286 14.493C2.93898 12.1224 1.8438 9.23302 1.12026 7.29546C1.04183 7.08546 1.11277 6.84892 1.29382 6.71673L8.84595 1.20263C8.97981 1.10489 9.15341 1.07984 9.30944 1.13575ZM2.18984 7.3007C2.90899 9.22149 3.92779 11.9041 4.80327 14.1264C5.26905 15.3088 5.69246 16.3562 6.00797 17.0885C6.11895 17.3461 6.21451 17.5599 6.29254 17.7247C6.30036 17.7214 6.30824 17.7181 6.31618 17.7147C6.56278 17.6106 6.90403 17.4796 7.31288 17.3296C8.13252 17.029 9.24808 16.6432 10.4763 16.229C12.571 15.5224 15.0037 14.7295 16.8789 14.1268L10.7775 9.53069C10.687 9.46254 10.6224 9.36569 10.5941 9.25599L8.84037 2.44489L2.18984 7.3007Z" fill="white"/>
<path d="M11.0549 2.6631C10.5861 3.53713 9.50771 3.86014 8.6462 3.38458C7.78468 2.90901 7.46629 1.81495 7.93505 0.94092C8.4038 0.066891 9.4822 -0.256127 10.3437 0.219439C11.2052 0.695005 11.5236 1.78907 11.0549 2.6631Z" fill="white"/>
<path d="M13.1887 9.99415C12.7199 10.8682 11.6415 11.1912 10.78 10.7156C9.91847 10.2401 9.60008 9.146 10.0688 8.27197C10.5376 7.39795 11.616 7.07493 12.4775 7.55049C13.339 8.02606 13.6574 9.12012 13.1887 9.99415Z" fill="white"/>
<path d="M19.7836 14.6602C19.3149 15.5342 18.2365 15.8572 17.375 15.3817C16.5134 14.9061 16.1951 13.812 16.6638 12.938C17.1326 12.064 18.211 11.7409 19.0725 12.2165C19.934 12.6921 20.2524 13.7861 19.7836 14.6602Z" fill="white"/>
<path d="M7.31658 19.0586C6.84783 19.9326 5.76943 20.2557 4.90792 19.7801C4.0464 19.3045 3.72801 18.2105 4.19677 17.3364C4.66552 16.4624 5.74392 16.1394 6.60543 16.6149C7.46694 17.0905 7.78534 18.1846 7.31658 19.0586Z" fill="white"/>
<path d="M3.33611 7.63185C2.86736 8.50588 1.78896 8.82889 0.927447 8.35333C0.0659331 7.87776 -0.25246 6.7837 0.216296 5.90967C0.685052 5.03564 1.76345 4.71262 2.62496 5.18819C3.48648 5.66375 3.80487 6.75782 3.33611 7.63185Z" fill="white"/>
</g>
<defs>
<clipPath id="clip0_397_94597">
<rect width="20" height="20" fill="white"/>
</clipPath>
</defs>
</svg>
