<svg width="24" height="24" viewBox="0 0 24 24" fill="none" xmlns="http://www.w3.org/2000/svg">
<g clip-path="url(#clip0_397_94647)">
<rect y="8" width="4.00002" height="4.00006" fill="#3B3B3B"/>
<rect y="16" width="4.00002" height="4.00006" fill="#3B3B3B"/>
<rect y="4" width="4.00002" height="4.00006" fill="#3B3B3B"/>
<rect y="12" width="4.00002" height="4.00006" fill="#3B3B3B"/>
<rect opacity="0.9" y="20" width="4.00002" height="4.00006" fill="#3B3B3B"/>
<rect x="4" width="4.00002" height="4.00006" fill="#3B3B3B"/>
<rect x="4" y="8" width="4.00002" height="4.00006" fill="#3B3B3B"/>
<rect opacity="0.9" x="4" y="16" width="4.00002" height="4.00006" fill="#3B3B3B"/>
<rect x="4" y="4" width="4.00002" height="4.00006" fill="#3B3B3B"/>
<rect opacity="0.9" x="4" y="12" width="4.00002" height="4.00006" fill="#3B3B3B"/>
<rect opacity="0.8" x="4" y="20" width="4.00002" height="4.00006" fill="#3B3B3B"/>
<rect x="8" width="4.00002" height="4.00006" fill="#3B3B3B"/>
<rect opacity="0.9" x="8" y="8" width="4.00002" height="4.00006" fill="#3B3B3B"/>
<rect opacity="0.8" x="8" y="16" width="4.00002" height="4.00006" fill="#3B3B3B"/>
<rect x="8" y="4" width="4.00002" height="4.00006" fill="#3B3B3B"/>
<rect opacity="0.8" x="8" y="12" width="4.00002" height="4.00006" fill="#3B3B3B"/>
<rect opacity="0.7" x="8" y="20" width="4.00002" height="4.00006" fill="#3B3B3B"/>
<rect x="12" width="4.00002" height="4.00006" fill="#3B3B3B"/>
<rect opacity="0.8" x="12" y="8" width="4.00002" height="4.00006" fill="#3B3B3B"/>
<rect opacity="0.7" x="12" y="16" width="4.00002" height="4.00006" fill="#3B3B3B"/>
<rect opacity="0.9" x="12" y="4" width="4.00002" height="4.00006" fill="#3B3B3B"/>
<rect opacity="0.8" x="12" y="12" width="4.00002" height="4.00006" fill="#3B3B3B"/>
<rect opacity="0.6" x="12" y="20" width="4.00002" height="4.00006" fill="#3B3B3B"/>
<rect opacity="0.9" x="16" width="4.00002" height="4.00006" fill="#3B3B3B"/>
<rect opacity="0.7" x="16" y="8" width="4.00002" height="4.00006" fill="#3B3B3B"/>
<rect opacity="0.6" x="16" y="16" width="4.00002" height="4.00006" fill="#3B3B3B"/>
<rect opacity="0.8" x="16" y="4" width="4.00002" height="4.00006" fill="#3B3B3B"/>
<rect opacity="0.7" x="16" y="12" width="4.00002" height="4.00006" fill="#3B3B3B"/>
<rect opacity="0.3" x="16" y="20" width="4.00002" height="4.00006" fill="#3B3B3B"/>
<rect opacity="0.8" x="20" width="4.00002" height="4.00006" fill="#3B3B3B"/>
<rect opacity="0.6" x="20" y="8" width="4.00002" height="4.00006" fill="#3B3B3B"/>
<rect opacity="0.3" x="20" y="16" width="4.00002" height="4.00006" fill="#3B3B3B"/>
<rect opacity="0.7" x="20" y="4" width="4.00002" height="4.00006" fill="#3B3B3B"/>
<rect opacity="0.6" x="20" y="12" width="4.00002" height="4.00006" fill="#3B3B3B"/>
<rect opacity="0.2" x="20" y="20" width="4.00002" height="4.00006" fill="#3B3B3B"/>
<rect x="0.000244141" width="4.00002" height="4.00006" fill="#3B3B3B"/>
</g>
<defs>
<clipPath id="clip0_397_94647">
<rect width="24" height="24" fill="white"/>
</clipPath>
</defs>
</svg>
