<svg width="20" height="20" viewBox="0 0 20 20" fill="none" xmlns="http://www.w3.org/2000/svg">
<g clip-path="url(#clip0_397_94490)">
<rect y="6.66699" width="3.33335" height="3.33338" fill="white"/>
<rect y="13.334" width="3.33335" height="3.33338" fill="white"/>
<rect y="3.33398" width="3.33335" height="3.33338" fill="white"/>
<rect y="10" width="3.33335" height="3.33338" fill="white"/>
<rect opacity="0.9" y="16.667" width="3.33335" height="3.33338" fill="white"/>
<rect x="3.33325" width="3.33335" height="3.33338" fill="white"/>
<rect x="3.33325" y="6.66699" width="3.33335" height="3.33338" fill="white"/>
<rect opacity="0.9" x="3.33325" y="13.334" width="3.33335" height="3.33338" fill="white"/>
<rect x="3.33325" y="3.33398" width="3.33335" height="3.33338" fill="white"/>
<rect opacity="0.9" x="3.33325" y="10" width="3.33335" height="3.33338" fill="white"/>
<rect opacity="0.8" x="3.33325" y="16.667" width="3.33335" height="3.33338" fill="white"/>
<rect x="6.66675" width="3.33335" height="3.33338" fill="white"/>
<rect opacity="0.9" x="6.66675" y="6.66699" width="3.33335" height="3.33338" fill="white"/>
<rect opacity="0.8" x="6.66675" y="13.334" width="3.33335" height="3.33338" fill="white"/>
<rect x="6.66675" y="3.33398" width="3.33335" height="3.33338" fill="white"/>
<rect opacity="0.8" x="6.66675" y="10" width="3.33335" height="3.33338" fill="white"/>
<rect opacity="0.7" x="6.66675" y="16.667" width="3.33335" height="3.33338" fill="white"/>
<rect x="10" width="3.33335" height="3.33338" fill="white"/>
<rect opacity="0.8" x="10" y="6.66699" width="3.33335" height="3.33338" fill="white"/>
<rect opacity="0.7" x="10" y="13.334" width="3.33335" height="3.33338" fill="white"/>
<rect opacity="0.9" x="10" y="3.33398" width="3.33335" height="3.33338" fill="white"/>
<rect opacity="0.8" x="10" y="10" width="3.33335" height="3.33338" fill="white"/>
<rect opacity="0.6" x="10" y="16.667" width="3.33335" height="3.33338" fill="white"/>
<rect opacity="0.9" x="13.3335" width="3.33335" height="3.33338" fill="white"/>
<rect opacity="0.7" x="13.3335" y="6.66699" width="3.33335" height="3.33338" fill="white"/>
<rect opacity="0.6" x="13.3335" y="13.334" width="3.33335" height="3.33338" fill="white"/>
<rect opacity="0.8" x="13.3335" y="3.33398" width="3.33335" height="3.33338" fill="white"/>
<rect opacity="0.7" x="13.3335" y="10" width="3.33335" height="3.33338" fill="white"/>
<rect opacity="0.3" x="13.3335" y="16.667" width="3.33335" height="3.33338" fill="white"/>
<rect opacity="0.8" x="16.6667" width="3.33335" height="3.33338" fill="white"/>
<rect opacity="0.6" x="16.6667" y="6.66699" width="3.33335" height="3.33338" fill="white"/>
<rect opacity="0.3" x="16.6667" y="13.334" width="3.33335" height="3.33338" fill="white"/>
<rect opacity="0.7" x="16.6667" y="3.33398" width="3.33335" height="3.33338" fill="white"/>
<rect opacity="0.6" x="16.6667" y="10" width="3.33335" height="3.33338" fill="white"/>
<rect opacity="0.2" x="16.6667" y="16.667" width="3.33335" height="3.33338" fill="white"/>
<rect x="0.000244141" width="3.33335" height="3.33338" fill="white"/>
</g>
<defs>
<clipPath id="clip0_397_94490">
<rect width="20" height="20" fill="white"/>
</clipPath>
</defs>
</svg>
