<svg width="20" height="20" viewBox="0 0 20 20" fill="none" xmlns="http://www.w3.org/2000/svg">
<g clip-path="url(#clip0_397_94484)">
<path d="M3.13921 0.909667C3.02619 0.920059 2.92125 0.971315 2.84502 1.05338C2.76879 1.13544 2.72679 1.24237 2.72728 1.35311V3.12689H2.27273C2.25853 3.12624 2.24431 3.12624 2.23012 3.12689C2.1171 3.13729 2.01216 3.18856 1.93593 3.27062C1.8597 3.35268 1.8177 3.45959 1.81819 3.57034V5.34413H1.36364C1.34944 5.34348 1.33522 5.34348 1.32103 5.34413C1.20801 5.35453 1.10307 5.4058 1.02684 5.48786C0.950605 5.56992 0.908605 5.67683 0.909095 5.78758V7.56136H0.45455C0.440353 7.56071 0.426133 7.56071 0.411936 7.56136C0.298918 7.57175 0.193975 7.62302 0.117745 7.70509C0.0415146 7.78715 -0.000485477 7.89407 4.23468e-06 8.00482V18.6475C1.30277e-05 18.7651 0.0479049 18.8779 0.133146 18.9611C0.218388 19.0443 0.333998 19.091 0.45455 19.091H19.5455C19.666 19.091 19.7816 19.0443 19.8669 18.9611C19.9521 18.8779 20 18.7651 20 18.6475V8.00482C20 7.88721 19.9521 7.77443 19.8669 7.69127C19.7816 7.60811 19.666 7.56137 19.5455 7.56136H19.0909V5.78758C19.0909 5.66997 19.043 5.55719 18.9578 5.47403C18.8725 5.39087 18.7569 5.34415 18.6364 5.34413H18.1818V3.57034C18.1818 3.45273 18.1339 3.33995 18.0487 3.25679C17.9634 3.17363 17.8478 3.12691 17.7273 3.12689H17.2727V1.35311C17.2727 1.23551 17.2248 1.12272 17.1396 1.03956C17.0543 0.9564 16.9387 0.909679 16.8182 0.909667H3.18182C3.16763 0.909017 3.15341 0.909017 3.13921 0.909667V0.909667ZM3.63637 1.79656H16.3636V3.12689H3.63637V1.79656V1.79656ZM2.72728 4.01379H17.2727V5.34413H2.72728V4.01379V4.01379ZM1.81819 6.23103H18.1818V7.56136H1.81819V6.23103V6.23103ZM0.909095 8.44827H1.32813H18.679H19.0909V18.2041H0.909095V8.44827V8.44827Z" fill="white"/>
<rect opacity="0.4" x="2.72656" y="10" width="14.5455" height="6.36364" fill="white"/>
</g>
<defs>
<clipPath id="clip0_397_94484">
<rect width="20" height="20" fill="white"/>
</clipPath>
</defs>
</svg>
