<svg width="24" height="24" viewBox="0 0 24 24" fill="none" xmlns="http://www.w3.org/2000/svg">
<g clip-path="url(#clip0_397_94644)">
<path fill-rule="evenodd" clip-rule="evenodd" d="M0.899902 4.5V19.5H23.0983V4.5H0.899902ZM1.4999 8.1V5.1H6.29833V8.1H1.4999ZM6.8999 8.1V5.1H11.6983V8.1H6.8999ZM12.2999 5.1V8.1H17.0983V5.1H12.2999ZM17.6999 8.1V5.1H22.4983V8.1H17.6999ZM1.4999 8.7V11.7H6.29833V8.7H1.4999ZM1.4999 15.3V12.3H6.29833V15.3H1.4999ZM1.4999 15.9V18.9H6.29833V15.9H1.4999ZM6.8999 11.7V8.7H11.6983V11.7H6.8999ZM6.8999 12.3V15.3H11.6983V12.3H6.8999ZM6.8999 18.9V15.9H11.6983V18.9H6.8999ZM12.2999 8.7V11.7H17.0983V8.7H12.2999ZM12.2999 15.3V12.3H17.0983V15.3H12.2999ZM12.2999 15.9V18.9H17.0983V15.9H12.2999ZM17.6999 11.7V8.7H22.4983V11.7H17.6999ZM17.6999 12.3V15.3H22.4983V12.3H17.6999ZM17.6999 18.9V15.9H22.4983V18.9H17.6999Z" fill="#3B3B3B"/>
<path opacity="0.4" d="M0 3.59961H24V8.3996H0V3.59961Z" fill="#3B3B3B"/>
<mask id="path-3-inside-1_397_94644" fill="white">
<rect y="3.59961" width="24" height="16.8" rx="0.5"/>
</mask>
<rect y="3.59961" width="24" height="16.8" rx="0.5" stroke="#3B3B3B" stroke-width="2" mask="url(#path-3-inside-1_397_94644)"/>
</g>
<defs>
<clipPath id="clip0_397_94644">
<rect width="24" height="24" fill="white"/>
</clipPath>
</defs>
</svg>
