<svg width="16" height="16" viewBox="0 0 16 16" fill="none" xmlns="http://www.w3.org/2000/svg">
<path d="M10.9176 8.16087L10.9455 8.17241C12.1839 8.73206 13.2323 9.63685 13.9667 10.7755L14.1193 11.0231L14.1327 11.0452L14.1212 11.0683C12.9153 13.4369 10.5081 14.815 8.00023 14.8079C5.492 14.815 3.08483 13.4369 1.87897 11.0683L1.86743 11.0452L1.8809 11.0231C2.61903 9.76786 3.72774 8.77204 5.05469 8.17241L5.08259 8.16087L5.10567 8.17914C5.8245 8.78103 6.71295 9.14407 7.64759 9.21784L7.89877 9.23142H8.10138L8.35256 9.21784C9.20223 9.15078 10.0137 8.84464 10.6943 8.33733L10.8945 8.17914L10.9176 8.16087ZM8.03991 1.19145C9.64937 1.19996 11.042 2.31344 11.4044 3.88159C11.7669 5.44975 11.004 7.06139 9.56149 7.7752C8.99524 8.05484 8.36349 8.17487 7.73415 8.1224C7.28615 8.08665 6.84956 7.96312 6.44924 7.75885C5.01428 7.02992 4.26842 5.41036 4.64729 3.8461C5.02617 2.28184 6.43044 1.18305 8.03991 1.19145Z" fill="#242424"/>
</svg>
